<svg xmlns="http://www.w3.org/2000/svg" xmlns:xlink="http://www.w3.org/1999/xlink" width="108" height="108" viewBox="0 0 108 108">
  <defs>
    <filter id="Trazado_904820" x="0" y="0" width="108" height="108" filterUnits="userSpaceOnUse">
      <feOffset dy="3" input="SourceAlpha"/>
      <feGaussianBlur stdDeviation="3" result="blur"/>
      <feFlood flood-opacity="0.161"/>
      <feComposite operator="in" in2="blur"/>
      <feComposite in="SourceGraphic"/>
    </filter>
  </defs>
  <g id="Icono" transform="translate(-615.101 6)">
    <g transform="matrix(1, 0, 0, 1, 615.1, -6)" filter="url(#Trazado_904820)">
      <g id="Trazado_904820-2" data-name="Trazado 904820" transform="translate(9 6)" fill="#ecf4fa">
        <path d="M 45 88.5 C 39.12687683105469 88.5 33.43022537231445 87.35007476806641 28.06830024719238 85.08217620849609 C 22.88852500915527 82.89131164550781 18.23629951477051 79.75458526611328 14.2408504486084 75.75914764404297 C 10.24541282653809 71.76370239257812 7.108687400817871 67.11147308349609 4.917825222015381 61.93170166015625 C 2.649924993515015 56.56977462768555 1.5 50.87312316894531 1.5 45 C 1.5 39.12687683105469 2.649924993515015 33.43022537231445 4.917825222015381 28.06830024719238 C 7.108687400817871 22.88852500915527 10.24541282653809 18.23629951477051 14.2408504486084 14.2408504486084 C 18.23629951477051 10.24541282653809 22.88852500915527 7.108687400817871 28.06830024719238 4.917825222015381 C 33.43022537231445 2.649924993515015 39.12687683105469 1.5 45 1.5 C 50.87312316894531 1.5 56.56977462768555 2.649924993515015 61.93170166015625 4.917825222015381 C 67.11147308349609 7.108687400817871 71.76370239257812 10.24541282653809 75.75914764404297 14.2408504486084 C 79.75458526611328 18.23629951477051 82.89131164550781 22.88852500915527 85.08217620849609 28.06830024719238 C 87.35007476806641 33.43022537231445 88.5 39.12687683105469 88.5 45 C 88.5 50.87312316894531 87.35007476806641 56.56977462768555 85.08217620849609 61.93170166015625 C 82.89131164550781 67.11147308349609 79.75458526611328 71.76370239257812 75.75914764404297 75.75914764404297 C 71.76370239257812 79.75458526611328 67.11147308349609 82.89131164550781 61.93170166015625 85.08217620849609 C 56.56977462768555 87.35007476806641 50.87312316894531 88.5 45 88.5 Z" stroke="none"/>
        <path d="M 45 3 C 39.32871246337891 3 33.82865524291992 4.110054016113281 28.65262985229492 6.299339294433594 C 23.65165710449219 8.414573669433594 19.15968322753906 11.44334411621094 15.301513671875 15.301513671875 C 11.44334411621094 19.15968322753906 8.414573669433594 23.65165710449219 6.299339294433594 28.65262985229492 C 4.110054016113281 33.82865524291992 3 39.32871246337891 3 45 C 3 50.67128753662109 4.110054016113281 56.17134475708008 6.299339294433594 61.34737396240234 C 8.414573669433594 66.34834289550781 11.44334411621094 70.84031677246094 15.301513671875 74.698486328125 C 19.15968322753906 78.55665588378906 23.65165710449219 81.58542633056641 28.65262985229492 83.70066070556641 C 33.82865524291992 85.88994598388672 39.32871246337891 87 45 87 C 50.67128753662109 87 56.17134475708008 85.88994598388672 61.34737396240234 83.70066070556641 C 66.34834289550781 81.58542633056641 70.84031677246094 78.55665588378906 74.698486328125 74.698486328125 C 78.55665588378906 70.84031677246094 81.58542633056641 66.34834289550781 83.70066070556641 61.34737396240234 C 85.88994598388672 56.17134475708008 87 50.67128753662109 87 45 C 87 39.32871246337891 85.88994598388672 33.82865524291992 83.70066070556641 28.65262985229492 C 81.58542633056641 23.65165710449219 78.55665588378906 19.15968322753906 74.698486328125 15.301513671875 C 70.84031677246094 11.44334411621094 66.34834289550781 8.414573669433594 61.34737396240234 6.299339294433594 C 56.17134475708008 4.110054016113281 50.67128753662109 3 45 3 M 45 0 C 69.85281372070312 0 90 20.14718627929688 90 45 C 90 69.85281372070312 69.85281372070312 90 45 90 C 20.14718627929688 90 0 69.85281372070312 0 45 C 0 20.14718627929688 20.14718627929688 0 45 0 Z" stroke="none" fill="#098009"/>
      </g>
    </g>
    <g id="investigacion-de-mercado" transform="translate(674.614 50.481)">
      <g id="Grupo_1144455" data-name="Grupo 1144455" transform="translate(-35.334 -35.301)">
        <g id="Grupo_1144451" data-name="Grupo 1144451" transform="translate(0)">
          <circle id="Elipse_11854" data-name="Elipse 11854" cx="11.399" cy="11.399" r="11.399" transform="translate(0 16.118) rotate(-45)" fill="#60b7ff"/>
          <circle id="Elipse_11855" data-name="Elipse 11855" cx="9.983" cy="9.983" r="9.983" transform="translate(6.138 6.135)" fill="#8ac9fe"/>
          <path id="Trazado_981246" data-name="Trazado 981246" d="M112.609,112.618h11.4a11.394,11.394,0,0,1-5.7,9.873Z" transform="translate(-96.488 -96.5)" fill="#fd4755" fill-rule="evenodd"/>
          <path id="Trazado_981247" data-name="Trazado 981247" d="M112.609,112.618h9.983a9.978,9.978,0,0,1-4.991,8.646Z" transform="translate(-96.488 -96.5)" fill="#fe646f" fill-rule="evenodd"/>
          <path id="Trazado_981248" data-name="Trazado 981248" d="M124.008,19.407h-11.4V8.008A11.4,11.4,0,0,1,124.008,19.407Z" transform="translate(-96.488 -3.289)" fill="#ffd064" fill-rule="evenodd"/>
          <path id="Trazado_981249" data-name="Trazado 981249" d="M122.592,30.989h-9.983V21.006A9.983,9.983,0,0,1,122.592,30.989Z" transform="translate(-96.488 -14.87)" fill="#ffe177" fill-rule="evenodd"/>
        </g>
        <g id="Grupo_1144452" data-name="Grupo 1144452" transform="translate(32.918 4.418)">
          <path id="Trazado_981250" data-name="Trazado 981250" d="M267.987,5.245h2.94a1.229,1.229,0,0,1,1.227,1.227v2.94a1.229,1.229,0,0,1-1.227,1.227h-2.94a1.229,1.229,0,0,1-1.227-1.227V6.472a1.229,1.229,0,0,1,1.227-1.227Z" transform="translate(-266.76 -5.245)" fill="#8ac9fe" fill-rule="evenodd"/>
          <path id="Trazado_981251" data-name="Trazado 981251" d="M267.987,87.87h2.94a1.229,1.229,0,0,1,1.227,1.227v2.94a1.229,1.229,0,0,1-1.227,1.227h-2.94a1.229,1.229,0,0,1-1.227-1.227V89.1A1.229,1.229,0,0,1,267.987,87.87Z" transform="translate(-266.76 -78.867)" fill="#ffe177" fill-rule="evenodd"/>
          <path id="Trazado_981252" data-name="Trazado 981252" d="M267.987,170.495h2.94a1.229,1.229,0,0,1,1.227,1.227v2.94a1.229,1.229,0,0,1-1.227,1.227h-2.94a1.229,1.229,0,0,1-1.227-1.227v-2.94A1.229,1.229,0,0,1,267.987,170.495Z" transform="translate(-266.76 -152.488)" fill="#fe646f" fill-rule="evenodd"/>
        </g>
        <g id="Grupo_1144453" data-name="Grupo 1144453" transform="translate(4.722 33.775)">
          <path id="Trazado_981253" data-name="Trazado 981253" d="M198.1,348.359h3.62a1.092,1.092,0,0,1,1.09,1.09V364.23a1.092,1.092,0,0,1-1.09,1.09H198.1a1.092,1.092,0,0,1-1.09-1.09V349.449A1.092,1.092,0,0,1,198.1,348.359Z" transform="translate(-176.417 -340.328)" fill="#ffe177" fill-rule="evenodd"/>
          <path id="Trazado_981254" data-name="Trazado 981254" d="M201.722,348.359a1.092,1.092,0,0,1,1.09,1.09V364.23a1.092,1.092,0,0,1-1.09,1.09H198.1a1.092,1.092,0,0,1-1.09-1.09h3.62a1.092,1.092,0,0,0,1.09-1.09Z" transform="translate(-176.417 -340.328)" fill="#ffd064" fill-rule="evenodd"/>
          <path id="Trazado_981255" data-name="Trazado 981255" d="M294.689,348.359h3.62a1.092,1.092,0,0,1,1.09,1.09V364.23a1.092,1.092,0,0,1-1.09,1.09h-3.62a1.092,1.092,0,0,1-1.09-1.09V349.449A1.092,1.092,0,0,1,294.689,348.359Z" transform="translate(-262.478 -340.328)" fill="#fe646f" fill-rule="evenodd"/>
          <path id="Trazado_981256" data-name="Trazado 981256" d="M298.308,348.359a1.092,1.092,0,0,1,1.09,1.09V364.23a1.092,1.092,0,0,1-1.09,1.09h-3.62a1.092,1.092,0,0,1-1.09-1.09h3.62a1.092,1.092,0,0,0,1.09-1.09Z" transform="translate(-262.478 -340.328)" fill="#fd4755" fill-rule="evenodd"/>
          <path id="Trazado_981257" data-name="Trazado 981257" d="M9.091,321.359h3.62a1.092,1.092,0,0,1,1.09,1.09v17.724a1.092,1.092,0,0,1-1.09,1.09H9.091A1.092,1.092,0,0,1,8,340.172V322.449A1.092,1.092,0,0,1,9.091,321.359Z" transform="translate(-8.001 -316.27)" fill="#6cf5c2" fill-rule="evenodd"/>
          <path id="Trazado_981258" data-name="Trazado 981258" d="M12.71,321.359a1.092,1.092,0,0,1,1.09,1.09v17.724a1.092,1.092,0,0,1-1.09,1.09H9.091A1.092,1.092,0,0,1,8,340.172h3.62a1.092,1.092,0,0,0,1.09-1.09Z" transform="translate(-8.001 -316.27)" fill="#00e499" fill-rule="evenodd"/>
          <path id="Trazado_981259" data-name="Trazado 981259" d="M101.517,274.655h3.62a1.092,1.092,0,0,1,1.09,1.09v22.813a1.092,1.092,0,0,1-1.09,1.09h-3.62a1.092,1.092,0,0,1-1.09-1.09V275.745A1.092,1.092,0,0,1,101.517,274.655Z" transform="translate(-90.356 -274.655)" fill="#8ac9fe" fill-rule="evenodd"/>
          <path id="Trazado_981260" data-name="Trazado 981260" d="M105.136,274.655a1.092,1.092,0,0,1,1.09,1.09v22.813a1.092,1.092,0,0,1-1.09,1.09h-3.62a1.092,1.092,0,0,1-1.09-1.09h3.62a1.092,1.092,0,0,0,1.09-1.09Z" transform="translate(-90.356 -274.655)" fill="#60b7ff" fill-rule="evenodd"/>
        </g>
        <g id="Grupo_1144454" data-name="Grupo 1144454" transform="translate(22.135 20.994)">
          <path id="Trazado_981261" data-name="Trazado 981261" d="M375.128,354.859a11.289,11.289,0,0,1-1.9,2.1l5.18,5.077L380.374,360Z" transform="translate(-350.839 -333.338)" fill="#a79ba7" fill-rule="evenodd"/>
          <path id="Trazado_981262" data-name="Trazado 981262" d="M386.414,354.538a1.3,1.3,0,0,1-.564.756L391,360.405l.63-.69Z" transform="translate(-362.09 -333.052)" fill="#837683" fill-rule="evenodd"/>
          <path id="Trazado_981263" data-name="Trazado 981263" d="M416.223,399.371l2.225-2.293a1.023,1.023,0,0,0-.022-1.443l-6.164-5.981a1.023,1.023,0,0,0-1.443.022l-2.225,2.293a1.023,1.023,0,0,0,.022,1.443l6.164,5.981A1.023,1.023,0,0,0,416.223,399.371Z" transform="translate(-382.101 -364.086)" fill="#f1ba84" fill-rule="evenodd"/>
          <path id="Trazado_981264" data-name="Trazado 981264" d="M434.154,389.654l6.164,5.981a1.023,1.023,0,0,1,.022,1.443l-2.225,2.293a1.014,1.014,0,0,1-.276.2,1.024,1.024,0,0,0,1.188-.2l2.225-2.293a1.023,1.023,0,0,0-.022-1.443l-6.164-5.981a1.024,1.024,0,0,0-1.166-.18A1.006,1.006,0,0,1,434.154,389.654Z" transform="translate(-404.903 -364.086)" fill="#e3a76f" fill-rule="evenodd"/>
          <circle id="Elipse_11856" data-name="Elipse 11856" cx="11.224" cy="11.224" r="11.224" transform="translate(0 15.871) rotate(-45)" fill="#8ac9fe"/>
          <path id="Trazado_981265" data-name="Trazado 981265" d="M309.06,200a11.224,11.224,0,1,1,0,22.448q-.274,0-.545-.013a11.224,11.224,0,0,0,0-22.421C308.7,200.006,308.877,200,309.06,200Z" transform="translate(-293.182 -195.354)" fill="#60b7ff" fill-rule="evenodd"/>
          <circle id="Elipse_11857" data-name="Elipse 11857" cx="8.06" cy="8.06" r="8.06" transform="translate(4.475 15.871) rotate(-45)" fill="#eceff1"/>
          <path id="Trazado_981266" data-name="Trazado 981266" d="M247.612,229.042c.183,0,.365.007.545.019a8.059,8.059,0,0,0,0,16.082c-.18.012-.362.019-.545.019a8.06,8.06,0,0,1,0-16.119Z" transform="translate(-231.734 -221.231)" fill="#d1d1d6" fill-rule="evenodd"/>
        </g>
      </g>
      <path id="Trazado_981267" data-name="Trazado 981267" d="M15.872,54.056H11.817V30.808h4.056Zm.872-24.992h-5.8a.871.871,0,0,0-.872.871V54.927a.871.871,0,0,0,.872.872h5.8a.872.872,0,0,0,.872-.872V29.935A.872.872,0,0,0,16.745,29.064Zm17.419-3.227a7.188,7.188,0,1,1-7.187,7.188,7.2,7.2,0,0,1,7.187-7.188Zm0,16.119a8.931,8.931,0,1,0-8.931-8.931A8.941,8.941,0,0,0,34.164,41.956Zm19.845,7.583-2.226,2.294a.153.153,0,0,1-.21,0L45.41,45.855a.143.143,0,0,1-.044-.1.139.139,0,0,1,.041-.105l2.225-2.294a.148.148,0,0,1,.1-.044h0a.145.145,0,0,1,.1.041l6.164,5.981A.154.154,0,0,1,54.009,49.539ZM36.922,54.056H32.866v-9a12.135,12.135,0,0,0,4.056-.247v9.252Zm-10.525,0H22.341V38.839h1.22A12.175,12.175,0,0,0,26.4,42.289Zm7.767-31.383A10.352,10.352,0,1,0,44.517,33.025,10.364,10.364,0,0,0,34.164,22.672Zm-3.922-2.914H33.29v1.2a12,12,0,0,0-3.048.621Zm15.4,23.135-.759.78-2.169-2.1q.384-.386.733-.8Zm9.573,5.185L49.055,42.1a1.894,1.894,0,0,0-2.1-.363l-2.473-2.4a12.075,12.075,0,0,0-2.3-15.355h4.3a.872.872,0,0,0,0-1.743H39.628a12,12,0,0,0-4.595-1.275V18.887a.872.872,0,0,0-.872-.872H29.37a.872.872,0,0,0-.871.872v3.454a12.094,12.094,0,0,0-5.726,14.754h-1.3a.871.871,0,0,0-.872.872V54.927a.872.872,0,0,0,.872.872h5.8a.871.871,0,0,0,.872-.872V43.511a12.009,12.009,0,0,0,2.982,1.221V54.927a.871.871,0,0,0,.872.872h5.8a.872.872,0,0,0,.872-.872V44.252A12.075,12.075,0,0,0,41.4,42.714l2.372,2.3a1.9,1.9,0,0,0,.427,2.089l6.163,5.981a1.895,1.895,0,0,0,2.676-.041l2.225-2.294a1.9,1.9,0,0,0-.04-2.675ZM5.8,54.056H1.745V35.9H5.8Zm.872-19.9H.874A.871.871,0,0,0,0,35.025v19.9a.871.871,0,0,0,.872.872h5.8a.871.871,0,0,0,.872-.872v-19.9a.871.871,0,0,0-.872-.872Zm30.512-14.7a.872.872,0,0,1,.871-.871H54.921a.871.871,0,1,1,0,1.743H38.056a.872.872,0,0,1-.871-.872Zm-6.943-8.7H33.29V13.8H30.242Zm-.872,4.791h4.792a.871.871,0,0,0,.872-.872V9.883a.872.872,0,0,0-.872-.872H29.37a.872.872,0,0,0-.871.872v4.791A.871.871,0,0,0,29.37,15.546ZM37.185,14.1a.872.872,0,0,1,.871-.872h8.433a.872.872,0,0,1,0,1.743H38.056a.872.872,0,0,1-.871-.872Zm0-3.65a.872.872,0,0,1,.871-.872H54.921a.872.872,0,1,1,0,1.743H38.056a.872.872,0,0,1-.871-.872Zm-6.943-8.7H33.29V4.8H30.242ZM29.37,6.543h4.792a.871.871,0,0,0,.872-.872V.88a.872.872,0,0,0-.872-.872H29.37A.872.872,0,0,0,28.5.88V5.671A.871.871,0,0,0,29.37,6.543ZM37.185,5.1a.872.872,0,0,1,.871-.872h8.433a.872.872,0,0,1,0,1.743H38.056a.872.872,0,0,1-.871-.872Zm0-3.65a.872.872,0,0,1,.871-.872H54.921a.872.872,0,1,1,0,1.743H38.056a.872.872,0,0,1-.871-.872ZM11.4,1.788V12.279a.871.871,0,0,0,.12.442l5.316,9.043A10.527,10.527,0,1,1,11.4,1.788Zm11.363,9.624a10.545,10.545,0,0,0-9.62-9.624v9.62Zm-4.425,9.466L13.8,13.151l8.967,0A10.53,10.53,0,0,1,18.339,20.878Zm-6.066,3.672a12.271,12.271,0,1,1,12.271-12.27A12.285,12.285,0,0,1,12.272,24.549Z" transform="translate(-31.485 -31.461)" fill-rule="evenodd"/>
    </g>
  </g>
</svg>
