<svg xmlns="http://www.w3.org/2000/svg" xmlns:xlink="http://www.w3.org/1999/xlink" width="108" height="108" viewBox="0 0 108 108">
  <defs>
    <filter id="Fondo" x="0" y="0" width="108" height="108" filterUnits="userSpaceOnUse">
      <feOffset dy="3" input="SourceAlpha"/>
      <feGaussianBlur stdDeviation="3" result="blur"/>
      <feFlood flood-opacity="0.161"/>
      <feComposite operator="in" in2="blur"/>
      <feComposite in="SourceGraphic"/>
    </filter>
  </defs>
  <g id="Grupo_1144250" data-name="Grupo 1144250" transform="translate(9.5 6)">
    <g transform="matrix(1, 0, 0, 1, -9.5, -6)" filter="url(#Fondo)">
      <g id="Fondo-2" data-name="Fondo" transform="translate(9 6)" fill="#fffbe7" stroke="#bca724" stroke-width="3">
        <circle cx="45" cy="45" r="45" stroke="none"/>
        <circle cx="45" cy="45" r="43.5" fill="none"/>
      </g>
    </g>
    <g id="transaccion" transform="translate(14.583 3.212)">
      <g id="Grupo_1144388" data-name="Grupo 1144388" transform="translate(0.877 15.451)">
        <g id="Grupo_1144380" data-name="Grupo 1144380">
          <g id="Grupo_1144365" data-name="Grupo 1144365" transform="translate(0 4.399)">
            <g id="Grupo_1144360" data-name="Grupo 1144360">
              <path id="Trazado_980938" data-name="Trazado 980938" d="M13.794,59.72V72.214L10.5,74.408a6.818,6.818,0,0,0-3,5.649v6.694a2.3,2.3,0,0,0,2.183,2.318,2.26,2.26,0,0,0,2.337-2.259v13.608a2.26,2.26,0,1,0,4.52,0V99.343a2.261,2.261,0,0,0,4.521,0V97.719a2.26,2.26,0,0,0,4.52,0v-4.31A2.256,2.256,0,0,0,26.9,95.461a2.28,2.28,0,0,0,2.39-.318,2.351,2.351,0,0,0,.381-.4,2.269,2.269,0,0,0,.431-1.334V78.185a4.853,4.853,0,0,0-1.633-3.631l-2.887-2.142V59.72Z" transform="translate(-7.502 -59.72)" fill="#eb9c8d"/>
            </g>
            <g id="Grupo_1144361" data-name="Grupo 1144361" transform="translate(14.877 25.136)">
              <path id="Trazado_980939" data-name="Trazado 980939" d="M138.009,287.666V274.8h-.017a1.87,1.87,0,0,0-1.87,1.87v10.993a2.257,2.257,0,0,1-1.316,2.053,2.26,2.26,0,0,0,3.2-2.053Z" transform="translate(-134.805 -274.803)" fill="#d78878"/>
            </g>
            <g id="Grupo_1144362" data-name="Grupo 1144362" transform="translate(5.845 28.16)">
              <path id="Trazado_980940" data-name="Trazado 980940" d="M60.711,313.221V300.682a1.87,1.87,0,0,0-1.87,1.87v10.669a2.257,2.257,0,0,1-1.325,2.057,2.259,2.259,0,0,0,3.195-2.057Z" transform="translate(-57.516 -300.682)" fill="#d78878"/>
            </g>
            <g id="Grupo_1144363" data-name="Grupo 1144363" transform="translate(10.359 26.805)">
              <path id="Trazado_980941" data-name="Trazado 980941" d="M99.341,301.906V289.088h-.014a1.87,1.87,0,0,0-1.87,1.87v10.948a2.258,2.258,0,0,1-1.319,2.054,2.26,2.26,0,0,0,3.2-2.054Z" transform="translate(-96.139 -289.088)" fill="#d78878"/>
            </g>
            <g id="Grupo_1144364" data-name="Grupo 1144364" transform="translate(15.743 0)">
              <path id="Trazado_980942" data-name="Trazado 980942" d="M149.067,93.408V78.185a4.854,4.854,0,0,0-1.633-3.631l-2.887-2.142V59.72h-2.338V72.636a2.267,2.267,0,0,0,.919,1.824l1.968,1.46a4.853,4.853,0,0,1,1.634,3.632V93.408a2.886,2.886,0,0,1-.312,1.509,1.463,1.463,0,0,1-.554.544,1.991,1.991,0,0,0,.29.111,2.422,2.422,0,0,0,.652.1,2.252,2.252,0,0,0,1.6-.662,2.285,2.285,0,0,0,.662-1.6Z" transform="translate(-142.209 -59.72)" fill="#d78878"/>
            </g>
          </g>
          <g id="Grupo_1144368" data-name="Grupo 1144368" transform="translate(5.013)">
            <g id="Grupo_1144366" data-name="Grupo 1144366" transform="translate(0 0)">
              <path id="Trazado_980943" data-name="Trazado 980943" d="M64.2,32.757H50.977a.583.583,0,0,1-.583-.583V22.658a.583.583,0,0,1,.583-.583H64.2a.583.583,0,0,1,.583.583v9.516A.583.583,0,0,1,64.2,32.757Z" transform="translate(-50.394 -22.075)" fill="#7acaa6"/>
            </g>
            <g id="Grupo_1144367" data-name="Grupo 1144367" transform="translate(11.175)">
              <path id="Trazado_980944" data-name="Trazado 980944" d="M149.227,22.658v9.517a.583.583,0,0,1-.583.583h-2.627a.583.583,0,0,0,.583-.583V22.658a.583.583,0,0,0-.583-.583h2.627A.583.583,0,0,1,149.227,22.658Z" transform="translate(-146.018 -22.075)" fill="#57be92"/>
            </g>
          </g>
          <g id="Grupo_1144379" data-name="Grupo 1144379" transform="translate(35.481 7.32)">
            <g id="Grupo_1144376" data-name="Grupo 1144376">
              <g id="Grupo_1144375" data-name="Grupo 1144375">
                <g id="Grupo_1144369" data-name="Grupo 1144369">
                  <path id="Trazado_980945" data-name="Trazado 980945" d="M327.413,127.674V115.18l3.293-2.194a6.818,6.818,0,0,0,3-5.649v-6.694a2.3,2.3,0,0,0-2.183-2.318,2.26,2.26,0,0,0-2.337,2.259V86.975a2.26,2.26,0,0,0-4.52,0v1.076a2.261,2.261,0,0,0-4.521,0v1.624a2.26,2.26,0,0,0-4.52,0v4.31a2.256,2.256,0,0,0-1.318-2.053,2.28,2.28,0,0,0-2.39.318,2.352,2.352,0,0,0-.381.4,2.269,2.269,0,0,0-.431,1.334v15.224a4.854,4.854,0,0,0,1.633,3.631l2.887,2.142v12.692h11.788Z" transform="translate(-311.105 -84.715)" fill="#fed2a4"/>
                </g>
                <g id="Grupo_1144370" data-name="Grupo 1144370" transform="translate(14.175 13.608)">
                  <path id="Trazado_980946" data-name="Trazado 980946" d="M440.822,203.474v6.694a6.818,6.818,0,0,1-3,5.649l-3.293,2.194v12.494H432.4V217.012a1.6,1.6,0,0,1,.711-1.327l2.748-1.72a5.563,5.563,0,0,0,2.549-5.138v-5.351c0-.905-.068-1.713-.832-2.09a2.238,2.238,0,0,1,1.068-.228A2.3,2.3,0,0,1,440.822,203.474Z" transform="translate(-432.396 -201.154)" fill="#ffbd86"/>
                </g>
                <g id="Grupo_1144371" data-name="Grupo 1144371" transform="translate(5.836 2.7)">
                  <path id="Trazado_980947" data-name="Trazado 980947" d="M364.249,110.077v11.194h-.017a1.87,1.87,0,0,1-1.87-1.87v-9.324a2.258,2.258,0,0,0-1.316-2.053,2.26,2.26,0,0,1,3.2,2.053Z" transform="translate(-361.045 -107.817)" fill="#ffbd86"/>
                </g>
                <g id="Grupo_1144372" data-name="Grupo 1144372" transform="translate(14.886 0)">
                  <path id="Trazado_980948" data-name="Trazado 980948" d="M441.68,86.975v18.034a1.87,1.87,0,0,1-1.87-1.87V86.975a2.257,2.257,0,0,0-1.325-2.057,2.259,2.259,0,0,1,3.195,2.057Z" transform="translate(-438.485 -84.715)" fill="#ffbd86"/>
                </g>
                <g id="Grupo_1144373" data-name="Grupo 1144373" transform="translate(10.358 1.076)">
                  <path id="Trazado_980949" data-name="Trazado 980949" d="M402.941,96.18v11.5h-.014a1.87,1.87,0,0,1-1.87-1.87V96.18a2.258,2.258,0,0,0-1.319-2.054,2.26,2.26,0,0,1,3.2,2.054Z" transform="translate(-399.739 -93.92)" fill="#ffbd86"/>
                </g>
                <g id="Grupo_1144374" data-name="Grupo 1144374" transform="translate(1.318 7.011)">
                  <path id="Trazado_980950" data-name="Trazado 980950" d="M325.584,155.289A1.886,1.886,0,0,1,323.7,153.4v-6.44a2.257,2.257,0,0,0-1.316-2.053,1.994,1.994,0,0,1,.29-.111,2.422,2.422,0,0,1,.652-.1,2.252,2.252,0,0,1,1.6.662,2.286,2.286,0,0,1,.662,1.6Z" transform="translate(-322.382 -144.704)" fill="#ffbd86"/>
                </g>
              </g>
            </g>
            <g id="Grupo_1144377" data-name="Grupo 1144377" transform="translate(3.275 36.673)">
              <path id="Trazado_980951" data-name="Trazado 980951" d="M352.933,409.2H339.714a.583.583,0,0,1-.583-.583V399.1a.583.583,0,0,1,.583-.583h13.219a.583.583,0,0,1,.583.583v9.516A.583.583,0,0,1,352.933,409.2Z" transform="translate(-339.131 -398.518)" fill="#528fd8"/>
            </g>
            <g id="Grupo_1144378" data-name="Grupo 1144378" transform="translate(14.669 36.673)">
              <path id="Trazado_980952" data-name="Trazado 980952" d="M439.62,399.1v9.517a.583.583,0,0,1-.583.583H436.63a.583.583,0,0,0,.583-.583V399.1a.583.583,0,0,0-.583-.583h2.408A.583.583,0,0,1,439.62,399.1Z" transform="translate(-436.63 -398.518)" fill="#0573ce"/>
            </g>
          </g>
        </g>
        <g id="Grupo_1144387" data-name="Grupo 1144387" transform="translate(9.04 17.239)">
          <g id="Grupo_1144381" data-name="Grupo 1144381" transform="translate(0 0)">
            <path id="Trazado_980953" data-name="Trazado 980953" d="M123.672,189.786H86.045a1.187,1.187,0,0,1-1.187-1.187V170.777a1.187,1.187,0,0,1,1.187-1.187h37.627a1.187,1.187,0,0,1,1.187,1.187V188.6A1.187,1.187,0,0,1,123.672,189.786Z" transform="translate(-84.858 -169.59)" fill="#7acaa6"/>
          </g>
          <g id="Grupo_1144382" data-name="Grupo 1144382" transform="translate(36.455)">
            <path id="Trazado_980954" data-name="Trazado 980954" d="M400.347,170.776V188.6a1.188,1.188,0,0,1-1.188,1.188H396.8a1.188,1.188,0,0,0,1.188-1.188V170.776a1.188,1.188,0,0,0-1.188-1.188h2.358A1.187,1.187,0,0,1,400.347,170.776Z" transform="translate(-396.801 -169.588)" fill="#57be92"/>
          </g>
          <g id="Grupo_1144383" data-name="Grupo 1144383" transform="translate(3.688 3.584)">
            <path id="Trazado_980955" data-name="Trazado 980955" d="M148.439,213.287H117.025a.605.605,0,0,1-.605-.605V200.863a.605.605,0,0,1,.605-.605h31.413a.605.605,0,0,1,.605.605v11.818A.605.605,0,0,1,148.439,213.287Z" transform="translate(-116.42 -200.258)" fill="#d7f8c4"/>
          </g>
          <g id="Grupo_1144384" data-name="Grupo 1144384" transform="translate(33.379 3.585)">
            <path id="Trazado_980956" data-name="Trazado 980956" d="M373.414,200.865v11.819a.6.6,0,0,1-.6.6h-2.328a.6.6,0,0,0,.606-.6V200.865a.6.6,0,0,0-.606-.6h2.328A.6.6,0,0,1,373.414,200.865Z" transform="translate(-370.482 -200.261)" fill="#bbf49b"/>
          </g>
          <g id="Grupo_1144385" data-name="Grupo 1144385" transform="translate(12.766 2.864)">
            <circle id="Elipse_11832" data-name="Elipse 11832" cx="7.235" cy="7.235" r="7.235" fill="#b9eacf"/>
          </g>
          <g id="Grupo_1144386" data-name="Grupo 1144386" transform="translate(16.348 3.129)">
            <path id="Trazado_980957" data-name="Trazado 980957" d="M235.631,203.334a7.236,7.236,0,0,1-10.888,6.246,7.209,7.209,0,0,0,1.957.268c3.995,0,6.475-3.458,6.475-7.454,0-2.665-.682-4.773-2.828-6.029A7.238,7.238,0,0,1,235.631,203.334Z" transform="translate(-224.743 -196.365)" fill="#91deb6"/>
          </g>
        </g>
      </g>
      <g id="Grupo_1144389" data-name="Grupo 1144389" transform="translate(0 14.574)">
        <circle id="Elipse_11833" data-name="Elipse 11833" cx="0.94" cy="0.94" r="0.94" transform="matrix(0.987, -0.16, 0.16, 0.987, 17.048, 27.437)"/>
        <circle id="Elipse_11834" data-name="Elipse 11834" cx="0.94" cy="0.94" r="0.94" transform="translate(40.761 27.274)"/>
        <path id="Trazado_980958" data-name="Trazado 980958" d="M234.419,220.121a3.055,3.055,0,0,0,1.058.393v.276a.877.877,0,1,0,1.753,0V220.4a3.061,3.061,0,0,0,1.491-1.128,2.426,2.426,0,0,0-.1-2.83,3.257,3.257,0,0,0-1.728-1.074,2.994,2.994,0,0,1-.742-.321.59.59,0,0,1-.243-.4.39.39,0,0,1,.1-.314.8.8,0,0,1,1.105-.055.877.877,0,1,0,1.133-1.339,2.557,2.557,0,0,0-1.02-.524v-.346a.877.877,0,1,0-1.753,0v.513a2.458,2.458,0,0,0-.78.59,2.14,2.14,0,0,0-.531,1.663,2.338,2.338,0,0,0,.951,1.625,4.342,4.342,0,0,0,1.213.565,1.879,1.879,0,0,1,.879.451.7.7,0,0,1,.05.826,1.341,1.341,0,0,1-.91.506,1.633,1.633,0,0,1-1.051-.209.877.877,0,0,0-.878,1.518Z" transform="translate(-206.636 -188.217)"/>
        <path id="Trazado_980959" data-name="Trazado 980959" d="M108.918,188.794v11.818a1.484,1.484,0,0,0,1.482,1.482h12.371a8.081,8.081,0,0,0,6.671,0h12.371a1.484,1.484,0,0,0,1.482-1.482V188.794a1.484,1.484,0,0,0-1.482-1.482H129.442a8.081,8.081,0,0,0-6.671,0H110.4a1.484,1.484,0,0,0-1.482,1.482Zm32.624.272v11.275h-9.611a8.091,8.091,0,0,0,0-11.275h9.611Zm-15.435-.72a6.358,6.358,0,1,1-6.358,6.358A6.365,6.365,0,0,1,126.107,188.346Zm-15.435.72h9.611a8.091,8.091,0,0,0,0,11.275h-9.611Z" transform="translate(-96.189 -166.489)"/>
        <path id="Trazado_980960" data-name="Trazado 980960" d="M56.8,35.5a3.134,3.134,0,0,0-1.489.318V25.031A3.136,3.136,0,0,0,49.43,23.52a3.14,3.14,0,0,0-4.717,1.5A3.136,3.136,0,0,0,40,27.731v1.5l-.071-.034a3.137,3.137,0,0,0-.958-.269,3.031,3.031,0,0,0-.354-.02,3.116,3.116,0,0,0-2.218.919,3.161,3.161,0,0,0-.909,1.99H25.579a.877.877,0,1,0,0,1.753H48.731a.311.311,0,0,1,.31.31V51.7a.311.311,0,0,1-.31.31H11.1a.311.311,0,0,1-.31-.31V33.877a.311.311,0,0,1,.31-.31H21.486a.877.877,0,1,0,0-1.753H19.834V27a1.461,1.461,0,0,0,1.316-1.452V16.034a1.461,1.461,0,0,0-1.46-1.46H6.472a1.461,1.461,0,0,0-1.46,1.46V25.55A1.461,1.461,0,0,0,6.292,27v4.877L3.385,33.811A7.685,7.685,0,0,0,0,40.187v6.694a3.193,3.193,0,0,0,3.03,3.195,3.122,3.122,0,0,0,1.49-.318V60.549A3.136,3.136,0,0,0,10.4,62.06a3.14,3.14,0,0,0,4.717-1.5,3.136,3.136,0,0,0,4.713-2.711v-1.5l.071.034a3.134,3.134,0,0,0,4.439-2.623H40v4.821a1.461,1.461,0,0,0-1.245,1.442v9.516A1.461,1.461,0,0,0,40.215,71H53.434a1.461,1.461,0,0,0,1.46-1.46v-3.02a.877.877,0,1,0-1.753,0v2.726H40.509V60.32H53.141v2.144a.877.877,0,0,0,1.753,0V60.026a1.46,1.46,0,0,0-1.352-1.454V53.706l2.907-1.937a7.685,7.685,0,0,0,3.385-6.376V38.7A3.193,3.193,0,0,0,56.8,35.5Zm-19.55-3.691a1.393,1.393,0,0,1,.384-.75,1.464,1.464,0,0,1,1.556-.277,1.382,1.382,0,0,1,.785,1.027Zm7.266,0H41.754V27.731a1.383,1.383,0,1,1,2.766,0s0,0,0,.006ZM6.766,16.328H19.4v8.929H6.766ZM9.04,60.549a1.383,1.383,0,0,1-2.766,0V44.236a5.58,5.58,0,0,0,1.593-.567A5.184,5.184,0,0,0,9.04,42.8Zm0-26.672v4.834a4.191,4.191,0,0,1-1.949,3.381,3.755,3.755,0,0,1-1.676.481.877.877,0,0,0-.9.876v3.5a1.383,1.383,0,0,1-1.431,1.377,1.426,1.426,0,0,1-1.335-1.442V40.187a5.93,5.93,0,0,1,2.608-4.92l3.293-2.194a.877.877,0,0,0,.391-.73V27.01H18.081v4.8H11.1A2.066,2.066,0,0,0,9.04,33.877Zm4.116,26.574a1.384,1.384,0,0,1-2.362-.97V53.737a2.057,2.057,0,0,0,.31.026h2.457v5.71a1.374,1.374,0,0,1-.405.978Zm4.925-2.6a1.383,1.383,0,1,1-2.766,0s0,0,0,0V53.763h2.767ZM22.2,54.517a1.383,1.383,0,0,1-2.342-.753h2.727A1.393,1.393,0,0,1,22.2,54.517ZM50.8,25.031a1.383,1.383,0,0,1,2.766,0V41.345a5.58,5.58,0,0,0-1.593.567,5.184,5.184,0,0,0-1.175.871Zm-2.065,6.782H46.274V26.386s0-.279,0-.279a1.384,1.384,0,0,1,2.767-.007v5.739A2.061,2.061,0,0,0,48.731,31.813Zm9.351,13.58a5.93,5.93,0,0,1-2.608,4.92L52.18,52.507a.877.877,0,0,0-.391.73v5.331H41.754v-4.8h6.977A2.066,2.066,0,0,0,50.794,51.7V46.871a4.192,4.192,0,0,1,1.949-3.383,3.755,3.755,0,0,1,1.676-.481.877.877,0,0,0,.9-.876v-3.5a1.383,1.383,0,0,1,1.431-1.377A1.426,1.426,0,0,1,58.081,38.7Z" transform="translate(0 -14.574)"/>
      </g>
    </g>
  </g>
</svg>
