<svg xmlns="http://www.w3.org/2000/svg" xmlns:xlink="http://www.w3.org/1999/xlink" width="108" height="108" viewBox="0 0 108 108">
  <defs>
    <filter id="Fondo" x="0" y="0" width="108" height="108" filterUnits="userSpaceOnUse">
      <feOffset dy="3" input="SourceAlpha"/>
      <feGaussianBlur stdDeviation="3" result="blur"/>
      <feFlood flood-opacity="0.161"/>
      <feComposite operator="in" in2="blur"/>
      <feComposite in="SourceGraphic"/>
    </filter>
  </defs>
  <g id="Grupo_1144252" data-name="Grupo 1144252" transform="translate(9.5 6)">
    <g transform="matrix(1, 0, 0, 1, -9.5, -6)" filter="url(#Fondo)">
      <g id="Fondo-2" data-name="Fondo" transform="translate(9 6)" fill="#fffbe7" stroke="#bca724" stroke-width="3">
        <circle cx="45" cy="45" r="45" stroke="none"/>
        <circle cx="45" cy="45" r="43.5" fill="none"/>
      </g>
    </g>
    <g id="data-exchange_4995192" transform="translate(13.153 17.258)">
      <g id="Grupo_1144391" data-name="Grupo 1144391" transform="translate(3.778 0.843)">
        <path id="Trazado_980972" data-name="Trazado 980972" d="M68.121,9.749a2.245,2.245,0,0,0-2.237-2.237H41.654a2.243,2.243,0,0,0-2.237,2.237V29.071h28.7Z" transform="translate(-36.164 -7.512)" fill="#bed8fb" fill-rule="evenodd"/>
        <path id="Trazado_980973" data-name="Trazado 980973" d="M255.844,9.749a2.245,2.245,0,0,0-2.237-2.237h-2.724a2.245,2.245,0,0,1,2.237,2.237V28.527h2.724Z" transform="translate(-223.887 -7.512)" fill="#9dc6fb" fill-rule="evenodd"/>
        <path id="Trazado_980974" data-name="Trazado 980974" d="M245.628,278.873a2.243,2.243,0,0,0-2.238-2.237H219.161a2.245,2.245,0,0,0-2.237,2.237V298.2h28.7Z" transform="translate(-193.742 -246.42)" fill="#bed8fb" fill-rule="evenodd"/>
        <path id="Trazado_980975" data-name="Trazado 980975" d="M433.352,278.873a2.243,2.243,0,0,0-2.237-2.237H428.39a2.243,2.243,0,0,1,2.237,2.237v18.774h2.725Z" transform="translate(-381.466 -246.42)" fill="#9dc6fb" fill-rule="evenodd"/>
        <path id="Trazado_980976" data-name="Trazado 980976" d="M13.7,199.256H42.4A3.263,3.263,0,0,0,45.656,196v-.878a.443.443,0,0,0-.442-.439H10.889a.441.441,0,0,0-.442.439V196a3.263,3.263,0,0,0,3.253,3.253Z" transform="translate(-10.447 -173.671)" fill="#365e7d" fill-rule="evenodd"/>
        <path id="Trazado_980977" data-name="Trazado 980977" d="M191.207,468.355h28.7a3.263,3.263,0,0,0,3.252-3.253v-.879a.443.443,0,0,0-.442-.442H188.4a.445.445,0,0,0-.442.442v.879A3.262,3.262,0,0,0,191.207,468.355Z" transform="translate(-168.025 -412.555)" fill="#365e7d" fill-rule="evenodd"/>
        <path id="Trazado_980978" data-name="Trazado 980978" d="M448.318,468.355h2.725a3.263,3.263,0,0,0,3.252-3.253v-.879a.443.443,0,0,0-.442-.442h-2.724a.443.443,0,0,1,.442.442v.879A3.263,3.263,0,0,1,448.318,468.355Z" transform="translate(-399.156 -412.555)" fill="#2b4d66" fill-rule="evenodd"/>
        <path id="Trazado_980979" data-name="Trazado 980979" d="M270.81,199.256h2.724A3.263,3.263,0,0,0,276.787,196v-.878a.443.443,0,0,0-.442-.439H273.62a.443.443,0,0,1,.442.439V196A3.263,3.263,0,0,1,270.81,199.256Z" transform="translate(-241.578 -173.671)" fill="#2b4d66" fill-rule="evenodd"/>
        <g id="Grupo_1144390" data-name="Grupo 1144390" transform="translate(7.348 4.096)">
          <path id="Trazado_980980" data-name="Trazado 980980" d="M76.77,43.995h3a.876.876,0,0,1,.872.872v3a.873.873,0,0,1-.872.872h-3a.875.875,0,0,1-.872-.872v-3A.878.878,0,0,1,76.77,43.995Z" transform="translate(-75.898 -43.995)" fill="#fc7070" fill-rule="evenodd"/>
          <path id="Trazado_980981" data-name="Trazado 980981" d="M76.77,115.343h3a.876.876,0,0,1,.872.872v3a.873.873,0,0,1-.872.872h-3a.875.875,0,0,1-.872-.872v-3A.878.878,0,0,1,76.77,115.343Z" transform="translate(-75.898 -107.332)" fill="#fc7070" fill-rule="evenodd"/>
        </g>
      </g>
      <path id="Trazado_980982" data-name="Trazado 980982" d="M36.574,9.449a.842.842,0,0,1-1.684,0V3.081a1.4,1.4,0,0,0-1.394-1.4H9.267a1.4,1.4,0,0,0-1.4,1.4V21.015h27.02V13.262a.842.842,0,0,1,1.684,0v7.753h1.97A1.287,1.287,0,0,1,39.827,22.3v.878a4.1,4.1,0,0,1-4.093,4.093H7.03a4.1,4.1,0,0,1-4.1-4.093V22.3A1.29,1.29,0,0,1,4.22,21.015H6.187V3.081A3.086,3.086,0,0,1,9.267,0H33.5a3.086,3.086,0,0,1,3.078,3.081ZM30.5,35.677a.842.842,0,1,1,0-1.683h4.723a.842.842,0,0,1,0,1.683Zm0,3.269a.842.842,0,1,1,0-1.684h4.723a.842.842,0,0,1,0,1.684ZM37.93,45.06a.842.842,0,1,1,1.684,0v1.763a.842.842,0,1,1-1.684,0Zm13.077-6a.842.842,0,0,1,1.683,0v7.759a.842.842,0,1,1-1.683,0Zm-3.269,2.18a.842.842,0,0,1,1.684,0v5.579a.842.842,0,1,1-1.684,0Zm-3.272,3.269a.843.843,0,0,1,1.687,0v2.31a.843.843,0,0,1-1.687,0ZM41.2,42.335a.842.842,0,1,1,1.684,0v4.488a.842.842,0,1,1-1.684,0ZM20.273,14.611a.842.842,0,1,1,0-1.684H31.329a.842.842,0,1,1,0,1.684Zm0,3.106a.842.842,0,1,1,0-1.683h7.788a.842.842,0,0,1,0,1.683Zm0-11.117a.842.842,0,1,1,0-1.684H31.329a.842.842,0,1,1,0,1.684Zm0,3.106a.842.842,0,1,1,0-1.684h7.788a.842.842,0,0,1,0,1.684Zm-9.147,2.4h4.742a.842.842,0,0,1,.843.84v4.742a.845.845,0,0,1-.843.843H11.126a.842.842,0,0,1-.84-.843V12.95A.839.839,0,0,1,11.126,12.11Zm3.9,1.683H11.969v3.055h3.055ZM11.126,4.1h4.742a.842.842,0,0,1,.843.84V9.682a.845.845,0,0,1-.843.843H11.126a.842.842,0,0,1-.84-.843V4.94A.839.839,0,0,1,11.126,4.1Zm3.9,1.684H11.969V8.838h3.055ZM22.6,40.722a.843.843,0,1,1,0,1.687H16.88A4.124,4.124,0,0,1,12.768,38.3V32.819L11.721,33.87a.843.843,0,1,1-1.193-1.19l2.486-2.486a.841.841,0,0,1,1.193,0l2.486,2.486a.842.842,0,1,1-1.19,1.19l-1.05-1.051V38.3a2.434,2.434,0,0,0,2.428,2.425ZM40.094,12.193a.842.842,0,1,1,0-1.684h5.719a4.118,4.118,0,0,1,4.112,4.109V24.665l1.047-1.047a.842.842,0,0,1,1.19,1.19l-2.486,2.486a.843.843,0,0,1-1.19,0L46,24.809a.842.842,0,0,1,1.19-1.19l1.05,1.047V14.618a2.439,2.439,0,0,0-2.428-2.425ZM26.96,55.8h28.7a2.423,2.423,0,0,0,2.412-2.409v-.477H24.55v.477A2.418,2.418,0,0,0,26.96,55.8Zm28.7,1.684H26.96a4.1,4.1,0,0,1-4.093-4.093v-.879a1.289,1.289,0,0,1,1.283-1.283h1.967V43.506a.843.843,0,1,1,1.687,0V51.23h27.02V33.3a1.4,1.4,0,0,0-1.4-1.4H29.2A1.4,1.4,0,0,0,27.8,33.3v6.4a.843.843,0,0,1-1.687,0V33.3A3.092,3.092,0,0,1,29.2,30.216H53.426A3.086,3.086,0,0,1,56.507,33.3V51.23h1.967a1.29,1.29,0,0,1,1.286,1.283v.879a4.1,4.1,0,0,1-4.1,4.093ZM4.618,22.7v.477A2.418,2.418,0,0,0,7.03,25.585h28.7a2.412,2.412,0,0,0,2.409-2.409V22.7Z" transform="translate(0 0)"/>
    </g>
  </g>
</svg>
