<svg xmlns="http://www.w3.org/2000/svg" xmlns:xlink="http://www.w3.org/1999/xlink" width="108" height="108" viewBox="0 0 108 108">
  <defs>
    <filter id="Fondo" x="0" y="0" width="108" height="108" filterUnits="userSpaceOnUse">
      <feOffset dy="3" input="SourceAlpha"/>
      <feGaussianBlur stdDeviation="3" result="blur"/>
      <feFlood flood-opacity="0.161"/>
      <feComposite operator="in" in2="blur"/>
      <feComposite in="SourceGraphic"/>
    </filter>
  </defs>
  <g id="Grupo_1144405" data-name="Grupo 1144405" transform="translate(-274 -1157)">
    <g id="Grupo_1144268" data-name="Grupo 1144268" transform="translate(283.5 1163)">
      <g transform="matrix(1, 0, 0, 1, -9.5, -6)" filter="url(#Fondo)">
        <g id="Fondo-2" data-name="Fondo" transform="translate(9 6)" fill="#e3ffe3" stroke="#098009" stroke-width="3">
          <circle cx="45" cy="45" r="45" stroke="none"/>
          <circle cx="45" cy="45" r="43.5" fill="none"/>
        </g>
      </g>
    </g>
    <g id="objetivo_3_" data-name="objetivo (3)" transform="translate(-21.188 1114.312)">
      <g id="Icon" transform="translate(323 67)">
        <g id="Grupo_1144398" data-name="Grupo 1144398" transform="translate(4.774 4.774)">
          <circle id="Elipse_11835" data-name="Elipse 11835" cx="22.915" cy="22.915" r="22.915" fill="#ff6c5c"/>
        </g>
        <g id="Grupo_1144399" data-name="Grupo 1144399" transform="translate(8.593 8.593)">
          <circle id="Elipse_11836" data-name="Elipse 11836" cx="19.096" cy="19.096" r="19.096" fill="#e0e0e0"/>
        </g>
        <g id="Grupo_1144400" data-name="Grupo 1144400" transform="translate(12.411 12.412)">
          <circle id="Elipse_11837" data-name="Elipse 11837" cx="15.276" cy="15.276" r="15.276" fill="#ff6c5c"/>
        </g>
        <g id="Grupo_1144401" data-name="Grupo 1144401" transform="translate(16.231 16.231)">
          <circle id="Elipse_11838" data-name="Elipse 11838" cx="11.457" cy="11.457" r="11.457" transform="translate(0 0)" fill="#e0e0e0"/>
        </g>
        <circle id="Elipse_11839" data-name="Elipse 11839" cx="7.638" cy="7.638" r="7.638" transform="translate(20.05 20.05)" fill="#ff6c5c"/>
        <path id="Trazado_981003" data-name="Trazado 981003" d="M368,119.638a1.91,1.91,0,0,0,.56,1.35l1.91,1.91a1.909,1.909,0,0,0,2.7,0l5.729-5.729a1.909,1.909,0,0,0,0-2.7l-1.91-1.91a1.91,1.91,0,0,0-1.35-.559H369.91a1.909,1.909,0,0,0-1.91,1.91Z" transform="translate(-325.035 -69.035)" fill="#ffce4b" fill-rule="evenodd"/>
        <path id="Trazado_981004" data-name="Trazado 981004" d="M369.1,111.186h.791L353.26,94.56a1.909,1.909,0,1,0-2.7,2.7l16.626,16.626V113.1A1.909,1.909,0,0,1,369.1,111.186Z" transform="translate(-324.221 -68.221)" fill="#e0e0e0" fill-rule="evenodd"/>
        <path id="Trazado_981005" data-name="Trazado 981005" d="M364.559,71.26l11.457,11.457a1.909,1.909,0,0,0,2.7-2.7L367.26,68.56a1.909,1.909,0,1,0-2.7,2.7Z" transform="translate(-324.854 -67.045)" fill="#ff6c5c" fill-rule="evenodd"/>
        <path id="Trazado_981006" data-name="Trazado 981006" d="M357.961,89.158a2.7,2.7,0,0,0,3.821,0l1.727-1.727a10.528,10.528,0,0,1,4.965-2.788l7.248-1.758L364.251,71.414l-1.769,7.24a10.547,10.547,0,0,1-2.787,4.954l-1.735,1.735a2.7,2.7,0,0,0,0,3.813Z" transform="translate(-324.545 -67.2)" fill="#ffce4b" fill-rule="evenodd"/>
        <path id="Trazado_981007" data-name="Trazado 981007" d="M365.448,86.751a10.542,10.542,0,0,0-1.693,1.374l-1.167,1.167,3.816,3.82a1.909,1.909,0,0,0,2.7-2.7Z" transform="translate(-324.79 -67.893)" fill="#ffce4b" fill-rule="evenodd"/>
        <path id="Trazado_981008" data-name="Trazado 981008" d="M361.065,82.419a10.577,10.577,0,0,1-1.37,1.687l-1.735,1.735a2.7,2.7,0,0,0,0,3.813l0,0a2.7,2.7,0,0,0,3.821,0l1.727-1.727a10.53,10.53,0,0,1,1.692-1.373Z" transform="translate(-324.545 -67.697)" fill="#ff6c5c" fill-rule="evenodd"/>
        <path id="Trazado_981009" data-name="Trazado 981009" d="M339.276,111.819A3.819,3.819,0,0,0,335.457,108h-7.638A3.819,3.819,0,0,0,324,111.819v7.638a3.819,3.819,0,0,0,3.819,3.819h7.638a3.819,3.819,0,0,0,3.819-3.819Z" transform="translate(-323.045 -68.854)" fill="#ff926b" fill-rule="evenodd"/>
        <path id="Trazado_981010" data-name="Trazado 981010" d="M339.276,71.819A3.819,3.819,0,0,0,335.457,68h-7.638A3.819,3.819,0,0,0,324,71.819V83.276a3.819,3.819,0,0,0,3.819,3.819h7.638a3.819,3.819,0,0,0,3.819-3.819Z" transform="translate(-323.045 -67.045)" fill="#e0e0e0" fill-rule="evenodd"/>
        <path id="Trazado_981011" data-name="Trazado 981011" d="M376.63,72.539l1.91-1.91a.955.955,0,1,0-1.35-1.35l-1.91,1.91a.955.955,0,1,0,1.35,1.35Z" transform="translate(-325.352 -67.09)" fill-rule="evenodd"/>
        <path id="Trazado_981012" data-name="Trazado 981012" d="M374.91,69.864v-1.91a.955.955,0,0,0-1.91,0v1.91a.955.955,0,0,0,1.91,0Z" transform="translate(-325.261 -67)" fill-rule="evenodd"/>
        <path id="Trazado_981013" data-name="Trazado 981013" d="M377.955,74.91h1.91a.955.955,0,0,0,0-1.91h-1.91a.955.955,0,0,0,0,1.91Z" transform="translate(-325.442 -67.271)" fill-rule="evenodd"/>
        <path id="Trazado_981014" data-name="Trazado 981014" d="M344.433,82.828a14.333,14.333,0,0,1,12.53-.876.955.955,0,0,0,.718-1.77,16.247,16.247,0,0,0-14.2.993.955.955,0,0,0,.957,1.653Z" transform="translate(-323.904 -67.543)" fill-rule="evenodd"/>
        <path id="Trazado_981015" data-name="Trazado 981015" d="M327.955,84.91h7.638a.955.955,0,0,0,0-1.91h-7.638a.955.955,0,0,0,0,1.91Z" transform="translate(-323.181 -67.724)" fill-rule="evenodd"/>
        <g id="Grupo_1144402" data-name="Grupo 1144402" transform="translate(3.819 11.457)">
          <path id="Trazado_981016" data-name="Trazado 981016" d="M327.955,84.91h7.638a.955.955,0,0,0,0-1.91h-7.638a.955.955,0,0,0,0,1.91Z" transform="translate(-327 -83)" fill-rule="evenodd"/>
        </g>
        <g id="Grupo_1144403" data-name="Grupo 1144403" transform="translate(3.819 7.638)">
          <path id="Trazado_981017" data-name="Trazado 981017" d="M327.955,84.91h7.638a.955.955,0,0,0,0-1.91h-7.638a.955.955,0,0,0,0,1.91Z" transform="translate(-327 -83)" fill-rule="evenodd"/>
        </g>
        <g id="Grupo_1144404" data-name="Grupo 1144404" transform="translate(3.819 3.819)">
          <path id="Trazado_981018" data-name="Trazado 981018" d="M327.955,84.91h3.819a.955.955,0,0,0,0-1.91h-3.819a.955.955,0,0,0,0,1.91Z" transform="translate(-327 -83)" fill-rule="evenodd"/>
        </g>
        <circle id="Elipse_11840" data-name="Elipse 11840" cx="3.819" cy="3.819" r="3.819" transform="translate(4.774 42.965)" fill="#ffc29b"/>
        <path id="Trazado_981019" data-name="Trazado 981019" d="M369.78,109.01a23.868,23.868,0,0,0,2.336-24.842l1.834-.445a2.864,2.864,0,0,0,3.587-4.426L366.08,67.839a2.864,2.864,0,0,0-4.415,3.605l-.445,1.822a23.914,23.914,0,0,0-18.489-1.087.955.955,0,0,0,.638,1.8,22,22,0,0,1,17.386,1.19l-.468,1.914a20.053,20.053,0,0,0-20.1.525V71.774A4.774,4.774,0,0,0,335.412,67h-7.638A4.774,4.774,0,0,0,323,71.774V83.231a4.774,4.774,0,0,0,4.769,4.774,23.965,23.965,0,0,0,.411,14.641.955.955,0,0,0,1.8-.638,22.041,22.041,0,0,1-.215-14h2.016a20.072,20.072,0,0,0,1.828,17.186h-5.836A4.774,4.774,0,0,0,323,109.965V117.6a4.774,4.774,0,0,0,4.774,4.774h7.638a4.774,4.774,0,0,0,4.774-4.774v-1.477a23.881,23.881,0,0,0,22.438-.767.954.954,0,1,0-.957-1.652,21.966,21.966,0,0,1-21.481.267v-2.207a20.042,20.042,0,0,0,22.508-1.024l2.316,2.317V117.6a2.861,2.861,0,0,0,.839,2.025l1.91,1.91a2.863,2.863,0,0,0,4.05,0l5.729-5.729a2.863,2.863,0,0,0,0-4.05l-1.91-1.91a2.861,2.861,0,0,0-2.025-.839Zm-44.871,5.729V117.6a2.864,2.864,0,0,0,2.864,2.864h7.638a2.864,2.864,0,0,0,2.864-2.864v-7.638a2.864,2.864,0,0,0-2.864-2.864h-7.638a2.864,2.864,0,0,0-2.864,2.864v2.864h2.005a4.774,4.774,0,1,1,0,1.91Zm42.01,2.864v-5.729a.955.955,0,0,1,.955-.955H373.6a.952.952,0,0,1,.675.28l1.91,1.91a.954.954,0,0,1,0,1.35l-5.729,5.729a.954.954,0,0,1-1.35,0l-1.91-1.91A.952.952,0,0,1,366.92,117.6Zm-35.327-6.683a2.864,2.864,0,1,1-2.864,2.864A2.865,2.865,0,0,1,331.593,110.92Zm28.194-31.925a18.136,18.136,0,0,0-19.6.9v3.332a4.774,4.774,0,0,1-4.774,4.774H333.82a18.152,18.152,0,0,0,2.1,17.213,4.775,4.775,0,0,1,4.241,4.241,18.131,18.131,0,0,0,21.169-.08l-1.369-1.369a16.236,16.236,0,0,1-24.986-17.4.955.955,0,1,1,1.848.479,14.322,14.322,0,0,0,21.762,15.542l-1.382-1.383a12.412,12.412,0,1,1-.711-21.537l.982-.982A9.6,9.6,0,0,0,359.787,78.995Zm6.852,30.294L351.363,94.013a.955.955,0,0,0-1.35,1.35l15.275,15.276A2.88,2.88,0,0,1,366.64,109.289Zm3.571-24.659-3.056.742a9.6,9.6,0,0,0-1.937.7l2.775,2.776a2.864,2.864,0,1,1-4.053,4.048l-3.144-3.147a3.659,3.659,0,0,1-2.468.959H358.3a8.6,8.6,0,0,1,.14,7.687l1.416,1.416a10.453,10.453,0,0,0,1.332-5.12.955.955,0,0,1,1.91,0,12.344,12.344,0,0,1-1.848,6.514l1.383,1.382a14.235,14.235,0,0,0,2.264-6.1.955.955,0,0,1,1.894.237,16.141,16.141,0,0,1-2.784,7.243l1.369,1.369a18.05,18.05,0,0,0,3.451-10.64.955.955,0,0,1,1.91,0,19.955,19.955,0,0,1-3.995,12.005l1.363,1.362a21.957,21.957,0,0,0,2.1-23.426Zm-15.034.562a10.5,10.5,0,1,0,.631,18.667l-1.416-1.416a8.593,8.593,0,1,1,.278-15.37A3.65,3.65,0,0,1,355.177,85.192Zm1.808,11.742a6.677,6.677,0,1,0-4.051,4.051l-4.271-4.272a2.864,2.864,0,0,1,4.05-4.05Zm6.567-9.83a9.682,9.682,0,0,0-.913.8l-.492.493,3.141,3.145a.955.955,0,0,0,1.352-1.35Zm-4.728-3.02-1.735,1.735a1.743,1.743,0,0,0,0,2.463l0,0a1.747,1.747,0,0,0,2.471,0l1.727-1.727a11.492,11.492,0,0,1,.9-.812l-2.559-2.56A11.432,11.432,0,0,1,358.824,84.084ZM327.774,86.1h7.638a2.864,2.864,0,0,0,2.864-2.864V71.774a2.864,2.864,0,0,0-2.864-2.864h-7.638a2.864,2.864,0,0,0-2.864,2.864V83.231A2.864,2.864,0,0,0,327.774,86.1ZM363.8,84.655l-3.079-3.079a11.532,11.532,0,0,0,1.141-2.895l1.365-5.591,9.069,9.069-5.6,1.357A11.515,11.515,0,0,0,363.8,84.655Zm-.422-14.115a.955.955,0,1,1,1.35-1.35l11.457,11.457a.955.955,0,0,1-1.35,1.35Z" transform="translate(-323 -67)" fill-rule="evenodd"/>
        <path id="Trazado_981020" data-name="Trazado 981020" d="M336,116.91h3.819V115H336Z" transform="translate(-323.588 -69.171)" fill-rule="evenodd"/>
      </g>
    </g>
  </g>
</svg>
