<svg xmlns="http://www.w3.org/2000/svg" xmlns:xlink="http://www.w3.org/1999/xlink" width="108" height="108" viewBox="0 0 108 108">
  <defs>
    <filter id="Trazado_904820" x="0" y="0" width="108" height="108" filterUnits="userSpaceOnUse">
      <feOffset dy="3" input="SourceAlpha"/>
      <feGaussianBlur stdDeviation="3" result="blur"/>
      <feFlood flood-opacity="0.161"/>
      <feComposite operator="in" in2="blur"/>
      <feComposite in="SourceGraphic"/>
    </filter>
  </defs>
  <g id="Grupo_1144348" data-name="Grupo 1144348" transform="translate(-203 -1112)">
    <g id="Icono" transform="translate(-412.102 1118)">
      <g transform="matrix(1, 0, 0, 1, 615.1, -6)" filter="url(#Trazado_904820)">
        <g id="Trazado_904820-2" data-name="Trazado 904820" transform="translate(9 6)" fill="#ecf4fa">
          <path d="M 45 88.5 C 39.12687683105469 88.5 33.43022537231445 87.35007476806641 28.06830024719238 85.08217620849609 C 22.88852500915527 82.89131164550781 18.23629951477051 79.75458526611328 14.2408504486084 75.75914764404297 C 10.24541282653809 71.76370239257812 7.108687400817871 67.11147308349609 4.917825222015381 61.93170166015625 C 2.649924993515015 56.56977462768555 1.5 50.87312316894531 1.5 45 C 1.5 39.12687683105469 2.649924993515015 33.43022537231445 4.917825222015381 28.06830024719238 C 7.108687400817871 22.88852500915527 10.24541282653809 18.23629951477051 14.2408504486084 14.2408504486084 C 18.23629951477051 10.24541282653809 22.88852500915527 7.108687400817871 28.06830024719238 4.917825222015381 C 33.43022537231445 2.649924993515015 39.12687683105469 1.5 45 1.5 C 50.87312316894531 1.5 56.56977462768555 2.649924993515015 61.93170166015625 4.917825222015381 C 67.11147308349609 7.108687400817871 71.76370239257812 10.24541282653809 75.75914764404297 14.2408504486084 C 79.75458526611328 18.23629951477051 82.89131164550781 22.88852500915527 85.08217620849609 28.06830024719238 C 87.35007476806641 33.43022537231445 88.5 39.12687683105469 88.5 45 C 88.5 50.87312316894531 87.35007476806641 56.56977462768555 85.08217620849609 61.93170166015625 C 82.89131164550781 67.11147308349609 79.75458526611328 71.76370239257812 75.75914764404297 75.75914764404297 C 71.76370239257812 79.75458526611328 67.11147308349609 82.89131164550781 61.93170166015625 85.08217620849609 C 56.56977462768555 87.35007476806641 50.87312316894531 88.5 45 88.5 Z" stroke="none"/>
          <path d="M 45 3 C 39.32871246337891 3 33.82865524291992 4.110054016113281 28.65262985229492 6.299339294433594 C 23.65165710449219 8.414573669433594 19.15968322753906 11.44334411621094 15.301513671875 15.301513671875 C 11.44334411621094 19.15968322753906 8.414573669433594 23.65165710449219 6.299339294433594 28.65262985229492 C 4.110054016113281 33.82865524291992 3 39.32871246337891 3 45 C 3 50.67128753662109 4.110054016113281 56.17134475708008 6.299339294433594 61.34737396240234 C 8.414573669433594 66.34834289550781 11.44334411621094 70.84031677246094 15.301513671875 74.698486328125 C 19.15968322753906 78.55665588378906 23.65165710449219 81.58542633056641 28.65262985229492 83.70066070556641 C 33.82865524291992 85.88994598388672 39.32871246337891 87 45 87 C 50.67128753662109 87 56.17134475708008 85.88994598388672 61.34737396240234 83.70066070556641 C 66.34834289550781 81.58542633056641 70.84031677246094 78.55665588378906 74.698486328125 74.698486328125 C 78.55665588378906 70.84031677246094 81.58542633056641 66.34834289550781 83.70066070556641 61.34737396240234 C 85.88994598388672 56.17134475708008 87 50.67128753662109 87 45 C 87 39.32871246337891 85.88994598388672 33.82865524291992 83.70066070556641 28.65262985229492 C 81.58542633056641 23.65165710449219 78.55665588378906 19.15968322753906 74.698486328125 15.301513671875 C 70.84031677246094 11.44334411621094 66.34834289550781 8.414573669433594 61.34737396240234 6.299339294433594 C 56.17134475708008 4.110054016113281 50.67128753662109 3 45 3 M 45 0 C 69.85281372070312 0 90 20.14718627929688 90 45 C 90 69.85281372070312 69.85281372070312 90 45 90 C 20.14718627929688 90 0 69.85281372070312 0 45 C 0 20.14718627929688 20.14718627929688 0 45 0 Z" stroke="none" fill="#2a5673"/>
        </g>
      </g>
    </g>
    <g id="graph_6331020" transform="translate(225 1131)">
      <path id="Trazado_980912" data-name="Trazado 980912" d="M13,21V2H28l2,3H51V21Z" fill="#af2f73"/>
      <path id="Trazado_980913" data-name="Trazado 980913" d="M23.687,7H49V21H15V15.687A8.687,8.687,0,0,1,23.687,7Z" fill="#c13d88"/>
      <path id="Trazado_980914" data-name="Trazado 980914" d="M17,20V15l7-6H47V20Z" fill="#fff"/>
      <path id="Trazado_980915" data-name="Trazado 980915" d="M58,54V26a3,3,0,0,0-3-3H9a3,3,0,0,0-3,3V54Z" fill="#7288a0"/>
      <path id="Trazado_980916" data-name="Trazado 980916" d="M56,55H8V28a4,4,0,0,1,4-4H52a4,4,0,0,1,4,4Z" fill="#95afd1"/>
      <path id="Trazado_980917" data-name="Trazado 980917" d="M2,54H62a8,8,0,0,1-8,8H10A8,8,0,0,1,2,54Z" fill="#636363"/>
      <path id="Trazado_980918" data-name="Trazado 980918" d="M10,59H54a5,5,0,0,0,5-5H5A5,5,0,0,0,10,59Z" fill="#717272"/>
      <path id="Trazado_980919" data-name="Trazado 980919" d="M32,48H53l1-32H42l-2,3H10l1,29Z" fill="#ce4a95"/>
      <path id="Trazado_980920" data-name="Trazado 980920" d="M17,15h7V9Z" fill="#d7e0ef"/>
      <path id="Trazado_980921" data-name="Trazado 980921" d="M41,54l-.272,1.09A3.843,3.843,0,0,1,37,58H27a3.843,3.843,0,0,1-3.728-2.91L23,54Z" fill="#adadad"/>
      <path id="Trazado_980922" data-name="Trazado 980922" d="M41,21.5A3.37,3.37,0,0,1,38.2,23H14.138l.138,4.013A21.737,21.737,0,0,0,36,48H53l.875-28H43.8A3.37,3.37,0,0,0,41,21.5Z" fill="#db5dab"/>
      <g id="Grupo_1144347" data-name="Grupo 1144347">
        <path id="Trazado_980923" data-name="Trazado 980923" d="M18,36h4v8H18Z" fill="#edb23a"/>
        <path id="Trazado_980924" data-name="Trazado 980924" d="M26,32h4V44H26Z" fill="#edb23a"/>
        <path id="Trazado_980925" data-name="Trazado 980925" d="M34,28h4V44H34Z" fill="#edb23a"/>
        <path id="Trazado_980926" data-name="Trazado 980926" d="M42,24h4V44H42Z" fill="#edb23a"/>
      </g>
      <path id="Trazado_980927" data-name="Trazado 980927" d="M20,36h2v8H20Z" fill="#ffd98c"/>
      <path id="Trazado_980928" data-name="Trazado 980928" d="M28,32h2V44H28Z" fill="#ffd98c"/>
      <path id="Trazado_980929" data-name="Trazado 980929" d="M36,28h2V44H36Z" fill="#ffd98c"/>
      <path id="Trazado_980930" data-name="Trazado 980930" d="M44,24h2V44H44Z" fill="#ffd98c"/>
      <path id="Trazado_980931" data-name="Trazado 980931" d="M62,53H59V26a4,4,0,0,0-4-4h-.188L55,16.031A1,1,0,0,0,54,15H52V5a1,1,0,0,0-1-1H30.535l-1.7-2.555A1,1,0,0,0,28,1H13a1,1,0,0,0-1,1V18H10a1,1,0,0,0-1,1.034L9.1,22H9a4,4,0,0,0-4,4V53H2a1,1,0,0,0-1,1,9.01,9.01,0,0,0,9,9H54a9.01,9.01,0,0,0,9-9,1,1,0,0,0-1-1ZM14,3H27.465l1.7,2.555A1,1,0,0,0,30,6H50v9H48V9a1,1,0,0,0-1-1H24a.994.994,0,0,0-.65.241l-7,6A1,1,0,0,0,16,15v3H14Zm4,13h6a1,1,0,0,0,1-1V10H46v5H42a1,1,0,0,0-.832.445L39.465,18H18Zm1.7-2L23,11.174V14ZM40,20a1,1,0,0,0,.832-.445L42.535,17H52.969l-.938,30H11.966l-.931-27ZM7,26a2,2,0,0,1,2-2h.172L10,48.034A1,1,0,0,0,11,49H53a1,1,0,0,0,1-.969L54.75,24H55a2,2,0,0,1,2,2V53H7ZM39.706,55A2.835,2.835,0,0,1,37,57H27a2.835,2.835,0,0,1-2.706-2ZM54,61H10a7.011,7.011,0,0,1-6.929-6H22.22l.083.332A4.834,4.834,0,0,0,27,59H37a4.834,4.834,0,0,0,4.7-3.668L41.78,55H60.929A7.011,7.011,0,0,1,54,61Z"/>
      <path id="Trazado_980932" data-name="Trazado 980932" d="M18,45h4a1,1,0,0,0,1-1V36a1,1,0,0,0-1-1H18a1,1,0,0,0-1,1v8A1,1,0,0,0,18,45Zm1-8h2v6H19Z"/>
      <path id="Trazado_980933" data-name="Trazado 980933" d="M26,45h4a1,1,0,0,0,1-1V32a1,1,0,0,0-1-1H26a1,1,0,0,0-1,1V44A1,1,0,0,0,26,45Zm1-12h2V43H27Z"/>
      <path id="Trazado_980934" data-name="Trazado 980934" d="M34,45h4a1,1,0,0,0,1-1V28a1,1,0,0,0-1-1H34a1,1,0,0,0-1,1V44A1,1,0,0,0,34,45Zm1-16h2V43H35Z"/>
      <path id="Trazado_980935" data-name="Trazado 980935" d="M42,45h4a1,1,0,0,0,1-1V24a1,1,0,0,0-1-1H42a1,1,0,0,0-1,1V44A1,1,0,0,0,42,45Zm1-20h2V43H43Z"/>
    </g>
  </g>
</svg>
