<svg xmlns="http://www.w3.org/2000/svg" xmlns:xlink="http://www.w3.org/1999/xlink" width="108" height="108" viewBox="0 0 108 108">
  <defs>
    <filter id="Fondo" x="0" y="0" width="108" height="108" filterUnits="userSpaceOnUse">
      <feOffset dy="3" input="SourceAlpha"/>
      <feGaussianBlur stdDeviation="3" result="blur"/>
      <feFlood flood-opacity="0.161"/>
      <feComposite operator="in" in2="blur"/>
      <feComposite in="SourceGraphic"/>
    </filter>
  </defs>
  <g id="Grupo_1144395" data-name="Grupo 1144395" transform="translate(9.5 6)">
    <g transform="matrix(1, 0, 0, 1, -9.5, -6)" filter="url(#Fondo)">
      <g id="Fondo-2" data-name="Fondo" transform="translate(9 6)" fill="#e3ffe3" stroke="#098009" stroke-width="3">
        <circle cx="45" cy="45" r="45" stroke="none"/>
        <circle cx="45" cy="45" r="43.5" fill="none"/>
      </g>
    </g>
    <g id="integracion-de-datos" transform="translate(1.163 2.131)">
      <path id="Trazado_981021" data-name="Trazado 981021" d="M69.99,55.978v9.731a4.815,4.815,0,0,1-2.669,3.981,12.746,12.746,0,0,1-12.059,0,4.815,4.815,0,0,1-2.669-3.981V55.978a4.527,4.527,0,0,1,2.5-3.9,13.088,13.088,0,0,1,6.2-1.6A11.858,11.858,0,0,1,67.321,52a4.815,4.815,0,0,1,2.669,3.981ZM38.755,57.922a.632.632,0,0,1,.894.894l-1.395,1.395h10.7l-1.395-1.395a.632.632,0,0,1,.894-.894l2.469,2.469a.649.649,0,0,1,.059.066c.01.013.019.025.027.039h0c.009.013.017.026.024.04h0a.633.633,0,0,1,0,.615h0q-.011.02-.024.04h0c-.009.013-.018.026-.027.038a.639.639,0,0,1-.059.066l-2.469,2.469a.632.632,0,1,1-.894-.894l1.395-1.395h-10.7l1.395,1.395a.632.632,0,0,1-.894.894L36.287,61.3a.649.649,0,0,1-.059-.066c-.01-.013-.019-.025-.027-.039h0c-.009-.013-.017-.026-.024-.04h0a.633.633,0,0,1,0-.615h0c.008-.014.016-.027.024-.04h0c.009-.013.018-.026.027-.039a.637.637,0,0,1,.059-.066l2.469-2.469ZM31.684,28.579a12.1,12.1,0,0,1,1.424-3.433l-1.359-1.359a.63.63,0,0,1-.185-.447V21.817a.63.63,0,0,1,.191-.453l1.67-1.67a.63.63,0,0,1,.447-.185h1.523a.63.63,0,0,1,.453.191L37.2,21.053a12.1,12.1,0,0,1,3.433-1.424v-1.92a.63.63,0,0,1,.191-.453L41.9,16.185A.63.63,0,0,1,42.343,16h2.37a.63.63,0,0,1,.453.191l1.071,1.071a.63.63,0,0,1,.185.447v1.919a12.209,12.209,0,0,1,1.763.563,11.457,11.457,0,0,1,1.638.825l1.4-1.332a.628.628,0,0,1,.435-.174v0h1.523a.63.63,0,0,1,.453.191l1.67,1.67a.631.631,0,0,1,.183.5v1.468a.628.628,0,0,1-.184.445l0,0-1.359,1.359a12.1,12.1,0,0,1,1.427,3.445l1.972.036a.628.628,0,0,1,.435.184l0,0,1.031,1.031a.63.63,0,0,1,.185.447v2.37a.63.63,0,0,1-.191.453l-1.071,1.071a.63.63,0,0,1-.447.185h-1.92A12.1,12.1,0,0,1,53.947,37.8l1.359,1.359a.63.63,0,0,1,.185.447v1.523a.63.63,0,0,1-.191.453l-1.67,1.67a.63.63,0,0,1-.447.185H51.661a.63.63,0,0,1-.453-.191l-1.354-1.354a12.1,12.1,0,0,1-3.433,1.424v1.92a.63.63,0,0,1-.191.453L45.16,46.76a.63.63,0,0,1-.447.185h-2.37a.63.63,0,0,1-.453-.191l-1.071-1.071a.63.63,0,0,1-.185-.447v-1.92A12.1,12.1,0,0,1,37.2,41.891l-1.359,1.359a.63.63,0,0,1-.447.185H33.872a.63.63,0,0,1-.453-.191l-1.67-1.67a.63.63,0,0,1-.185-.447V39.605a.63.63,0,0,1,.191-.453L33.108,37.8a12.1,12.1,0,0,1-1.424-3.433h-1.92a.63.63,0,0,1-.453-.191L28.24,33.1a.63.63,0,0,1-.185-.447v-2.37a.63.63,0,0,1,.191-.453l1.071-1.071a.63.63,0,0,1,.447-.185h1.92ZM29.02,44.466h.621L26.8,47.309v-.621a.632.632,0,0,0-1.264,0v2.147a.629.629,0,0,0,.08.307h0c.008.014.016.027.024.04h0c.009.013.018.026.027.038a.631.631,0,0,0,.114.114l.038.027h0l.04.024h0a.63.63,0,0,0,.307.08h2.147a.632.632,0,0,0,0-1.264h-.621l2.844-2.844v.621a.632.632,0,0,0,1.264,0V43.833a.629.629,0,0,0-.08-.307h0q-.011-.02-.024-.04h0c-.009-.013-.018-.026-.027-.038a.631.631,0,0,0-.114-.114l-.038-.027h0l-.04-.024h0a.63.63,0,0,0-.307-.08H29.02a.632.632,0,0,0,0,1.264ZM58.186,43.2H56.039a.629.629,0,0,0-.307.08h0l-.04.024h0l-.038.027a.643.643,0,0,0-.114.114c-.01.013-.019.025-.027.039h0c-.009.013-.017.026-.024.04h0a.63.63,0,0,0-.08.307v2.147a.632.632,0,0,0,1.264,0v-.621L59.515,48.2h-.621a.632.632,0,1,0,0,1.264h2.147a.629.629,0,0,0,.307-.08h0l.04-.024h0l.038-.027a.643.643,0,0,0,.114-.114c.01-.013.019-.025.027-.039h0c.009-.013.017-.026.024-.04h0a.63.63,0,0,0,.08-.307V46.688a.632.632,0,0,0-1.264,0v.621l-2.844-2.844h.621a.632.632,0,1,0,0-1.264ZM49.833,55.139A1.865,1.865,0,0,0,48.6,53.387V50.016l2.183-1.26a.632.632,0,0,0,.369-.575V45.306a.632.632,0,1,0-1.264,0v2.513l-2.234,1.29a.629.629,0,0,0-.316.546h0v3.733a1.863,1.863,0,1,0,2.495,1.753Zm-4.443-1.931A1.862,1.862,0,1,1,42.9,51.456v-3.12a.632.632,0,1,1,1.264,0v3.12a1.865,1.865,0,0,1,1.231,1.753Zm-7.622,3.248a1.863,1.863,0,1,0,1.949-3.07V49.654h0a.629.629,0,0,0-.316-.546l-2.234-1.29V45.306a.632.632,0,1,0-1.264,0v2.875a.632.632,0,0,0,.369.575l2.183,1.26v3.371a1.863,1.863,0,0,0-.685,3.07ZM69.343,25.167A1.865,1.865,0,0,0,67.591,26.4H64.22l-1.26-2.183a.632.632,0,0,0-.575-.369H57.493a.632.632,0,0,0,0,1.264h4.529l1.29,2.234a.629.629,0,0,0,.546.316v0h3.733a1.863,1.863,0,1,0,1.753-2.495ZM67.413,29.61A1.862,1.862,0,1,1,65.66,32.1H60.391a.632.632,0,0,1,0-1.264H65.66a1.865,1.865,0,0,1,1.753-1.231Zm3.248,7.622a1.863,1.863,0,1,0-3.07-1.949H63.858v0a.629.629,0,0,0-.546.316l-1.29,2.234H57.493a.632.632,0,0,0,0,1.264h4.891a.632.632,0,0,0,.575-.369l1.26-2.183h3.371a1.863,1.863,0,0,0,3.07.685ZM16.546,25.713a1.863,1.863,0,1,0,3.07,1.949h3.733v0a.629.629,0,0,0,.546-.316l1.29-2.234h4.529a.632.632,0,1,0,0-1.264H24.821a.632.632,0,0,0-.575.369L22.986,26.4H19.615a1.863,1.863,0,0,0-3.07-.685Zm1.931,4.443a1.864,1.864,0,0,1,3.07.685h5.269a.632.632,0,1,1,0,1.264H21.546a1.863,1.863,0,1,1-3.07-1.949Zm-.614,7.622a1.865,1.865,0,0,0,1.753-1.231h3.371l1.26,2.183a.632.632,0,0,0,.575.369h4.891a.632.632,0,0,0,0-1.264H25.183L23.893,35.6a.629.629,0,0,0-.546-.316v0H19.615a1.863,1.863,0,1,0-1.753,2.495Zm16.751,18.2v9.731a4.815,4.815,0,0,1-2.669,3.981,11.858,11.858,0,0,1-6.03,1.516,11.858,11.858,0,0,1-6.03-1.516,4.815,4.815,0,0,1-2.669-3.981V55.961a4.531,4.531,0,0,1,2.5-3.884,13.088,13.088,0,0,1,6.2-1.6A11.858,11.858,0,0,1,31.945,52a4.815,4.815,0,0,1,2.669,3.981Z" fill-rule="evenodd"/>
      <path id="Trazado_981022" data-name="Trazado 981022" d="M136.9,35.176a10.871,10.871,0,0,0-1.594,3.858.632.632,0,0,1-.625.538h-2.165l-.706.706v1.847l.706.706h2.165a.632.632,0,0,1,.625.538,10.874,10.874,0,0,0,1.593,3.858.632.632,0,0,1-.05.838L135.318,49.6v1l1.305,1.305h1l1.532-1.532a.632.632,0,0,1,.838-.05,10.873,10.873,0,0,0,3.858,1.594.632.632,0,0,1,.538.625V54.7l.706.706h1.847l.706-.706V52.539a.632.632,0,0,1,.538-.625,10.874,10.874,0,0,0,3.858-1.594.632.632,0,0,1,.838.05l1.532,1.532h1l1.305-1.305v-1l-1.531-1.532a.632.632,0,0,1-.05-.838,10.876,10.876,0,0,0,1.594-3.858.632.632,0,0,1,.625-.538h2.165l.706-.706V40.279l-.668-.668-2.167-.04a.632.632,0,0,1-.655-.51,10.873,10.873,0,0,0-1.6-3.885.632.632,0,0,1,.05-.838l1.534-1.534V31.81L155.411,30.5H154.4L152.823,32a.631.631,0,0,1-.805.053,10.746,10.746,0,0,0-3.833-1.562.632.632,0,0,1-.538-.625V27.7l-.706-.706h-1.847l-.706.706v2.165a.632.632,0,0,1-.538.625,10.872,10.872,0,0,0-3.858,1.594.632.632,0,0,1-.838-.05L137.622,30.5h-1l-1.305,1.305v1l1.532,1.532a.632.632,0,0,1,.05.838ZM149.755,33.5a8.659,8.659,0,0,1,2.316,1.651,8.555,8.555,0,1,1-2.316-1.651Z" transform="translate(-102.489 -9.729)" fill="#204a5d" fill-rule="evenodd"/>
      <path id="Trazado_981023" data-name="Trazado 981023" d="M200.232,96.641a1.751,1.751,0,0,1-1.118,1.633v.693l1.022,1.022a.63.63,0,0,1,.191.453v1.112a7.245,7.245,0,0,0,1.705-.486V99.094a1.75,1.75,0,1,1,1.264,0v1.284a7.29,7.29,0,0,0,3.176-6.516h-2.578a1.75,1.75,0,1,1,0-1.264h2.383A7.305,7.305,0,0,0,203.3,88.31v2.039a.632.632,0,0,1-.632.632h-1.841a1.75,1.75,0,1,1,0-1.264h1.209v-2.1A7.307,7.307,0,0,0,192.1,92.6h2.376a1.75,1.75,0,1,1,0,1.264h-2.571a7.3,7.3,0,0,0,7.154,7.778V100.7l-1.028-1.028a.63.63,0,0,1-.185-.447v-.954a1.75,1.75,0,1,1,2.382-1.633Z" transform="translate(-155.663 -62.871)" fill="#258b9b" fill-rule="evenodd"/>
      <g id="Grupo_1144406" data-name="Grupo 1144406" transform="translate(17.264 26.431)">
        <path id="Trazado_981024" data-name="Trazado 981024" d="M245.739,167.06a.486.486,0,0,0-.688-.688A.486.486,0,0,0,245.739,167.06Z" transform="translate(-219.841 -159.378)" fill="#ef6262" fill-rule="evenodd"/>
        <path id="Trazado_981025" data-name="Trazado 981025" d="M251.9,112.354a.486.486,0,0,0-.688-.688A.486.486,0,0,0,251.9,112.354Z" transform="translate(-225.297 -110.964)" fill="#ef6262" fill-rule="evenodd"/>
        <path id="Trazado_981026" data-name="Trazado 981026" d="M282.107,174.191a.486.486,0,0,0-.688-.688A.486.486,0,0,0,282.107,174.191Z" transform="translate(-252.025 -165.688)" fill="#ef6262" fill-rule="evenodd"/>
        <path id="Trazado_981027" data-name="Trazado 981027" d="M224.885,136.614a.486.486,0,0,0,0,.972A.486.486,0,0,0,224.885,136.614Z" transform="translate(-201.7 -133.173)" fill="#ef6262" fill-rule="evenodd"/>
        <path id="Trazado_981028" data-name="Trazado 981028" d="M278.609,136.711a.486.486,0,1,0,.142.344.486.486,0,0,0-.142-.344Z" transform="translate(-248.93 -133.127)" fill="#ef6262" fill-rule="evenodd"/>
        <path id="Trazado_981029" data-name="Trazado 981029" d="M289.789,352.121a.6.6,0,1,0-.846,0A.6.6,0,0,0,289.789,352.121Z" transform="translate(-258.659 -322.989)" fill="#ef6262" fill-rule="evenodd"/>
        <path id="Trazado_981030" data-name="Trazado 981030" d="M251.16,335.335a.6.6,0,1,0-.846,0,.6.6,0,0,0,.846,0Z" transform="translate(-224.473 -308.134)" fill="#ef6262" fill-rule="evenodd"/>
        <path id="Trazado_981031" data-name="Trazado 981031" d="M211.515,351.7a.6.6,0,1,0,.6-.6.6.6,0,0,0-.6.6Z" transform="translate(-190.292 -322.989)" fill="#ef6262" fill-rule="evenodd"/>
        <path id="Trazado_981032" data-name="Trazado 981032" d="M475.623,106.869a.6.6,0,1,0,0,.846A.6.6,0,0,0,475.623,106.869Z" transform="translate(-423.12 -106.693)" fill="#ef6262" fill-rule="evenodd"/>
        <path id="Trazado_981033" data-name="Trazado 981033" d="M458.837,145.5a.6.6,0,1,0,0,.846.6.6,0,0,0,0-.846Z" transform="translate(-408.265 -140.877)" fill="#ef6262" fill-rule="evenodd"/>
        <path id="Trazado_981034" data-name="Trazado 981034" d="M475.2,185.145a.6.6,0,1,0-.6-.6.6.6,0,0,0,.6.6Z" transform="translate(-423.12 -175.063)" fill="#ef6262" fill-rule="evenodd"/>
        <path id="Trazado_981035" data-name="Trazado 981035" d="M27.588,106.7a.6.6,0,1,0,.6.6.6.6,0,0,0-.6-.6Z" transform="translate(-26.989 -106.696)" fill="#ef6262" fill-rule="evenodd"/>
        <path id="Trazado_981036" data-name="Trazado 981036" d="M44.374,145.323a.6.6,0,1,0,.6.6.6.6,0,0,0-.6-.6Z" transform="translate(-41.845 -140.88)" fill="#ef6262" fill-rule="evenodd"/>
        <path id="Trazado_981037" data-name="Trazado 981037" d="M27.168,184.97a.6.6,0,1,0,0-.846A.6.6,0,0,0,27.168,184.97Z" transform="translate(-26.992 -175.063)" fill="#ef6262" fill-rule="evenodd"/>
      </g>
      <path id="Trazado_981038" data-name="Trazado 981038" d="M52.438,432.917v-1.986c-3.362,3.486-11.506,3.486-14.868,0v1.986a3.62,3.62,0,0,0,2.056,2.9,11.507,11.507,0,0,0,10.756,0,3.62,3.62,0,0,0,2.056-2.9Zm-8.045,1.791a.63.63,0,1,1-.059,1.259,12.584,12.584,0,0,1-3.67-.706.63.63,0,0,1,.425-1.185A11.515,11.515,0,0,0,44.393,434.708Z" transform="translate(-19.089 -367.209)" fill="#fa9a00" fill-rule="evenodd"/>
      <path id="Trazado_981039" data-name="Trazado 981039" d="M52.438,390.614v-1.986c-3.362,3.486-11.506,3.486-14.868,0v1.986a3.62,3.62,0,0,0,2.056,2.9,11.506,11.506,0,0,0,10.756,0,3.62,3.62,0,0,0,2.056-2.9ZM44.393,392.4a.63.63,0,1,1-.059,1.259,12.582,12.582,0,0,1-3.67-.706.629.629,0,1,1,.425-1.185A11.516,11.516,0,0,0,44.393,392.4Z" transform="translate(-19.089 -329.771)" fill="#ffa71b" fill-rule="evenodd"/>
      <path id="Trazado_981040" data-name="Trazado 981040" d="M50.383,328.119a10.584,10.584,0,0,0-5.378-1.334,11.727,11.727,0,0,0-5.551,1.414,3.343,3.343,0,0,0-1.883,2.819,3.62,3.62,0,0,0,2.056,2.9,11.507,11.507,0,0,0,10.756,0c2.739-1.652,2.74-4.147,0-5.8Z" transform="translate(-19.09 -275.041)" fill="#ffb339" fill-rule="evenodd"/>
      <path id="Trazado_981041" data-name="Trazado 981041" d="M360.022,432.917v-1.986c-3.362,3.486-11.507,3.486-14.868,0v1.986a3.62,3.62,0,0,0,2.056,2.9,11.507,11.507,0,0,0,10.756,0,3.62,3.62,0,0,0,2.056-2.9Zm-8.045,1.791a.63.63,0,1,1-.059,1.259,12.585,12.585,0,0,1-3.67-.706.63.63,0,0,1,.425-1.185A11.515,11.515,0,0,0,351.977,434.708Z" transform="translate(-291.297 -367.209)" fill="#fa9a00" fill-rule="evenodd"/>
      <path id="Trazado_981042" data-name="Trazado 981042" d="M360.022,390.614v-1.986c-3.362,3.486-11.506,3.486-14.868,0v1.986a3.62,3.62,0,0,0,2.056,2.9,11.507,11.507,0,0,0,10.756,0A3.62,3.62,0,0,0,360.022,390.614Zm-8.045,1.791a.63.63,0,1,1-.059,1.259,12.583,12.583,0,0,1-3.67-.706.629.629,0,1,1,.425-1.185A11.516,11.516,0,0,0,351.977,392.4Z" transform="translate(-291.297 -329.771)" fill="#ffa71b" fill-rule="evenodd"/>
      <path id="Trazado_981043" data-name="Trazado 981043" d="M357.966,328.119a10.584,10.584,0,0,0-5.378-1.334,11.727,11.727,0,0,0-5.551,1.414,3.343,3.343,0,0,0-1.883,2.819,3.62,3.62,0,0,0,2.056,2.9,11.507,11.507,0,0,0,10.756,0c2.739-1.652,2.74-4.147,0-5.8Z" transform="translate(-291.297 -275.041)" fill="#ffb339" fill-rule="evenodd"/>
    </g>
  </g>
</svg>
