<svg xmlns="http://www.w3.org/2000/svg" xmlns:xlink="http://www.w3.org/1999/xlink" width="108" height="108" viewBox="0 0 108 108">
  <defs>
    <filter id="Trazado_904820" x="0" y="0" width="108" height="108" filterUnits="userSpaceOnUse">
      <feOffset dy="3" input="SourceAlpha"/>
      <feGaussianBlur stdDeviation="3" result="blur"/>
      <feFlood flood-opacity="0.161"/>
      <feComposite operator="in" in2="blur"/>
      <feComposite in="SourceGraphic"/>
    </filter>
  </defs>
  <g id="Icono" transform="translate(-615.101 6)">
    <g transform="matrix(1, 0, 0, 1, 615.1, -6)" filter="url(#Trazado_904820)">
      <g id="Trazado_904820-2" data-name="Trazado 904820" transform="translate(9 6)" fill="#ecf4fa">
        <path d="M 45 88.5 C 39.12687683105469 88.5 33.43022537231445 87.35007476806641 28.06830024719238 85.08217620849609 C 22.88852500915527 82.89131164550781 18.23629951477051 79.75458526611328 14.2408504486084 75.75914764404297 C 10.24541282653809 71.76370239257812 7.108687400817871 67.11147308349609 4.917825222015381 61.93170166015625 C 2.649924993515015 56.56977462768555 1.5 50.87312316894531 1.5 45 C 1.5 39.12687683105469 2.649924993515015 33.43022537231445 4.917825222015381 28.06830024719238 C 7.108687400817871 22.88852500915527 10.24541282653809 18.23629951477051 14.2408504486084 14.2408504486084 C 18.23629951477051 10.24541282653809 22.88852500915527 7.108687400817871 28.06830024719238 4.917825222015381 C 33.43022537231445 2.649924993515015 39.12687683105469 1.5 45 1.5 C 50.87312316894531 1.5 56.56977462768555 2.649924993515015 61.93170166015625 4.917825222015381 C 67.11147308349609 7.108687400817871 71.76370239257812 10.24541282653809 75.75914764404297 14.2408504486084 C 79.75458526611328 18.23629951477051 82.89131164550781 22.88852500915527 85.08217620849609 28.06830024719238 C 87.35007476806641 33.43022537231445 88.5 39.12687683105469 88.5 45 C 88.5 50.87312316894531 87.35007476806641 56.56977462768555 85.08217620849609 61.93170166015625 C 82.89131164550781 67.11147308349609 79.75458526611328 71.76370239257812 75.75914764404297 75.75914764404297 C 71.76370239257812 79.75458526611328 67.11147308349609 82.89131164550781 61.93170166015625 85.08217620849609 C 56.56977462768555 87.35007476806641 50.87312316894531 88.5 45 88.5 Z" stroke="none"/>
        <path d="M 45 3 C 39.32871246337891 3 33.82865524291992 4.110054016113281 28.65262985229492 6.299339294433594 C 23.65165710449219 8.414573669433594 19.15968322753906 11.44334411621094 15.301513671875 15.301513671875 C 11.44334411621094 19.15968322753906 8.414573669433594 23.65165710449219 6.299339294433594 28.65262985229492 C 4.110054016113281 33.82865524291992 3 39.32871246337891 3 45 C 3 50.67128753662109 4.110054016113281 56.17134475708008 6.299339294433594 61.34737396240234 C 8.414573669433594 66.34834289550781 11.44334411621094 70.84031677246094 15.301513671875 74.698486328125 C 19.15968322753906 78.55665588378906 23.65165710449219 81.58542633056641 28.65262985229492 83.70066070556641 C 33.82865524291992 85.88994598388672 39.32871246337891 87 45 87 C 50.67128753662109 87 56.17134475708008 85.88994598388672 61.34737396240234 83.70066070556641 C 66.34834289550781 81.58542633056641 70.84031677246094 78.55665588378906 74.698486328125 74.698486328125 C 78.55665588378906 70.84031677246094 81.58542633056641 66.34834289550781 83.70066070556641 61.34737396240234 C 85.88994598388672 56.17134475708008 87 50.67128753662109 87 45 C 87 39.32871246337891 85.88994598388672 33.82865524291992 83.70066070556641 28.65262985229492 C 81.58542633056641 23.65165710449219 78.55665588378906 19.15968322753906 74.698486328125 15.301513671875 C 70.84031677246094 11.44334411621094 66.34834289550781 8.414573669433594 61.34737396240234 6.299339294433594 C 56.17134475708008 4.110054016113281 50.67128753662109 3 45 3 M 45 0 C 69.85281372070312 0 90 20.14718627929688 90 45 C 90 69.85281372070312 69.85281372070312 90 45 90 C 20.14718627929688 90 0 69.85281372070312 0 45 C 0 20.14718627929688 20.14718627929688 0 45 0 Z" stroke="none" fill="#098009"/>
      </g>
    </g>
    <g id="layer1" transform="translate(640.063 -265.097)">
      <path id="path13065" d="M15.043,281.919a14.25,14.25,0,1,0,14.25,14.25H15.043Z" transform="translate(0.683 3.427)" fill="#ffbc42"/>
      <path id="path13067" d="M5.821,280.86v14.25H20.07A14.25,14.25,0,0,0,5.821,280.86Z" transform="translate(13.705 0.684)" fill="#ff6b6b"/>
      <path id="path13629" d="M7.937,294.619h3.8v5.7h-3.8Z" transform="translate(19.188 36.326)" fill="#33b9ef"/>
      <path id="path13631" d="M10.054,293.56h3.8v9.5h-3.8Z" transform="translate(24.672 33.583)" fill="#33b9ef"/>
      <path id="path13633" d="M12.171,294.09h3.8v7.6h-3.8Z" transform="translate(30.154 34.956)" fill="#33b9ef"/>
      <path id="path13635" d="M14.288,292.5h3.8v13.3h-3.8Z" transform="translate(35.638 30.842)" fill="#33b9ef"/>
      <g id="Grupo_1144442" data-name="Grupo 1144442" transform="translate(27.126 313.843)">
        <path id="path13637" d="M11.737,294.4a1.9,1.9,0,1,1-1.9-1.9,1.9,1.9,0,0,1,1.9,1.9Z" transform="translate(-7.937 -283.001)" fill="#ffbc42"/>
        <path id="path13639" d="M13.854,292.815a1.9,1.9,0,1,1-1.9-1.9A1.9,1.9,0,0,1,13.854,292.815Z" transform="translate(-2.454 -287.113)" fill="#ffbc42"/>
        <path id="path13641" d="M15.971,293.344a1.9,1.9,0,1,1-1.9-1.9A1.9,1.9,0,0,1,15.971,293.344Z" transform="translate(3.029 -285.742)" fill="#ffbc42"/>
        <path id="path13643" d="M18.087,291.756a1.9,1.9,0,1,1-1.9-1.9A1.9,1.9,0,0,1,18.087,291.756Z" transform="translate(8.512 -289.856)" fill="#ffbc42"/>
      </g>
      <path id="path6950-0" d="M19.526,280.6a.95.95,0,0,0-.95.95V295.8a.95.95,0,0,0,.95.95h14.25a.95.95,0,0,0,.95-.95,15.183,15.183,0,0,0-.874-5.093.95.95,0,1,0-1.79.636,13.538,13.538,0,0,1,.727,3.507H20.476v-12.32a13.286,13.286,0,0,1,8.325,3.767H26.174a.95.95,0,1,0,0,1.9H46.125v2.855a.951.951,0,0,0,1.9,0v-3.8a.95.95,0,0,0-.956-.954H31.38a15.172,15.172,0,0,0-11.854-5.7Zm-3.8,3.8a15.192,15.192,0,0,0-4.748,29.624v5.524a.951.951,0,1,0,1.9,0v-13.3a.951.951,0,1,0-1.9,0v5.77a13.292,13.292,0,0,1,3.8-25.679V299.6a.949.949,0,0,0,.946.946H29A13.339,13.339,0,0,1,15.726,312.9a.946.946,0,0,0,0,1.892,15.208,15.208,0,0,0,15.2-15.2.949.949,0,0,0-.946-.946h-13.3v-13.3a.949.949,0,0,0-.946-.946Zm27.553,11.394a.951.951,0,0,0,0,1.9H54.673a.951.951,0,0,0,0-1.9Zm-3.8,5.7h9.5a.95.95,0,1,0,0-1.9H39.428a.95.95,0,0,0,.049,1.9Zm13.3,0h1.9a.95.95,0,1,0,0-1.9H52.728a.95.95,0,0,0,.045,1.9Zm-13.3,3.8h15.2a.95.95,0,1,0,0-1.9H39.428a.95.95,0,0,0,.049,1.9Zm0,3.8h1.9a.95.95,0,0,0,0-1.9H39.428a.95.95,0,0,0,.049,1.9Zm5.694,0h9.5a.95.95,0,0,0,0-1.9H45.126a.95.95,0,0,0,.045,1.9Zm6.655,3.8a2.865,2.865,0,0,0-2.854,2.846,2.77,2.77,0,0,0,.145.846L45.8,319.074a2.813,2.813,0,0,0-1.572-.481,2.849,2.849,0,0,0-2.368,1.282l-2.408-.6a2.842,2.842,0,0,0-5.672.275,2.785,2.785,0,0,0,.141.837L30.6,322.875a2.807,2.807,0,0,0-1.57-.482,2.851,2.851,0,1,0,2.846,2.856,2.79,2.79,0,0,0-.145-.848l3.319-2.486a2.822,2.822,0,0,0,1.573.479,2.864,2.864,0,0,0,2.371-1.275l2.412.6a2.839,2.839,0,0,0,5.665-.275,2.794,2.794,0,0,0-.143-.842l3.321-2.494a2.845,2.845,0,1,0,1.577-5.212Zm0,1.892a.95.95,0,1,1-.954.954.936.936,0,0,1,.954-.954Zm-15.2,3.8a.95.95,0,1,1,0,1.9.95.95,0,0,1,0-1.9Zm7.6,1.9a.95.95,0,1,1-.946.954A.936.936,0,0,1,44.225,320.493ZM24.274,337.6h32.3a.95.95,0,1,0,0-1.9h-1.9v-12.35a.95.95,0,0,0-.946-.954h-3.8a.95.95,0,0,0-.954.954V335.7h-1.9v-6.655a.95.95,0,0,0-.946-.946h-3.8a.95.95,0,0,0-.946.946V335.7h-1.9v-8.548a.95.95,0,0,0-.954-.954h-3.8a.95.95,0,0,0-.946.954V335.7h-1.9v-4.755a.95.95,0,0,0-.954-.946H27.13a.95.95,0,0,0-.956.946V335.7H24.229a.95.95,0,0,0,.045,1.9Zm-17.1-13.3a.951.951,0,0,0,0,1.9H18.572a.951.951,0,0,0,0-1.9Zm21.851,0a.951.951,0,1,1-.954.956A.938.938,0,0,1,29.029,324.293Zm21.844,0h1.9v11.4h-1.9Zm-47.5,5.7h9.5a.95.95,0,0,0,0-1.9H3.327a.95.95,0,0,0,.049,1.9Zm13.3,0h1.9a.95.95,0,0,0,0-1.9H16.627a.95.95,0,0,0,.045,1.9Zm19.005-1.9h1.9v7.6h-1.9Zm7.6,1.9h1.893v5.7H43.279Zm-39.9,3.8h15.2a.95.95,0,1,0,0-1.9H3.327a.95.95,0,0,0,.049,1.9Zm24.7-1.9h1.9v3.8h-1.9Zm-24.7,5.7h1.9a.95.95,0,1,0,0-1.9H3.327a.95.95,0,0,0,.049,1.9Zm5.7,0h9.494a.95.95,0,1,0,0-1.9H9.029a.95.95,0,0,0,.049,1.9Z" transform="translate(0 0)"/>
    </g>
  </g>
</svg>
