<svg xmlns="http://www.w3.org/2000/svg" xmlns:xlink="http://www.w3.org/1999/xlink" width="108" height="108" viewBox="0 0 108 108">
  <defs>
    <filter id="Trazado_904820" x="0" y="0" width="108" height="108" filterUnits="userSpaceOnUse">
      <feOffset dy="3" input="SourceAlpha"/>
      <feGaussianBlur stdDeviation="3" result="blur"/>
      <feFlood flood-opacity="0.161"/>
      <feComposite operator="in" in2="blur"/>
      <feComposite in="SourceGraphic"/>
    </filter>
  </defs>
  <g id="Icono" transform="translate(9 6)">
    <g transform="matrix(1, 0, 0, 1, -9, -6)" filter="url(#Trazado_904820)">
      <g id="Trazado_904820-2" data-name="Trazado 904820" transform="translate(9 6)" fill="#ecf4fa">
        <path d="M 45 88.5 C 39.12687683105469 88.5 33.43022537231445 87.35007476806641 28.06830024719238 85.08217620849609 C 22.88852500915527 82.89131164550781 18.23629951477051 79.75458526611328 14.2408504486084 75.75914764404297 C 10.24541282653809 71.76370239257812 7.108687400817871 67.11147308349609 4.917825222015381 61.93170166015625 C 2.649924993515015 56.56977462768555 1.5 50.87312316894531 1.5 45 C 1.5 39.12687683105469 2.649924993515015 33.43022537231445 4.917825222015381 28.06830024719238 C 7.108687400817871 22.88852500915527 10.24541282653809 18.23629951477051 14.2408504486084 14.2408504486084 C 18.23629951477051 10.24541282653809 22.88852500915527 7.108687400817871 28.06830024719238 4.917825222015381 C 33.43022537231445 2.649924993515015 39.12687683105469 1.5 45 1.5 C 50.87312316894531 1.5 56.56977462768555 2.649924993515015 61.93170166015625 4.917825222015381 C 67.11147308349609 7.108687400817871 71.76370239257812 10.24541282653809 75.75914764404297 14.2408504486084 C 79.75458526611328 18.23629951477051 82.89131164550781 22.88852500915527 85.08217620849609 28.06830024719238 C 87.35007476806641 33.43022537231445 88.5 39.12687683105469 88.5 45 C 88.5 50.87312316894531 87.35007476806641 56.56977462768555 85.08217620849609 61.93170166015625 C 82.89131164550781 67.11147308349609 79.75458526611328 71.76370239257812 75.75914764404297 75.75914764404297 C 71.76370239257812 79.75458526611328 67.11147308349609 82.89131164550781 61.93170166015625 85.08217620849609 C 56.56977462768555 87.35007476806641 50.87312316894531 88.5 45 88.5 Z" stroke="none"/>
        <path d="M 45 3 C 39.32871246337891 3 33.82865524291992 4.110054016113281 28.65262985229492 6.299339294433594 C 23.65165710449219 8.414573669433594 19.15968322753906 11.44334411621094 15.301513671875 15.301513671875 C 11.44334411621094 19.15968322753906 8.414573669433594 23.65165710449219 6.299339294433594 28.65262985229492 C 4.110054016113281 33.82865524291992 3 39.32871246337891 3 45 C 3 50.67128753662109 4.110054016113281 56.17134475708008 6.299339294433594 61.34737396240234 C 8.414573669433594 66.34834289550781 11.44334411621094 70.84031677246094 15.301513671875 74.698486328125 C 19.15968322753906 78.55665588378906 23.65165710449219 81.58542633056641 28.65262985229492 83.70066070556641 C 33.82865524291992 85.88994598388672 39.32871246337891 87 45 87 C 50.67128753662109 87 56.17134475708008 85.88994598388672 61.34737396240234 83.70066070556641 C 66.34834289550781 81.58542633056641 70.84031677246094 78.55665588378906 74.698486328125 74.698486328125 C 78.55665588378906 70.84031677246094 81.58542633056641 66.34834289550781 83.70066070556641 61.34737396240234 C 85.88994598388672 56.17134475708008 87 50.67128753662109 87 45 C 87 39.32871246337891 85.88994598388672 33.82865524291992 83.70066070556641 28.65262985229492 C 81.58542633056641 23.65165710449219 78.55665588378906 19.15968322753906 74.698486328125 15.301513671875 C 70.84031677246094 11.44334411621094 66.34834289550781 8.414573669433594 61.34737396240234 6.299339294433594 C 56.17134475708008 4.110054016113281 50.67128753662109 3 45 3 M 45 0 C 69.85281372070312 0 90 20.14718627929688 90 45 C 90 69.85281372070312 69.85281372070312 90 45 90 C 20.14718627929688 90 0 69.85281372070312 0 45 C 0 20.14718627929688 20.14718627929688 0 45 0 Z" stroke="none" fill="#2a5673"/>
      </g>
    </g>
    <g id="progress_11176733" transform="translate(14.944 -28.071)">
      <path id="Trazado_981176" data-name="Trazado 981176" d="M302.64,125.112h8.017v41.567H302.64Z" transform="translate(-265.05 -69.304)" fill="#ffc300"/>
      <path id="Trazado_981177" data-name="Trazado 981177" d="M209.319,187.035h8.02v33.873h-8.02Z" transform="translate(-183.324 -123.533)" fill="#fe0050"/>
      <path id="Trazado_981178" data-name="Trazado 981178" d="M116.026,248.958h8.02v26.179h-8.02Z" transform="translate(-101.623 -177.762)" fill="#25c73b"/>
      <path id="Trazado_981179" data-name="Trazado 981179" d="M22.734,310.853h8.017v18.489H22.734Z" transform="translate(-19.922 -231.966)" fill="#00c3ff"/>
      <path id="Trazado_981180" data-name="Trazado 981180" d="M350.5,229.4a10.932,10.932,0,1,1-7.756-13.451l-7.735,13.441Z" transform="translate(-288.149 -148.537)" fill="#00c3ff" fill-rule="evenodd"/>
      <path id="Trazado_981181" data-name="Trazado 981181" d="M412.517,236.04l5.734-9.966A10.963,10.963,0,0,1,424,236.05Z" transform="translate(-361.275 -157.721)" fill="#25c73b" fill-rule="evenodd"/>
      <path id="Trazado_981182" data-name="Trazado 981182" d="M302.64,125.112h2.11v41.567h-2.11Z" transform="translate(-265.05 -69.304)" fill="#e6b000"/>
      <path id="Trazado_981183" data-name="Trazado 981183" d="M209.319,187.035h2.113v33.873h-2.113Z" transform="translate(-183.324 -123.533)" fill="#e50048"/>
      <path id="Trazado_981184" data-name="Trazado 981184" d="M116.026,248.958h2.113v26.176h-2.113Z" transform="translate(-101.623 -177.762)" fill="#21b335"/>
      <path id="Trazado_981185" data-name="Trazado 981185" d="M22.734,310.853h2.113v18.485H22.734Z" transform="translate(-19.922 -231.966)" fill="#00b0e6"/>
      <path id="Trazado_981186" data-name="Trazado 981186" d="M332.542,236.29a10.94,10.94,0,0,1,3.329-14.531,10.818,10.818,0,0,0-1.441.7c-.25.148-.5.3-.733.462a10.941,10.941,0,0,0,11.662,18.5c.229-.13.454-.272.669-.42a10.912,10.912,0,0,1-13.487-4.706Z" transform="translate(-288.09 -153.942)" fill="#00b0e6" fill-rule="evenodd"/>
      <path id="Trazado_981187" data-name="Trazado 981187" d="M423.985,234.989l-9.7-.007,4.829-8.389q-.423-.28-.866-.519l-5.734,9.966L424,236.05C424.014,235.7,424.006,235.345,423.985,234.989Z" transform="translate(-361.275 -157.721)" fill="#21b335" fill-rule="evenodd"/>
      <path id="Trazado_981188" data-name="Trazado 981188" d="M34.015,62.607H26a.87.87,0,0,0-.87.87V97.3a.87.87,0,0,0,.87.87h8.017a.87.87,0,0,0,.87-.87V63.477A.87.87,0,0,0,34.015,62.607Zm-.87,33.82H26.868V64.347h6.277ZM22.423,70.289H14.4a.87.87,0,0,0-.87.87V97.3a.87.87,0,0,0,.87.87h8.02a.87.87,0,0,0,.87-.87V71.159A.87.87,0,0,0,22.423,70.289Zm-.87,26.138h-6.28v-24.4h6.28ZM10.832,77.971H2.812a.87.87,0,0,0-.87.87V97.3a.87.87,0,0,0,.87.87h8.02a.87.87,0,0,0,.87-.87V78.841a.87.87,0,0,0-.87-.87Zm-.87,18.456H3.682V79.711h6.28ZM22.171,62.639A86.457,86.457,0,0,1,1.362,72.148a.87.87,0,1,1-.5-1.668c12.679-3.764,25.424-11.384,37.9-22.652l-2.19-.114a.87.87,0,0,1,.09-1.738l4.269.222a.87.87,0,0,1,.8,1.056l-.919,4.17a.871.871,0,0,1-.849.683.881.881,0,0,1-.188-.021.87.87,0,0,1-.662-1.037l.33-1.5A124.114,124.114,0,0,1,22.17,62.639ZM62.352,79.947l-13.99-.012,6.987-12.116a.87.87,0,0,0-.531-1.275,11.708,11.708,0,0,0-8.337.878V55.8a.87.87,0,0,0-.87-.87H37.59a.87.87,0,0,0-.87.87V97.3a.87.87,0,0,0,.87.87h8.02a.87.87,0,0,0,.87-.87V88.478A11.794,11.794,0,0,0,63.19,81.046a.87.87,0,0,0-.839-1.1ZM44.74,96.427H38.46V56.669h6.28V68.5a11.805,11.805,0,0,0,0,18.9Zm12.093-9.77a10.074,10.074,0,0,1-10.7-.4.871.871,0,0,0-.085-.057,10.056,10.056,0,0,1,7.187-18.212L46.1,80.368a.87.87,0,0,0,.753,1.3l14.289.012a9.983,9.983,0,0,1-4.311,4.972Zm5.189-14.609a11.768,11.768,0,0,0-4.633-4.491.87.87,0,0,0-1.164.333l-5.734,9.947a.87.87,0,0,0,.753,1.3l11.482.011h0a.87.87,0,0,0,.87-.842,11.775,11.775,0,0,0-1.575-6.262ZM52.75,77.4l4.544-7.883a10.059,10.059,0,0,1,4.555,7.891ZM.857,67a.87.87,0,0,1-.247-1.7C9.79,62.569,19.019,57.091,28.06,49L27,48.947a.87.87,0,0,1,.091-1.738l3.145.166a.87.87,0,0,1,.8,1.056l-.676,3.075a.87.87,0,0,1-1.7-.374l.092-.419C19.668,58.748,10.374,64.211,1.1,66.96A.875.875,0,0,1,.857,67Z" transform="translate(0 0)"/>
    </g>
  </g>
</svg>
