<svg xmlns="http://www.w3.org/2000/svg" xmlns:xlink="http://www.w3.org/1999/xlink" width="108" height="108" viewBox="0 0 108 108">
  <defs>
    <filter id="Trazado_904820" x="0" y="0" width="108" height="108" filterUnits="userSpaceOnUse">
      <feOffset dy="3" input="SourceAlpha"/>
      <feGaussianBlur stdDeviation="3" result="blur"/>
      <feFlood flood-opacity="0.161"/>
      <feComposite operator="in" in2="blur"/>
      <feComposite in="SourceGraphic"/>
    </filter>
  </defs>
  <g id="Grupo_1144467" data-name="Grupo 1144467" transform="translate(-202.73 -1713)">
    <g id="Icono" transform="translate(-412.371 1719)">
      <g transform="matrix(1, 0, 0, 1, 615.1, -6)" filter="url(#Trazado_904820)">
        <g id="Trazado_904820-2" data-name="Trazado 904820" transform="translate(9 6)" fill="#ecf4fa">
          <path d="M 45 88.5 C 39.12687683105469 88.5 33.43022537231445 87.35007476806641 28.06830024719238 85.08217620849609 C 22.88852500915527 82.89131164550781 18.23629951477051 79.75458526611328 14.2408504486084 75.75914764404297 C 10.24541282653809 71.76370239257812 7.108687400817871 67.11147308349609 4.917825222015381 61.93170166015625 C 2.649924993515015 56.56977462768555 1.5 50.87312316894531 1.5 45 C 1.5 39.12687683105469 2.649924993515015 33.43022537231445 4.917825222015381 28.06830024719238 C 7.108687400817871 22.88852500915527 10.24541282653809 18.23629951477051 14.2408504486084 14.2408504486084 C 18.23629951477051 10.24541282653809 22.88852500915527 7.108687400817871 28.06830024719238 4.917825222015381 C 33.43022537231445 2.649924993515015 39.12687683105469 1.5 45 1.5 C 50.87312316894531 1.5 56.56977462768555 2.649924993515015 61.93170166015625 4.917825222015381 C 67.11147308349609 7.108687400817871 71.76370239257812 10.24541282653809 75.75914764404297 14.2408504486084 C 79.75458526611328 18.23629951477051 82.89131164550781 22.88852500915527 85.08217620849609 28.06830024719238 C 87.35007476806641 33.43022537231445 88.5 39.12687683105469 88.5 45 C 88.5 50.87312316894531 87.35007476806641 56.56977462768555 85.08217620849609 61.93170166015625 C 82.89131164550781 67.11147308349609 79.75458526611328 71.76370239257812 75.75914764404297 75.75914764404297 C 71.76370239257812 79.75458526611328 67.11147308349609 82.89131164550781 61.93170166015625 85.08217620849609 C 56.56977462768555 87.35007476806641 50.87312316894531 88.5 45 88.5 Z" stroke="none"/>
          <path d="M 45 3 C 39.32871246337891 3 33.82865524291992 4.110054016113281 28.65262985229492 6.299339294433594 C 23.65165710449219 8.414573669433594 19.15968322753906 11.44334411621094 15.301513671875 15.301513671875 C 11.44334411621094 19.15968322753906 8.414573669433594 23.65165710449219 6.299339294433594 28.65262985229492 C 4.110054016113281 33.82865524291992 3 39.32871246337891 3 45 C 3 50.67128753662109 4.110054016113281 56.17134475708008 6.299339294433594 61.34737396240234 C 8.414573669433594 66.34834289550781 11.44334411621094 70.84031677246094 15.301513671875 74.698486328125 C 19.15968322753906 78.55665588378906 23.65165710449219 81.58542633056641 28.65262985229492 83.70066070556641 C 33.82865524291992 85.88994598388672 39.32871246337891 87 45 87 C 50.67128753662109 87 56.17134475708008 85.88994598388672 61.34737396240234 83.70066070556641 C 66.34834289550781 81.58542633056641 70.84031677246094 78.55665588378906 74.698486328125 74.698486328125 C 78.55665588378906 70.84031677246094 81.58542633056641 66.34834289550781 83.70066070556641 61.34737396240234 C 85.88994598388672 56.17134475708008 87 50.67128753662109 87 45 C 87 39.32871246337891 85.88994598388672 33.82865524291992 83.70066070556641 28.65262985229492 C 81.58542633056641 23.65165710449219 78.55665588378906 19.15968322753906 74.698486328125 15.301513671875 C 70.84031677246094 11.44334411621094 66.34834289550781 8.414573669433594 61.34737396240234 6.299339294433594 C 56.17134475708008 4.110054016113281 50.67128753662109 3 45 3 M 45 0 C 69.85281372070312 0 90 20.14718627929688 90 45 C 90 69.85281372070312 69.85281372070312 90 45 90 C 20.14718627929688 90 0 69.85281372070312 0 45 C 0 20.14718627929688 20.14718627929688 0 45 0 Z" stroke="none" fill="#2a5673"/>
        </g>
      </g>
    </g>
    <g id="estadisticas_4_" data-name="estadisticas (4)" transform="translate(230.194 1737.464)">
      <path id="Trazado_981212" data-name="Trazado 981212" d="M369.232,373.834,358.34,362.942a.651.651,0,0,1,0-.92l3.682-3.682a.651.651,0,0,1,.92,0l10.891,10.891a.651.651,0,0,1,0,.92l-3.682,3.682A.651.651,0,0,1,369.232,373.834Z" transform="translate(-319.302 -319.302)" fill="#f78e36"/>
      <path id="Trazado_981213" data-name="Trazado 981213" d="M374.936,358.34l-2.3,2.3a.651.651,0,0,1,.92,0l10.891,10.891a.651.651,0,0,1,0,.92l2.3-2.3a.651.651,0,0,0,0-.92L375.856,358.34A.651.651,0,0,0,374.936,358.34Z" transform="translate(-332.216 -319.302)" fill="#f86f1b"/>
      <path id="Trazado_981214" data-name="Trazado 981214" d="M0,0H3.254V7.093H0Z" transform="translate(34.706 37.015) rotate(-45)" fill="#4380a0"/>
      <path id="Trazado_981215" data-name="Trazado 981215" d="M0,0H6.508V3.254H0Z" transform="translate(41.062 45.673) rotate(-45)" fill="#7be492"/>
      <path id="Trazado_981216" data-name="Trazado 981216" d="M0,0H3.254V3.254H0Z" transform="translate(43.363 43.373) rotate(-45)" fill="#45d987"/>
      <circle id="Elipse_11851" data-name="Elipse 11851" cx="21.151" cy="21.151" r="21.151" transform="translate(0.813 0.814)" fill="#43809f"/>
      <path id="Trazado_981217" data-name="Trazado 981217" d="M189.127,7.5q-.821,0-1.627.062a21.153,21.153,0,0,1,0,42.18q.806.061,1.627.062a21.151,21.151,0,0,0,0-42.3Z" transform="translate(-167.162 -6.686)" fill="#3a7190"/>
      <circle id="Elipse_11852" data-name="Elipse 11852" cx="17.897" cy="17.897" r="17.897" transform="translate(4.068 4.068)" fill="#f3f3f3"/>
      <path id="Trazado_981218" data-name="Trazado 981218" d="M189.127,37.5c-.549,0-1.091.026-1.627.075a17.9,17.9,0,0,1,0,35.645c.536.048,1.079.075,1.627.075a17.9,17.9,0,1,0,0-35.795Z" transform="translate(-167.162 -33.432)" fill="#e4e4e4"/>
      <g id="Grupo_1144443" data-name="Grupo 1144443" transform="translate(12.474 8.244)">
        <path id="Trazado_981219" data-name="Trazado 981219" d="M121.508,123.979H115v-9.545a.434.434,0,0,1,.434-.434h5.64a.434.434,0,0,1,.434.434Z" transform="translate(-115 -109.878)" fill="#29cef6"/>
        <path id="Trazado_981220" data-name="Trazado 981220" d="M145,114v9.979h3.254v-9.545a.434.434,0,0,0-.434-.434Z" transform="translate(-141.746 -109.878)" fill="#22b5ed"/>
        <path id="Trazado_981221" data-name="Trazado 981221" d="M241.508,157.857H235v-5.423a.434.434,0,0,1,.434-.434h5.64a.434.434,0,0,1,.434.434Z" transform="translate(-221.984 -143.756)" fill="#7be492"/>
        <path id="Trazado_981222" data-name="Trazado 981222" d="M265,152v5.857h3.254v-5.423a.434.434,0,0,0-.434-.434Z" transform="translate(-248.73 -143.756)" fill="#45d987"/>
        <path id="Trazado_981223" data-name="Trazado 981223" d="M181.508,90.1H175V76.434a.434.434,0,0,1,.434-.434h5.64a.434.434,0,0,1,.434.434Z" transform="translate(-168.492 -76)" fill="#f78e36"/>
        <path id="Trazado_981224" data-name="Trazado 981224" d="M205,76V90.1h3.254V76.434A.434.434,0,0,0,207.82,76Z" transform="translate(-195.238 -76)" fill="#f86f1b"/>
      </g>
      <g id="Grupo_1144444" data-name="Grupo 1144444" transform="translate(0)">
        <path id="Trazado_981225" data-name="Trazado 981225" d="M55.107,49.355l-.792-.792a.813.813,0,0,0-1.151,1.15l.677.677L50.39,53.842l-5.868-5.867,3.451-3.451,2.737,2.737a.814.814,0,1,0,1.151-1.151L48.551,42.8v0l-2.3-2.3,0,0-2.031-2.031a1.464,1.464,0,0,0-2.071,0l-.115.115-2.911-2.912a21.893,21.893,0,0,0,4.313-9.046h5.732a.814.814,0,1,0,0-1.627H43.72q.108-.776.16-1.569h9.161a.814.814,0,0,0,0-1.627H43.928q-.006-.79-.066-1.569h5.3a.814.814,0,1,0,0-1.627H43.677A21.7,21.7,0,0,0,39.2,8.342a.814.814,0,1,0-1.276,1.01A20.126,20.126,0,0,1,42.3,21.965,20.337,20.337,0,1,1,35.64,6.91a.813.813,0,1,0,1.094-1.2A21.965,21.965,0,1,0,17.815,43.535v5.488a.814.814,0,0,0,1.627,0V43.784q.777.089,1.569.124v8.941a.814.814,0,0,0,1.627,0v-8.93q.791-.024,1.569-.1v5.207a.814.814,0,0,0,1.627,0V43.589a21.879,21.879,0,0,0,9.833-4.47l2.912,2.911-.115.115a1.464,1.464,0,0,0,0,2.071l2.031,2.031h0l2.3,2.3h0l6.556,6.556a1.464,1.464,0,0,0,2.071,0l3.681-3.681a1.464,1.464,0,0,0,0-2.071ZM38.053,36.9l2.826,2.827-1.15,1.15L36.9,38.053q.6-.554,1.151-1.151Zm5.319,9.922-1.151-1.15,3.451-3.451,1.15,1.151Zm-.192-7.095,1.342,1.342-3.451,3.451L39.729,43.18Z" transform="translate(0)"/>
        <path id="Trazado_981226" data-name="Trazado 981226" d="M37.373,63.6A19.083,19.083,0,0,0,48.7,67.422,18.711,18.711,0,1,0,48.7,30a18.49,18.49,0,0,0-13.186,5.488A18.9,18.9,0,0,0,29.991,48.7,18.287,18.287,0,0,0,34.7,61.155a.814.814,0,0,0,1.21-1.088,16.664,16.664,0,0,1-4.29-11.347,17.284,17.284,0,0,1,5.05-12.084A16.874,16.874,0,0,1,48.7,31.627a17.084,17.084,0,0,1,.01,34.168A17.461,17.461,0,0,1,38.351,62.3a.813.813,0,0,0-.978,1.3Z" transform="translate(-26.737 -26.746)"/>
        <path id="Trazado_981227" data-name="Trazado 981227" d="M105.26,68.5H99.62a1.249,1.249,0,0,0-1.247,1.247v2.874H93.112a1.249,1.249,0,0,0-1.247,1.247V82.6H90.776a.814.814,0,1,0,0,1.627H114.1a.814.814,0,1,0,0-1.627h-1.089v-4.61a1.249,1.249,0,0,0-1.247-1.247h-5.261v-7A1.249,1.249,0,0,0,105.26,68.5ZM93.491,74.249h4.881V82.6H93.491ZM100,70.127h4.881V82.6H100Zm11.389,8.244V82.6h-4.881v-4.23Z" transform="translate(-80.204 -61.07)"/>
        <path id="Trazado_981228" data-name="Trazado 981228" d="M134.18,236.247h-3.83l-1.74-4.448a.814.814,0,0,0-1.52.014l-2.378,6.411-1.662-4.71a.814.814,0,0,0-1.478-.126l-1.6,2.859h-3.82a.814.814,0,1,0,0,1.627h4.3a.814.814,0,0,0,.71-.417l.951-1.7,1.81,5.132a.814.814,0,0,0,.761.543h.007a.814.814,0,0,0,.763-.531l2.417-6.518,1.164,2.976a.814.814,0,0,0,.758.517h4.385a.814.814,0,0,0,0-1.627Z" transform="translate(-102.833 -206.195)"/>
      </g>
    </g>
  </g>
</svg>
