<svg xmlns="http://www.w3.org/2000/svg" xmlns:xlink="http://www.w3.org/1999/xlink" width="108" height="108" viewBox="0 0 108 108">
  <defs>
    <filter id="Trazado_904820" x="0" y="0" width="108" height="108" filterUnits="userSpaceOnUse">
      <feOffset dy="3" input="SourceAlpha"/>
      <feGaussianBlur stdDeviation="3" result="blur"/>
      <feFlood flood-opacity="0.161"/>
      <feComposite operator="in" in2="blur"/>
      <feComposite in="SourceGraphic"/>
    </filter>
  </defs>
  <g id="Icono" transform="translate(9 6)">
    <g transform="matrix(1, 0, 0, 1, -9, -6)" filter="url(#Trazado_904820)">
      <g id="Trazado_904820-2" data-name="Trazado 904820" transform="translate(9 6)" fill="#ecf4fa">
        <path d="M 45 88.5 C 39.12687683105469 88.5 33.43022537231445 87.35007476806641 28.06830024719238 85.08217620849609 C 22.88852500915527 82.89131164550781 18.23629951477051 79.75458526611328 14.2408504486084 75.75914764404297 C 10.24541282653809 71.76370239257812 7.108687400817871 67.11147308349609 4.917825222015381 61.93170166015625 C 2.649924993515015 56.56977462768555 1.5 50.87312316894531 1.5 45 C 1.5 39.12687683105469 2.649924993515015 33.43022537231445 4.917825222015381 28.06830024719238 C 7.108687400817871 22.88852500915527 10.24541282653809 18.23629951477051 14.2408504486084 14.2408504486084 C 18.23629951477051 10.24541282653809 22.88852500915527 7.108687400817871 28.06830024719238 4.917825222015381 C 33.43022537231445 2.649924993515015 39.12687683105469 1.5 45 1.5 C 50.87312316894531 1.5 56.56977462768555 2.649924993515015 61.93170166015625 4.917825222015381 C 67.11147308349609 7.108687400817871 71.76370239257812 10.24541282653809 75.75914764404297 14.2408504486084 C 79.75458526611328 18.23629951477051 82.89131164550781 22.88852500915527 85.08217620849609 28.06830024719238 C 87.35007476806641 33.43022537231445 88.5 39.12687683105469 88.5 45 C 88.5 50.87312316894531 87.35007476806641 56.56977462768555 85.08217620849609 61.93170166015625 C 82.89131164550781 67.11147308349609 79.75458526611328 71.76370239257812 75.75914764404297 75.75914764404297 C 71.76370239257812 79.75458526611328 67.11147308349609 82.89131164550781 61.93170166015625 85.08217620849609 C 56.56977462768555 87.35007476806641 50.87312316894531 88.5 45 88.5 Z" stroke="none"/>
        <path d="M 45 3 C 39.32871246337891 3 33.82865524291992 4.110054016113281 28.65262985229492 6.299339294433594 C 23.65165710449219 8.414573669433594 19.15968322753906 11.44334411621094 15.301513671875 15.301513671875 C 11.44334411621094 19.15968322753906 8.414573669433594 23.65165710449219 6.299339294433594 28.65262985229492 C 4.110054016113281 33.82865524291992 3 39.32871246337891 3 45 C 3 50.67128753662109 4.110054016113281 56.17134475708008 6.299339294433594 61.34737396240234 C 8.414573669433594 66.34834289550781 11.44334411621094 70.84031677246094 15.301513671875 74.698486328125 C 19.15968322753906 78.55665588378906 23.65165710449219 81.58542633056641 28.65262985229492 83.70066070556641 C 33.82865524291992 85.88994598388672 39.32871246337891 87 45 87 C 50.67128753662109 87 56.17134475708008 85.88994598388672 61.34737396240234 83.70066070556641 C 66.34834289550781 81.58542633056641 70.84031677246094 78.55665588378906 74.698486328125 74.698486328125 C 78.55665588378906 70.84031677246094 81.58542633056641 66.34834289550781 83.70066070556641 61.34737396240234 C 85.88994598388672 56.17134475708008 87 50.67128753662109 87 45 C 87 39.32871246337891 85.88994598388672 33.82865524291992 83.70066070556641 28.65262985229492 C 81.58542633056641 23.65165710449219 78.55665588378906 19.15968322753906 74.698486328125 15.301513671875 C 70.84031677246094 11.44334411621094 66.34834289550781 8.414573669433594 61.34737396240234 6.299339294433594 C 56.17134475708008 4.110054016113281 50.67128753662109 3 45 3 M 45 0 C 69.85281372070312 0 90 20.14718627929688 90 45 C 90 69.85281372070312 69.85281372070312 90 45 90 C 20.14718627929688 90 0 69.85281372070312 0 45 C 0 20.14718627929688 20.14718627929688 0 45 0 Z" stroke="none" fill="#581594"/>
      </g>
    </g>
    <g id="analyitics_12177056" transform="translate(12.496 19.991)">
      <path id="Trazado_981189" data-name="Trazado 981189" d="M206.564,381.033h10.812a26.906,26.906,0,0,1-1.869-15.155h-7.074a26.905,26.905,0,0,1-1.869,15.155Z" transform="translate(-179.466 -325.853)" fill="#b3c1cc" fill-rule="evenodd"/>
      <path id="Trazado_981190" data-name="Trazado 981190" d="M65.4,137a2.252,2.252,0,0,1-2.244,2.244H14.294A2.252,2.252,0,0,1,12.05,137V105.634a2.252,2.252,0,0,1,2.244-2.244H63.159a2.252,2.252,0,0,1,2.244,2.244Z" transform="translate(-6.223 -92.069)" fill="#eaf6ff" fill-rule="evenodd"/>
      <path id="Trazado_981191" data-name="Trazado 981191" d="M230.774,419.9h-7.061a28.82,28.82,0,0,0,.353-3.2h6.354A28.824,28.824,0,0,0,230.774,419.9Z" transform="translate(-194.74 -371.121)" fill="#a1aeb8" fill-rule="evenodd"/>
      <path id="Trazado_981192" data-name="Trazado 981192" d="M65.4,374.354H12.05v3.977a2.252,2.252,0,0,0,2.244,2.244H63.159a2.252,2.252,0,0,0,2.244-2.244Z" transform="translate(-6.223 -333.402)" fill="#8d9ca8" fill-rule="evenodd"/>
      <path id="Trazado_981193" data-name="Trazado 981193" d="M89.493,251.7H92.98v10.056H89.493Z" transform="translate(-75.197 -224.16)" fill="#fa4655"/>
      <path id="Trazado_981194" data-name="Trazado 981194" d="M121.383,272.42h3.484v7.79h-3.484Z" transform="translate(-103.6 -242.615)" fill="#4bd16d"/>
      <path id="Trazado_981195" data-name="Trazado 981195" d="M57.6,281.576H61.09v6.788H57.6Z" transform="translate(-46.795 -250.77)" fill="#ffba57"/>
      <path id="Trazado_981196" data-name="Trazado 981196" d="M14.018,378.331v-3.977H12.05v3.977a2.252,2.252,0,0,0,2.244,2.244h1.968A2.252,2.252,0,0,1,14.018,378.331Z" transform="translate(-6.223 -333.402)" fill="#7a8b99" fill-rule="evenodd"/>
      <path id="Trazado_981197" data-name="Trazado 981197" d="M12.05,133.021h1.968V105.634a2.252,2.252,0,0,1,2.244-2.244H14.294a2.252,2.252,0,0,0-2.244,2.244Z" transform="translate(-6.223 -92.069)" fill="#d3dde6" fill-rule="evenodd"/>
      <path id="Trazado_981198" data-name="Trazado 981198" d="M57.6,281.576h1.745v6.788H57.6Z" transform="translate(-46.795 -250.77)" fill="#e6a74e"/>
      <path id="Trazado_981199" data-name="Trazado 981199" d="M89.493,251.7h1.742v10.056H89.493Z" transform="translate(-75.197 -224.16)" fill="#e63140"/>
      <path id="Trazado_981200" data-name="Trazado 981200" d="M121.383,272.42h1.742v7.79h-1.742Z" transform="translate(-103.6 -242.615)" fill="#44bc62"/>
      <g id="Grupo_1144438" data-name="Grupo 1144438" transform="translate(19.062 3.539)">
        <path id="Trazado_981201" data-name="Trazado 981201" d="M158.162,38.944a13.439,13.439,0,1,1-18.36-4.919A13.439,13.439,0,0,1,158.162,38.944Z" transform="translate(-133.081 -32.222)" fill="#4bd16d" fill-rule="evenodd"/>
        <path id="Trazado_981202" data-name="Trazado 981202" d="M172.838,93.7a13.439,13.439,0,0,1-23.279,13.437Z" transform="translate(-147.757 -86.977)" fill="#ffba57" fill-rule="evenodd"/>
        <path id="Trazado_981203" data-name="Trazado 981203" d="M236.866,59.946l7.356-11.351,1.1-1.695a13.44,13.44,0,0,1,7.071,12.244l-2.021.105Z" transform="translate(-225.517 -45.295)" fill="#fa4655" fill-rule="evenodd"/>
        <path id="Trazado_981204" data-name="Trazado 981204" d="M162.485,214.05a13.41,13.41,0,0,1-10.378-6.661c-.214-.369-.409-.747-.586-1.128l-1.959,1.128a13.444,13.444,0,0,0,12.923,6.661Z" transform="translate(-147.761 -187.229)" fill="#e6a74e" fill-rule="evenodd"/>
        <path id="Trazado_981205" data-name="Trazado 981205" d="M136.878,51.267A13.449,13.449,0,0,1,147.817,32.3a13.432,13.432,0,0,0-9.178,2.523,13.412,13.412,0,0,0-3.72,17.576Z" transform="translate(-133.117 -32.236)" fill="#44bc62" fill-rule="evenodd"/>
        <path id="Trazado_981206" data-name="Trazado 981206" d="M239.659,58.331l3.407-5.254,3.509-5.415a13.347,13.347,0,0,0-1.252-.762l-1.1,1.695-2.9,4.482-4.451,6.869,13.506-.7,2.021-.105c.012-.4.006-.809-.019-1.215l-12.886.663Z" transform="translate(-225.517 -45.295)" fill="#e63140" fill-rule="evenodd"/>
        <path id="Trazado_981207" data-name="Trazado 981207" d="M211.327,438.486a28.19,28.19,0,0,0,1.779-7.241h-1.844a28.318,28.318,0,0,1-1.779,7.241Z" transform="translate(-201.128 -387.611)" fill="#a1aeb8" fill-rule="evenodd"/>
      </g>
      <path id="Trazado_981208" data-name="Trazado 981208" d="M26.591,54.473h-2.1a.764.764,0,1,0,0,1.528H40.519a.764.764,0,0,0,0-1.528h-2.1a27.183,27.183,0,0,1-1.737-6.478H56.936a3.012,3.012,0,0,0,3.008-3.008V13.623a3.012,3.012,0,0,0-3.008-3.008H45.169Q45,10.272,44.8,9.937a14.188,14.188,0,0,0-1.925-2.6L45.84,2.205h7.931a.764.764,0,1,0,0-1.528H45.4a.764.764,0,0,0-.662.382l-3,5.191A14.148,14.148,0,0,0,39.3,4.572l-.016-.011a.773.773,0,0,0-.14-.072,14.207,14.207,0,0,0-13.741.25q-.624.361-1.2.776L21.246.4a.764.764,0,0,0-.661-.383H12.213a.764.764,0,1,0,0,1.528h7.931l2.85,4.938a14.036,14.036,0,0,0-3.162,4.132H8.071a3.012,3.012,0,0,0-3.008,3.008V44.987a3.012,3.012,0,0,0,3.008,3.008H28.329A27.183,27.183,0,0,1,26.591,54.473Zm10.181,0H28.235a29.006,29.006,0,0,0,1.637-6.478h5.264a29.006,29.006,0,0,0,1.637,6.478Zm3.5-44.162a.764.764,0,0,0,1.044-.28l.752-1.3a12.711,12.711,0,0,1,3.106,7.99L31.866,17.4,39.113,6.226A12.6,12.6,0,0,1,40.96,7.6L40,9.267a.764.764,0,0,0,.28,1.044ZM38.505,28.2l-.8-1.389a.764.764,0,0,0-1.323.764l.732,1.268a12.687,12.687,0,0,1-15.183-4.821L30.634,19l14.488-.746a12.825,12.825,0,0,1-.376,2.067,12.59,12.59,0,0,1-5.9,7.695q-.168.1-.337.187ZM23.777,7.84l.886,1.534a.764.764,0,1,0,1.323-.764L24.968,6.845a12.9,12.9,0,0,1,1.2-.784,12.6,12.6,0,0,1,6.317-1.7A12.772,12.772,0,0,1,37.757,5.51L29.871,17.675,21.164,22.7a12.578,12.578,0,0,1-.9-8.943,12.835,12.835,0,0,1,.718-2,.753.753,0,0,0,.055-.118,12.527,12.527,0,0,1,2.744-3.8Zm-15.706,4.3h11.1q-.219.6-.386,1.219a14.21,14.21,0,0,0,19.1,16.82l3.235,5.6a.764.764,0,0,0,.662.382h8.376a.764.764,0,1,0,0-1.528H42.222l-2.953-5.117c.113-.061.225-.123.337-.187a14.208,14.208,0,0,0,6.233-17.194h11.1a1.482,1.482,0,0,1,1.48,1.48V40.246H6.591V13.623a1.482,1.482,0,0,1,1.48-1.48ZM6.591,44.987V41.774H58.416v3.213a1.482,1.482,0,0,1-1.48,1.48H8.071a1.482,1.482,0,0,1-1.48-1.48Zm24.048-.868a.764.764,0,0,1,.764-.764h2.2a.764.764,0,1,1,0,1.528H31.4A.764.764,0,0,1,30.639,44.119ZM19.629,6.292a.764.764,0,0,1-.764.764H12.213a.764.764,0,1,1,0-1.528h6.652a.764.764,0,0,1,.764.764Zm0-2.756a.764.764,0,0,1-.764.764H12.213a.764.764,0,0,1,0-1.528h6.652A.764.764,0,0,1,19.629,3.536ZM50.921,32.65a.764.764,0,0,1-.764.764H43.5a.764.764,0,1,1,0-1.528h6.655a.764.764,0,0,1,.764.764Zm-8.183-2.756a.764.764,0,0,1,.764-.764h6.655a.764.764,0,1,1,0,1.528H43.5a.764.764,0,0,1-.764-.764Zm11.8-22.944a.764.764,0,0,1-.764.764H47.119a.764.764,0,0,1,0-1.528h6.652a.764.764,0,0,1,.764.764Zm0-2.753a.764.764,0,0,1-.764.764H47.119a.764.764,0,1,1,0-1.528h6.652a.764.764,0,0,1,.764.764ZM9.311,38.417H22.767a.764.764,0,1,0,0-1.528h-.736V29.863a.764.764,0,0,0-.764-.764h-2.72V27.6a.764.764,0,0,0-.764-.764H14.3a.764.764,0,0,0-.764.764v2.5H10.808a.764.764,0,0,0-.764.764v6.025H9.311a.764.764,0,1,0,0,1.528ZM20.5,30.627v6.262H18.547V30.627ZM15.06,28.361h1.96v8.528H15.06Zm-3.487,3.267h1.959v5.26H11.572Z"/>
    </g>
  </g>
</svg>
