<svg xmlns="http://www.w3.org/2000/svg" xmlns:xlink="http://www.w3.org/1999/xlink" width="108" height="108" viewBox="0 0 108 108">
  <defs>
    <filter id="Trazado_904820" x="0" y="0" width="108" height="108" filterUnits="userSpaceOnUse">
      <feOffset dy="3" input="SourceAlpha"/>
      <feGaussianBlur stdDeviation="3" result="blur"/>
      <feFlood flood-opacity="0.161"/>
      <feComposite operator="in" in2="blur"/>
      <feComposite in="SourceGraphic"/>
    </filter>
  </defs>
  <g id="Grupo_1144417" data-name="Grupo 1144417" transform="translate(-203 -1613)">
    <g id="Icono" transform="translate(-412.102 1619)">
      <g transform="matrix(1, 0, 0, 1, 615.1, -6)" filter="url(#Trazado_904820)">
        <g id="Trazado_904820-2" data-name="Trazado 904820" transform="translate(9 6)" fill="#ecf4fa">
          <path d="M 45 88.5 C 39.12687683105469 88.5 33.43022537231445 87.35007476806641 28.06830024719238 85.08217620849609 C 22.88852500915527 82.89131164550781 18.23629951477051 79.75458526611328 14.2408504486084 75.75914764404297 C 10.24541282653809 71.76370239257812 7.108687400817871 67.11147308349609 4.917825222015381 61.93170166015625 C 2.649924993515015 56.56977462768555 1.5 50.87312316894531 1.5 45 C 1.5 39.12687683105469 2.649924993515015 33.43022537231445 4.917825222015381 28.06830024719238 C 7.108687400817871 22.88852500915527 10.24541282653809 18.23629951477051 14.2408504486084 14.2408504486084 C 18.23629951477051 10.24541282653809 22.88852500915527 7.108687400817871 28.06830024719238 4.917825222015381 C 33.43022537231445 2.649924993515015 39.12687683105469 1.5 45 1.5 C 50.87312316894531 1.5 56.56977462768555 2.649924993515015 61.93170166015625 4.917825222015381 C 67.11147308349609 7.108687400817871 71.76370239257812 10.24541282653809 75.75914764404297 14.2408504486084 C 79.75458526611328 18.23629951477051 82.89131164550781 22.88852500915527 85.08217620849609 28.06830024719238 C 87.35007476806641 33.43022537231445 88.5 39.12687683105469 88.5 45 C 88.5 50.87312316894531 87.35007476806641 56.56977462768555 85.08217620849609 61.93170166015625 C 82.89131164550781 67.11147308349609 79.75458526611328 71.76370239257812 75.75914764404297 75.75914764404297 C 71.76370239257812 79.75458526611328 67.11147308349609 82.89131164550781 61.93170166015625 85.08217620849609 C 56.56977462768555 87.35007476806641 50.87312316894531 88.5 45 88.5 Z" stroke="none"/>
          <path d="M 45 3 C 39.32871246337891 3 33.82865524291992 4.110054016113281 28.65262985229492 6.299339294433594 C 23.65165710449219 8.414573669433594 19.15968322753906 11.44334411621094 15.301513671875 15.301513671875 C 11.44334411621094 19.15968322753906 8.414573669433594 23.65165710449219 6.299339294433594 28.65262985229492 C 4.110054016113281 33.82865524291992 3 39.32871246337891 3 45 C 3 50.67128753662109 4.110054016113281 56.17134475708008 6.299339294433594 61.34737396240234 C 8.414573669433594 66.34834289550781 11.44334411621094 70.84031677246094 15.301513671875 74.698486328125 C 19.15968322753906 78.55665588378906 23.65165710449219 81.58542633056641 28.65262985229492 83.70066070556641 C 33.82865524291992 85.88994598388672 39.32871246337891 87 45 87 C 50.67128753662109 87 56.17134475708008 85.88994598388672 61.34737396240234 83.70066070556641 C 66.34834289550781 81.58542633056641 70.84031677246094 78.55665588378906 74.698486328125 74.698486328125 C 78.55665588378906 70.84031677246094 81.58542633056641 66.34834289550781 83.70066070556641 61.34737396240234 C 85.88994598388672 56.17134475708008 87 50.67128753662109 87 45 C 87 39.32871246337891 85.88994598388672 33.82865524291992 83.70066070556641 28.65262985229492 C 81.58542633056641 23.65165710449219 78.55665588378906 19.15968322753906 74.698486328125 15.301513671875 C 70.84031677246094 11.44334411621094 66.34834289550781 8.414573669433594 61.34737396240234 6.299339294433594 C 56.17134475708008 4.110054016113281 50.67128753662109 3 45 3 M 45 0 C 69.85281372070312 0 90 20.14718627929688 90 45 C 90 69.85281372070312 69.85281372070312 90 45 90 C 20.14718627929688 90 0 69.85281372070312 0 45 C 0 20.14718627929688 20.14718627929688 0 45 0 Z" stroke="none" fill="#098009"/>
        </g>
      </g>
    </g>
    <g id="analytics_1680920" transform="translate(229.498 1637.567)">
      <path id="Trazado_981124" data-name="Trazado 981124" d="M9.833,104h49.5a1.834,1.834,0,0,1,1.833,1.833v29.335A1.834,1.834,0,0,1,59.337,137H9.833A1.834,1.834,0,0,1,8,135.169V105.833A1.834,1.834,0,0,1,9.833,104Zm0,0" transform="translate(-7.083 -92.082)" fill="#87cee9"/>
      <path id="Trazado_981125" data-name="Trazado 981125" d="M171.667,392h9.167l3.667,5.5H168Zm0,0" transform="translate(-148.749 -347.08)" fill="#5a6470"/>
      <path id="Trazado_981126" data-name="Trazado 981126" d="M112,440h29.335v3.667H112Zm0,0" transform="translate(-99.166 -389.58)" fill="#7d8d9c"/>
      <path id="Trazado_981127" data-name="Trazado 981127" d="M120,48.336h34.836v-33L147.5,8H120Zm0,0" transform="translate(-106.249 -7.083)" fill="#f4f4e6"/>
      <path id="Trazado_981128" data-name="Trazado 981128" d="M360,15.334h7.334L360,8Zm0,0" transform="translate(-318.747 -7.083)" fill="#cfdfe8"/>
      <path id="Trazado_981129" data-name="Trazado 981129" d="M8,360H61.17v1.833a1.834,1.834,0,0,1-1.833,1.833H9.833A1.834,1.834,0,0,1,8,361.833Zm0,0" transform="translate(-7.083 -318.747)" fill="#7d8d9c"/>
      <path id="Trazado_981130" data-name="Trazado 981130" d="M280,72a10.084,10.084,0,0,1,10.084,10.084H280Zm0,0" transform="translate(-247.914 -63.749)" fill="#c83528"/>
      <path id="Trazado_981131" data-name="Trazado 981131" d="M202.084,170.084A10.084,10.084,0,0,0,212.168,160H192A10.084,10.084,0,0,0,202.084,170.084Zm0,0" transform="translate(-169.998 -141.665)" fill="#f9bb4b"/>
      <path id="Trazado_981132" data-name="Trazado 981132" d="M184.251,56A8.25,8.25,0,0,0,176,64.251h8.251Zm0,0" transform="translate(-155.832 -49.583)" fill="#32b1cc"/>
      <path id="Trazado_981133" data-name="Trazado 981133" d="M153.165,258.086a.917.917,0,0,1-.648-.269l-4.969-4.969-2.125,1.416a.917.917,0,1,1-1.018-1.525l2.75-1.833a.917.917,0,0,1,1.157.115l4.852,4.852,4.852-4.852a.917.917,0,0,1,1.3,0l3.972,3.972,7.609-6.76a.918.918,0,1,1,1.218,1.375l-8.251,7.334a.916.916,0,0,1-1.257-.038l-3.939-3.939-4.852,4.852a.917.917,0,0,1-.648.269Zm0,0" transform="translate(-127.496 -219.583)" fill="#e33e5c"/>
      <path id="Trazado_981134" data-name="Trazado 981134" d="M334.417,255.334a.917.917,0,0,1-.917-.917v-4.584h-4.584a.917.917,0,0,1,0-1.833h5.5a.917.917,0,0,1,.917.917v5.5A.917.917,0,0,1,334.417,255.334Zm0,0" transform="translate(-290.414 -219.581)" fill="#e33e5c"/>
      <g id="Grupo_1144418" data-name="Grupo 1144418" transform="translate(16.501 3.667)">
        <path id="Trazado_981135" data-name="Trazado 981135" d="M144,32h1.833v1.833H144Zm0,0" transform="translate(-144 -32)" fill="#eb8cb3"/>
        <path id="Trazado_981136" data-name="Trazado 981136" d="M144,200h3.667v1.833H144Zm0,0" transform="translate(-144 -180.749)" fill="#eb8cb3"/>
        <path id="Trazado_981137" data-name="Trazado 981137" d="M144,232h5.5v1.833H144Zm0,0" transform="translate(-144 -209.082)" fill="#eb8cb3"/>
      </g>
      <path id="Trazado_981138" data-name="Trazado 981138" d="M59.667,232.5H56V216h3.667Zm0,0" transform="translate(-49.583 -191.248)" fill="#195c85"/>
      <path id="Trazado_981139" data-name="Trazado 981139" d="M59.667,187.667H56V184h3.667Zm0,0" transform="translate(-49.583 -162.915)" fill="#32b1cc"/>
      <path id="Trazado_981140" data-name="Trazado 981140" d="M59.667,141.5,57.833,136,56,141.5Zm0,0" transform="translate(-49.583 -120.416)" fill="#db527d"/>
      <path id="Trazado_981141" data-name="Trazado 981141" d="M52.254,11H49.5V8.251a.917.917,0,0,0-.269-.648L41.9.269A.917.917,0,0,0,41.253,0h-27.5a.917.917,0,0,0-.917.917V11H2.75A2.75,2.75,0,0,0,0,13.751V43.086a2.75,2.75,0,0,0,2.75,2.75H21.206L18.761,49.5H11.918V55H43.086V49.5H36.243L33.8,45.837H52.254A2.75,2.75,0,0,0,55,43.086V13.751A2.75,2.75,0,0,0,52.254,11Zm0,1.833a.917.917,0,0,1,.917.917V40.336H49.5v-27.5ZM42.17,3.13l4.2,4.2h-4.2Zm-27.5-1.3H40.336V8.251a.917.917,0,0,0,.917.917H47.67V40.336h-33Zm-11.917,11H12.834v27.5H11V21.085a1.67,1.67,0,0,0-.047-.29l-1.833-5.5a.917.917,0,0,0-1.742,0L5.544,20.8a1.623,1.623,0,0,0-.044.29V40.336H1.833V13.751A.917.917,0,0,1,2.75,12.834ZM7.334,22H9.167v1.833H7.334Zm.355-1.833.562-1.685.562,1.685Zm-.355,5.5H9.167V40.336H7.334Zm33.919,27.5h-27.5V51.337h27.5ZM34.04,49.5H20.964l2.445-3.667H31.6Zm19.13-6.417a.917.917,0,0,1-.917.917H2.75a.917.917,0,0,1-.917-.917V42.17H53.17Zm0,0" transform="translate(0 0)"/>
      <path id="Trazado_981142" data-name="Trazado 981142" d="M184.917,74.084A.917.917,0,0,0,184,75a11,11,0,1,0,11-11,.917.917,0,0,0-.917.917v9.167ZM195,84.168a9.18,9.18,0,0,1-9.122-8.251h18.243A9.18,9.18,0,0,1,195,84.168Zm.917-18.289a9.182,9.182,0,0,1,8.2,8.2h-8.2Zm0,0" transform="translate(-162.915 -56.666)"/>
      <path id="Trazado_981143" data-name="Trazado 981143" d="M168.917,58.084h8.251a.917.917,0,0,0,.917-.917V48.917a.917.917,0,0,0-.917-.917A9.177,9.177,0,0,0,168,57.167.917.917,0,0,0,168.917,58.084Zm7.334-8.194v6.36h-6.36A7.352,7.352,0,0,1,176.251,49.89Zm0,0" transform="translate(-148.749 -42.5)"/>
      <path id="Trazado_981144" data-name="Trazado 981144" d="M171.5,248H166a.917.917,0,0,0,0,1.833h3.089l-5.8,5.157-3.972-3.972a.917.917,0,0,0-1.3,0l-4.852,4.852-4.852-4.852a.917.917,0,0,0-1.157-.115l-2.75,1.833a.917.917,0,0,0,1.018,1.526l2.125-1.416,4.969,4.969a.917.917,0,0,0,1.3,0l4.852-4.852L162.6,256.9a.917.917,0,0,0,1.257.038l6.725-5.978v3.459a.917.917,0,0,0,1.833,0v-5.5A.917.917,0,0,0,171.5,248Zm0,0" transform="translate(-127.496 -219.581)"/>
      <path id="Trazado_981145" data-name="Trazado 981145" d="M144,32h1.833v1.833H144Zm0,0" transform="translate(-127.499 -28.333)"/>
      <path id="Trazado_981146" data-name="Trazado 981146" d="M144,200h3.667v1.833H144Zm0,0" transform="translate(-127.499 -177.082)"/>
      <path id="Trazado_981147" data-name="Trazado 981147" d="M144,232h5.5v1.833H144Zm0,0" transform="translate(-127.499 -205.415)"/>
    </g>
  </g>
</svg>
