<svg xmlns="http://www.w3.org/2000/svg" xmlns:xlink="http://www.w3.org/1999/xlink" width="108" height="108" viewBox="0 0 108 108">
  <defs>
    <filter id="Trazado_904820" x="0" y="0" width="108" height="108" filterUnits="userSpaceOnUse">
      <feOffset dy="3" input="SourceAlpha"/>
      <feGaussianBlur stdDeviation="3" result="blur"/>
      <feFlood flood-opacity="0.161"/>
      <feComposite operator="in" in2="blur"/>
      <feComposite in="SourceGraphic"/>
    </filter>
  </defs>
  <g id="Grupo_1144448" data-name="Grupo 1144448" transform="translate(-202.73 -2860)">
    <g id="Icono" transform="translate(211.73 2866)">
      <g transform="matrix(1, 0, 0, 1, -9, -6)" filter="url(#Trazado_904820)">
        <g id="Trazado_904820-2" data-name="Trazado 904820" transform="translate(9 6)" fill="#ecf4fa">
          <path d="M 45 88.5 C 39.12687683105469 88.5 33.43022537231445 87.35007476806641 28.06830024719238 85.08217620849609 C 22.88852500915527 82.89131164550781 18.23629951477051 79.75458526611328 14.2408504486084 75.75914764404297 C 10.24541282653809 71.76370239257812 7.108687400817871 67.11147308349609 4.917825222015381 61.93170166015625 C 2.649924993515015 56.56977462768555 1.5 50.87312316894531 1.5 45 C 1.5 39.12687683105469 2.649924993515015 33.43022537231445 4.917825222015381 28.06830024719238 C 7.108687400817871 22.88852500915527 10.24541282653809 18.23629951477051 14.2408504486084 14.2408504486084 C 18.23629951477051 10.24541282653809 22.88852500915527 7.108687400817871 28.06830024719238 4.917825222015381 C 33.43022537231445 2.649924993515015 39.12687683105469 1.5 45 1.5 C 50.87312316894531 1.5 56.56977462768555 2.649924993515015 61.93170166015625 4.917825222015381 C 67.11147308349609 7.108687400817871 71.76370239257812 10.24541282653809 75.75914764404297 14.2408504486084 C 79.75458526611328 18.23629951477051 82.89131164550781 22.88852500915527 85.08217620849609 28.06830024719238 C 87.35007476806641 33.43022537231445 88.5 39.12687683105469 88.5 45 C 88.5 50.87312316894531 87.35007476806641 56.56977462768555 85.08217620849609 61.93170166015625 C 82.89131164550781 67.11147308349609 79.75458526611328 71.76370239257812 75.75914764404297 75.75914764404297 C 71.76370239257812 79.75458526611328 67.11147308349609 82.89131164550781 61.93170166015625 85.08217620849609 C 56.56977462768555 87.35007476806641 50.87312316894531 88.5 45 88.5 Z" stroke="none"/>
          <path d="M 45 3 C 39.32871246337891 3 33.82865524291992 4.110054016113281 28.65262985229492 6.299339294433594 C 23.65165710449219 8.414573669433594 19.15968322753906 11.44334411621094 15.301513671875 15.301513671875 C 11.44334411621094 19.15968322753906 8.414573669433594 23.65165710449219 6.299339294433594 28.65262985229492 C 4.110054016113281 33.82865524291992 3 39.32871246337891 3 45 C 3 50.67128753662109 4.110054016113281 56.17134475708008 6.299339294433594 61.34737396240234 C 8.414573669433594 66.34834289550781 11.44334411621094 70.84031677246094 15.301513671875 74.698486328125 C 19.15968322753906 78.55665588378906 23.65165710449219 81.58542633056641 28.65262985229492 83.70066070556641 C 33.82865524291992 85.88994598388672 39.32871246337891 87 45 87 C 50.67128753662109 87 56.17134475708008 85.88994598388672 61.34737396240234 83.70066070556641 C 66.34834289550781 81.58542633056641 70.84031677246094 78.55665588378906 74.698486328125 74.698486328125 C 78.55665588378906 70.84031677246094 81.58542633056641 66.34834289550781 83.70066070556641 61.34737396240234 C 85.88994598388672 56.17134475708008 87 50.67128753662109 87 45 C 87 39.32871246337891 85.88994598388672 33.82865524291992 83.70066070556641 28.65262985229492 C 81.58542633056641 23.65165710449219 78.55665588378906 19.15968322753906 74.698486328125 15.301513671875 C 70.84031677246094 11.44334411621094 66.34834289550781 8.414573669433594 61.34737396240234 6.299339294433594 C 56.17134475708008 4.110054016113281 50.67128753662109 3 45 3 M 45 0 C 69.85281372070312 0 90 20.14718627929688 90 45 C 90 69.85281372070312 69.85281372070312 90 45 90 C 20.14718627929688 90 0 69.85281372070312 0 45 C 0 20.14718627929688 20.14718627929688 0 45 0 Z" stroke="none" fill="#2a5673"/>
        </g>
      </g>
    </g>
    <g id="detalles" transform="translate(193.616 2882.373)">
      <g id="Grupo_1144445" data-name="Grupo 1144445" transform="translate(39.667 0.839)">
        <path id="Trazado_981229" data-name="Trazado 981229" d="M122.981,60.634l1.789-9.046,8.856-1.537L132.368,7.5H92.922V59.1Z" transform="translate(-87.712 -7.5)" fill="#eaf6ff"/>
        <path id="Trazado_981230" data-name="Trazado 981230" d="M133.485,7.5h-1.118V49.157a.559.559,0,0,1-.559.559h-5.473a3.355,3.355,0,0,0-3.355,3.355v5.473a.559.559,0,0,1-.559.559h-29.5V61.34h32.3l9.387-9.387V8.618A1.118,1.118,0,0,0,133.485,7.5Z" transform="translate(-87.711 -7.5)" fill="#c4e2ff"/>
        <path id="Trazado_981231" data-name="Trazado 981231" d="M124.785,231.548c8.486-.084,16.757-13.912,4.072-21.427a11.741,11.741,0,0,0-4.149-.714,11.934,11.934,0,0,0-11.656,11.64,11.707,11.707,0,0,0,1.819,6.405.559.559,0,0,1-.11.727l-3.982,3.369L113,235.7l4.4-6.023Z" transform="translate(-103.571 -186.828)" fill="#918291"/>
        <path id="Trazado_981232" data-name="Trazado 981232" d="M146.5,215.8c11.082,8.052,4.538,20.707-3.947,20.791h-.1a9.714,9.714,0,0,1-5.166-1.48,2.727,2.727,0,0,0-.825-.359,2.573,2.573,0,0,0-2.558.841l-3.261,3.854,1.428,1.428,3.369-3.982a.559.559,0,0,1,.727-.11,11.707,11.707,0,0,0,6.405,1.819,11.934,11.934,0,0,0,11.64-11.656A11.764,11.764,0,0,0,146.5,215.8Z" transform="translate(-121.215 -192.504)" fill="#7a6d79"/>
        <path id="Trazado_981233" data-name="Trazado 981233" d="M54.079,412.777l3.2,4.664,5.365-7.807-2.221-2.221Z" transform="translate(-53.212 -362.692)" fill="#60b7ff"/>
        <path id="Trazado_981234" data-name="Trazado 981234" d="M49.962,433.189l-2.767-2.767-.364.308a1.42,1.42,0,0,0-.087,2.088l2.68,2.68a1.42,1.42,0,0,0,2.088-.087l5.673-6.7-1.428-1.428-4.972,5.876A.559.559,0,0,1,49.962,433.189Z" transform="translate(-46.328 -380.337)" fill="#26a6fe"/>
        <path id="Trazado_981235" data-name="Trazado 981235" d="M188.859,255.675a8.214,8.214,0,0,1-11.494,11.494,8.214,8.214,0,1,0,11.494-11.494Z" transform="translate(-162.712 -227.923)" fill="#26a6fe"/>
        <path id="Trazado_981236" data-name="Trazado 981236" d="M177.561,247.658a8.214,8.214,0,1,0-8.213,8.213A8.177,8.177,0,0,0,177.561,247.658Z" transform="translate(-149.786 -214.997)" fill="#60b7ff"/>
        <path id="Trazado_981237" data-name="Trazado 981237" d="M381.73,414.414H390a1.118,1.118,0,0,0,1.118-1.118v-8.268Z" transform="translate(-344.224 -360.574)" fill="#d8ecfe"/>
        <path id="Trazado_981238" data-name="Trazado 981238" d="M381.73,414.414v-8.268a1.118,1.118,0,0,1,1.118-1.118h8.268Z" transform="translate(-344.224 -360.574)" fill="#fff"/>
        <path id="Trazado_981239" data-name="Trazado 981239" d="M170.218,59.3H140.074a.559.559,0,0,1-.559-.559V54.653a.559.559,0,0,1,.559-.559h30.143a.559.559,0,0,1,.559.559v4.092A.559.559,0,0,1,170.218,59.3Z" transform="translate(-129.094 -48.884)" fill="#5de1c4"/>
      </g>
      <g id="Grupo_1144447" data-name="Grupo 1144447" transform="translate(38.829)">
        <g id="Grupo_1144446" data-name="Grupo 1144446" transform="translate(0)">
          <path id="Trazado_981240" data-name="Trazado 981240" d="M164.364,251.726a9.052,9.052,0,1,0-5.387-16.326.839.839,0,0,0,1,1.347,7.362,7.362,0,1,1-2.247,2.705.839.839,0,0,0-1.508-.734,8.966,8.966,0,0,0-.908,3.956A9.062,9.062,0,0,0,164.364,251.726Z" transform="translate(-142.286 -207.497)"/>
          <path id="Trazado_981241" data-name="Trazado 981241" d="M164.954,52.084V47.992a1.4,1.4,0,0,0-1.4-1.4H140.862a.839.839,0,1,0,0,1.677h22.415V51.8H133.692V48.271h3.255a.839.839,0,1,0,0-1.677h-3.535a1.4,1.4,0,0,0-1.4,1.4v4.092a1.4,1.4,0,0,0,1.4,1.4h30.143A1.4,1.4,0,0,0,164.954,52.084Z" transform="translate(-121.595 -41.384)"/>
          <path id="Trazado_981242" data-name="Trazado 981242" d="M213.228,298.933a.839.839,0,0,0,.839.839h.9v4.372a.839.839,0,0,0,.839.839h1.737a.839.839,0,0,0,0-1.677h-.9v-4.372a.839.839,0,0,0-.839-.839h-1.737A.839.839,0,0,0,213.228,298.933Z" transform="translate(-193.726 -264.76)"/>
          <circle id="Elipse_11853" data-name="Elipse 11853" cx="0.839" cy="0.839" r="0.839" transform="translate(21.239 29.86)"/>
          <path id="Trazado_981243" data-name="Trazado 981243" d="M217.557,139.781H194.979a.839.839,0,0,0,0,1.677h22.578a.839.839,0,0,0,0-1.677Z" transform="translate(-176.772 -124.15)"/>
          <path id="Trazado_981244" data-name="Trazado 981244" d="M176.173,170.844H148.385a.839.839,0,1,0,0,1.677h27.788a.839.839,0,0,0,0-1.677Z" transform="translate(-135.389 -151.74)"/>
          <path id="Trazado_981245" data-name="Trazado 981245" d="M86.56,30.042A.839.839,0,0,0,87.4,29.2V1.957A1.959,1.959,0,0,0,85.442,0H46a1.959,1.959,0,0,0-1.957,1.957v44.9l-4.411,3.732a2.258,2.258,0,0,0-.138,3.321l2.68,2.68a2.265,2.265,0,0,0,1.6.662l.093,0a2.264,2.264,0,0,0,1.63-.8l.793-.937H85.442A1.959,1.959,0,0,0,87.4,53.56V33.117a.839.839,0,1,0-1.677,0V44.453h-7.43a1.959,1.959,0,0,0-1.957,1.957v7.43H47.7l6.674-7.887a12.555,12.555,0,0,0,6.53,1.822h.127A12.773,12.773,0,0,0,73.5,35.286q0-.306-.009-.61H76.14a.839.839,0,1,0,0-1.677H73.319a12.479,12.479,0,0,0-.45-1.8h6.744a.839.839,0,0,0,0-1.677H72.174a12.5,12.5,0,0,0-1.1-1.8h8.542a.839.839,0,0,0,0-1.677H69.593a12.649,12.649,0,0,0-2.394-1.8h7.2a.839.839,0,1,0,0-1.677H51.825a.839.839,0,1,0,0,1.677h2.892a13.057,13.057,0,0,0-2.664,2.055A12.463,12.463,0,0,0,50.13,41.705L45.716,45.44V1.957a.28.28,0,0,1,.28-.28H85.442a.28.28,0,0,1,.28.28V29.2a.839.839,0,0,0,.839.839ZM85.721,53.56a.28.28,0,0,1-.28.28H79.2l6.523-6.523Zm-7.43-7.43h6.244l-6.523,6.523V46.41A.28.28,0,0,1,78.292,46.13Zm-34.5,9.446a.575.575,0,0,1-.435-.17l-2.68-2.68a.581.581,0,0,1,.035-.854L46.827,46.7l2.558,2.558-5.174,6.115A.576.576,0,0,1,43.792,55.576Zm7.883-14.562a10.884,10.884,0,0,1-1.689-5.948,11.109,11.109,0,0,1,10.825-10.81A10.915,10.915,0,0,1,71.827,35.272,11.109,11.109,0,0,1,61.017,46.1a10.87,10.87,0,0,1-5.948-1.689,1.4,1.4,0,0,0-1.816.276l-2.781,3.286L48.112,45.61,51.4,42.83a1.4,1.4,0,0,0,.276-1.816Z" transform="translate(-38.829)"/>
        </g>
      </g>
    </g>
  </g>
</svg>
