<svg xmlns="http://www.w3.org/2000/svg" xmlns:xlink="http://www.w3.org/1999/xlink" width="108" height="108" viewBox="0 0 108 108">
  <defs>
    <filter id="Trazado_904820" x="0" y="0" width="108" height="108" filterUnits="userSpaceOnUse">
      <feOffset dy="3" input="SourceAlpha"/>
      <feGaussianBlur stdDeviation="3" result="blur"/>
      <feFlood flood-opacity="0.161"/>
      <feComposite operator="in" in2="blur"/>
      <feComposite in="SourceGraphic"/>
    </filter>
  </defs>
  <g id="Icono" transform="translate(-615.101 6)">
    <g transform="matrix(1, 0, 0, 1, 615.1, -6)" filter="url(#Trazado_904820)">
      <g id="Trazado_904820-2" data-name="Trazado 904820" transform="translate(9 6)" fill="#ecf4fa">
        <path d="M 45 88.5 C 39.12687683105469 88.5 33.43022537231445 87.35007476806641 28.06830024719238 85.08217620849609 C 22.88852500915527 82.89131164550781 18.23629951477051 79.75458526611328 14.2408504486084 75.75914764404297 C 10.24541282653809 71.76370239257812 7.108687400817871 67.11147308349609 4.917825222015381 61.93170166015625 C 2.649924993515015 56.56977462768555 1.5 50.87312316894531 1.5 45 C 1.5 39.12687683105469 2.649924993515015 33.43022537231445 4.917825222015381 28.06830024719238 C 7.108687400817871 22.88852500915527 10.24541282653809 18.23629951477051 14.2408504486084 14.2408504486084 C 18.23629951477051 10.24541282653809 22.88852500915527 7.108687400817871 28.06830024719238 4.917825222015381 C 33.43022537231445 2.649924993515015 39.12687683105469 1.5 45 1.5 C 50.87312316894531 1.5 56.56977462768555 2.649924993515015 61.93170166015625 4.917825222015381 C 67.11147308349609 7.108687400817871 71.76370239257812 10.24541282653809 75.75914764404297 14.2408504486084 C 79.75458526611328 18.23629951477051 82.89131164550781 22.88852500915527 85.08217620849609 28.06830024719238 C 87.35007476806641 33.43022537231445 88.5 39.12687683105469 88.5 45 C 88.5 50.87312316894531 87.35007476806641 56.56977462768555 85.08217620849609 61.93170166015625 C 82.89131164550781 67.11147308349609 79.75458526611328 71.76370239257812 75.75914764404297 75.75914764404297 C 71.76370239257812 79.75458526611328 67.11147308349609 82.89131164550781 61.93170166015625 85.08217620849609 C 56.56977462768555 87.35007476806641 50.87312316894531 88.5 45 88.5 Z" stroke="none"/>
        <path d="M 45 3 C 39.32871246337891 3 33.82865524291992 4.110054016113281 28.65262985229492 6.299339294433594 C 23.65165710449219 8.414573669433594 19.15968322753906 11.44334411621094 15.301513671875 15.301513671875 C 11.44334411621094 19.15968322753906 8.414573669433594 23.65165710449219 6.299339294433594 28.65262985229492 C 4.110054016113281 33.82865524291992 3 39.32871246337891 3 45 C 3 50.67128753662109 4.110054016113281 56.17134475708008 6.299339294433594 61.34737396240234 C 8.414573669433594 66.34834289550781 11.44334411621094 70.84031677246094 15.301513671875 74.698486328125 C 19.15968322753906 78.55665588378906 23.65165710449219 81.58542633056641 28.65262985229492 83.70066070556641 C 33.82865524291992 85.88994598388672 39.32871246337891 87 45 87 C 50.67128753662109 87 56.17134475708008 85.88994598388672 61.34737396240234 83.70066070556641 C 66.34834289550781 81.58542633056641 70.84031677246094 78.55665588378906 74.698486328125 74.698486328125 C 78.55665588378906 70.84031677246094 81.58542633056641 66.34834289550781 83.70066070556641 61.34737396240234 C 85.88994598388672 56.17134475708008 87 50.67128753662109 87 45 C 87 39.32871246337891 85.88994598388672 33.82865524291992 83.70066070556641 28.65262985229492 C 81.58542633056641 23.65165710449219 78.55665588378906 19.15968322753906 74.698486328125 15.301513671875 C 70.84031677246094 11.44334411621094 66.34834289550781 8.414573669433594 61.34737396240234 6.299339294433594 C 56.17134475708008 4.110054016113281 50.67128753662109 3 45 3 M 45 0 C 69.85281372070312 0 90 20.14718627929688 90 45 C 90 69.85281372070312 69.85281372070312 90 45 90 C 20.14718627929688 90 0 69.85281372070312 0 45 C 0 20.14718627929688 20.14718627929688 0 45 0 Z" stroke="none" fill="#2a5673"/>
      </g>
    </g>
    <g id="server_2777212" transform="translate(617.775 5.79)">
      <g id="Grupo_1144419" data-name="Grupo 1144419" transform="translate(24.942 9.061)">
        <path id="Trazado_981148" data-name="Trazado 981148" d="M77.228,163.378v6.987a2.827,2.827,0,0,1-2.827,2.827H34.827A2.827,2.827,0,0,1,32,170.365v-7.538A2.827,2.827,0,0,1,34.827,160H66.407" transform="translate(-32 -143.158)" fill="#57565c"/>
        <circle id="Elipse_11841" data-name="Elipse 11841" cx="1.5" cy="1.5" r="1.5" transform="translate(3.384 22.149)" fill="#91cc04"/>
        <ellipse id="Elipse_11842" data-name="Elipse 11842" cx="2" cy="1.5" rx="2" ry="1.5" transform="translate(9.384 22.149)" fill="#ffda44"/>
        <ellipse id="Elipse_11843" data-name="Elipse 11843" cx="2" cy="1.5" rx="2" ry="1.5" transform="translate(16.384 22.149)" fill="#ff9811"/>
        <rect id="Rect치ngulo_405735" data-name="Rect치ngulo 405735" width="44" height="13" rx="3" transform="translate(0.384 30.149)" fill="#787680"/>
        <ellipse id="Elipse_11844" data-name="Elipse 11844" cx="1.5" cy="2" rx="1.5" ry="2" transform="translate(3.384 34.149)" fill="#91cc04"/>
        <circle id="Elipse_11845" data-name="Elipse 11845" cx="2" cy="2" r="2" transform="translate(9.384 34.149)" fill="#ffda44"/>
        <circle id="Elipse_11846" data-name="Elipse 11846" cx="2" cy="2" r="2" transform="translate(16.384 34.149)" fill="#ff9811"/>
        <rect id="Rect치ngulo_405736" data-name="Rect치ngulo 405736" width="44" height="13" rx="1" transform="translate(0.384 43.149)" fill="#898890"/>
        <circle id="Elipse_11847" data-name="Elipse 11847" cx="1.5" cy="1.5" r="1.5" transform="translate(3.384 48.149)" fill="#91cc04"/>
        <ellipse id="Elipse_11848" data-name="Elipse 11848" cx="2" cy="1.5" rx="2" ry="1.5" transform="translate(9.384 48.149)" fill="#ffda44"/>
        <ellipse id="Elipse_11849" data-name="Elipse 11849" cx="2" cy="1.5" rx="2" ry="1.5" transform="translate(16.384 48.149)" fill="#ff9811"/>
        <ellipse id="Elipse_11850" data-name="Elipse 11850" cx="10" cy="10.5" rx="10" ry="10.5" transform="translate(32.384 0.149)" fill="#e0e0e2"/>
        <path id="Trazado_981149" data-name="Trazado 981149" d="M343.658,44l2.215,4.018,4.506.865-3.136,3.349.569,4.552-4.154-1.948L339.5,56.784l.569-4.552-3.136-3.349,4.506-.865Z" transform="translate(-301.021 -40.82)" fill="#ffda44"/>
      </g>
      <g id="Grupo_1144420" data-name="Grupo 1144420" transform="translate(24 8)">
        <path id="Trazado_981150" data-name="Trazado 981150" d="M67.343,8a11.3,11.3,0,0,0-9.789,16.96H27.769A3.773,3.773,0,0,0,24,28.729v7.538a3.76,3.76,0,0,0,1.281,2.827A3.76,3.76,0,0,0,24,41.921v7.538a3.76,3.76,0,0,0,1.281,2.827A3.76,3.76,0,0,0,24,55.112V62.65a3.773,3.773,0,0,0,3.769,3.769H67.343a3.772,3.772,0,0,0,3.769-3.769V55.112a3.76,3.76,0,0,0-1.281-2.827,3.76,3.76,0,0,0,1.281-2.826V41.921a3.76,3.76,0,0,0-1.281-2.827,3.76,3.76,0,0,0,1.281-2.826v-6.3A11.307,11.307,0,0,0,67.343,8Zm1.884,54.65a1.887,1.887,0,0,1-1.884,1.885H27.769a1.887,1.887,0,0,1-1.884-1.885V55.112a1.887,1.887,0,0,1,1.884-1.884H67.343a1.887,1.887,0,0,1,1.885,1.884Zm0-13.191a1.887,1.887,0,0,1-1.884,1.884H27.769a1.887,1.887,0,0,1-1.884-1.884V41.921a1.887,1.887,0,0,1,1.884-1.884H67.343a1.887,1.887,0,0,1,1.885,1.884Zm0-13.191a1.887,1.887,0,0,1-1.884,1.884H27.769a1.887,1.887,0,0,1-1.884-1.884V28.729a1.887,1.887,0,0,1,1.884-1.884H58.923a11.3,11.3,0,0,0,10.3,3.611Zm-1.884-7.538a9.422,9.422,0,1,1,9.422-9.422,9.422,9.422,0,0,1-9.422,9.422Z" transform="translate(-24 -8)"/>
        <path id="Trazado_981151" data-name="Trazado 981151" d="M50.827,192a2.827,2.827,0,1,0,2.827,2.827A2.827,2.827,0,0,0,50.827,192Zm0,3.769a.942.942,0,1,1,.942-.942A.942.942,0,0,1,50.827,195.769Z" transform="translate(-45.173 -170.328)"/>
        <path id="Trazado_981152" data-name="Trazado 981152" d="M106.827,192a2.827,2.827,0,1,0,2.827,2.827A2.827,2.827,0,0,0,106.827,192Zm0,3.769a.942.942,0,1,1,.942-.942A.942.942,0,0,1,106.827,195.769Z" transform="translate(-94.578 -170.328)"/>
        <path id="Trazado_981153" data-name="Trazado 981153" d="M162.827,192a2.827,2.827,0,1,0,2.827,2.827A2.827,2.827,0,0,0,162.827,192Zm0,3.769a.942.942,0,1,1,.942-.942A.942.942,0,0,1,162.827,195.769Z" transform="translate(-143.982 -170.328)"/>
        <path id="Trazado_981154" data-name="Trazado 981154" d="M288,200.942a.942.942,0,0,0,.942.942h11.307a.942.942,0,0,0,0-1.884H288.942A.942.942,0,0,0,288,200.942Z" transform="translate(-256.906 -177.386)"/>
        <path id="Trazado_981155" data-name="Trazado 981155" d="M349.654,224h-4.711a.942.942,0,1,0,0,1.884h4.711a.942.942,0,1,0,0-1.884Z" transform="translate(-306.31 -198.559)"/>
        <path id="Trazado_981156" data-name="Trazado 981156" d="M257.884,200h-.942a.942.942,0,0,0,0,1.884h.942a.942.942,0,0,0,0-1.884Z" transform="translate(-228.675 -177.386)"/>
        <path id="Trazado_981157" data-name="Trazado 981157" d="M48,306.827A2.827,2.827,0,1,0,50.827,304,2.827,2.827,0,0,0,48,306.827Zm2.827-.942a.942.942,0,1,1-.942.942A.942.942,0,0,1,50.827,305.884Z" transform="translate(-45.173 -269.137)"/>
        <path id="Trazado_981158" data-name="Trazado 981158" d="M106.827,309.653A2.827,2.827,0,1,0,104,306.827a2.827,2.827,0,0,0,2.827,2.827Zm0-3.769a.942.942,0,1,1-.942.942A.942.942,0,0,1,106.827,305.884Z" transform="translate(-94.578 -269.137)"/>
        <path id="Trazado_981159" data-name="Trazado 981159" d="M162.827,309.653A2.827,2.827,0,1,0,160,306.827a2.827,2.827,0,0,0,2.827,2.827Zm0-3.769a.942.942,0,1,1-.942.942.942.942,0,0,1,.942-.942Z" transform="translate(-143.982 -269.137)"/>
        <path id="Trazado_981160" data-name="Trazado 981160" d="M288.942,313.884h11.307a.942.942,0,0,0,0-1.884H288.942a.942.942,0,1,0,0,1.884Z" transform="translate(-256.906 -276.195)"/>
        <path id="Trazado_981161" data-name="Trazado 981161" d="M349.654,336h-4.711a.942.942,0,1,0,0,1.884h4.711a.942.942,0,1,0,0-1.884Z" transform="translate(-306.31 -297.368)"/>
        <path id="Trazado_981162" data-name="Trazado 981162" d="M256.942,313.884h.942a.942.942,0,0,0,0-1.884h-.942a.942.942,0,0,0,0,1.884Z" transform="translate(-228.675 -276.195)"/>
        <path id="Trazado_981163" data-name="Trazado 981163" d="M48,418.827A2.827,2.827,0,1,0,50.827,416,2.827,2.827,0,0,0,48,418.827Zm2.827-.942a.942.942,0,1,1-.942.942A.942.942,0,0,1,50.827,417.884Z" transform="translate(-45.173 -367.945)"/>
        <path id="Trazado_981164" data-name="Trazado 981164" d="M106.827,421.654A2.827,2.827,0,1,0,104,418.827,2.827,2.827,0,0,0,106.827,421.654Zm0-3.769a.942.942,0,1,1-.942.942A.942.942,0,0,1,106.827,417.884Z" transform="translate(-94.578 -367.945)"/>
        <path id="Trazado_981165" data-name="Trazado 981165" d="M162.827,421.654A2.827,2.827,0,1,0,160,418.827,2.827,2.827,0,0,0,162.827,421.654Zm0-3.769a.942.942,0,1,1-.942.942.942.942,0,0,1,.942-.942Z" transform="translate(-143.982 -367.945)"/>
        <path id="Trazado_981166" data-name="Trazado 981166" d="M288.942,425.884h11.307a.942.942,0,0,0,0-1.884H288.942a.942.942,0,1,0,0,1.884Z" transform="translate(-256.906 -375.003)"/>
        <path id="Trazado_981167" data-name="Trazado 981167" d="M349.654,448h-4.711a.942.942,0,1,0,0,1.884h4.711a.942.942,0,1,0,0-1.884Z" transform="translate(-306.31 -396.176)"/>
        <path id="Trazado_981168" data-name="Trazado 981168" d="M256.942,425.884h.942a.942.942,0,0,0,0-1.884h-.942a.942.942,0,0,0,0,1.884Z" transform="translate(-228.675 -375.003)"/>
        <path id="Trazado_981169" data-name="Trazado 981169" d="M344.215,41.53a.942.942,0,0,0-.718-.635l-4.072-.782-2-3.63a.942.942,0,0,0-1.651,0l-2,3.63L329.7,40.9a.942.942,0,0,0-.51,1.57l2.834,3.026-.515,4.114a.942.942,0,0,0,1.336.969l3.754-1.76,3.754,1.76a.942.942,0,0,0,1.336-.969l-.515-4.114,2.834-3.026A.943.943,0,0,0,344.215,41.53Zm-4.721,3a.94.94,0,0,0-.246.761l.357,2.857L337,46.921a.94.94,0,0,0-.8,0l-2.607,1.223.357-2.857a.94.94,0,0,0-.246-.761l-1.969-2.1,2.828-.543a.943.943,0,0,0,.648-.471l1.39-2.521,1.39,2.521a.943.943,0,0,0,.648.471l2.828.543Z" transform="translate(-293.019 -32.698)"/>
        <path id="Trazado_981170" data-name="Trazado 981170" d="M436.711,176a.942.942,0,0,0-.942.942v29.21h-2.827a.942.942,0,1,0,0,1.885h3.769a.942.942,0,0,0,.942-.942V176.942A.942.942,0,0,0,436.711,176Z" transform="translate(-383.945 -156.213)"/>
        <path id="Trazado_981171" data-name="Trazado 981171" d="M88.942,73.422a.942.942,0,0,0,.942-.942v-6.6h20.729a.942.942,0,1,0,0-1.884H88.942a.942.942,0,0,0-.942.942V72.48A.942.942,0,0,0,88.942,73.422Z" transform="translate(-80.462 -57.404)"/>
      </g>
    </g>
  </g>
</svg>
