<svg xmlns="http://www.w3.org/2000/svg" xmlns:xlink="http://www.w3.org/1999/xlink" width="1075.148" height="603.204" viewBox="0 0 1075.148 603.204">
  <defs>
    <clipPath id="clip-path">
      <rect id="Rectángulo_405647" data-name="Rectángulo 405647" width="115.593" height="31.553" fill="none"/>
    </clipPath>
    <filter id="Trazado_980793" x="805.853" y="189.396" width="118.733" height="118.733" filterUnits="userSpaceOnUse">
      <feOffset dy="3" input="SourceAlpha"/>
      <feGaussianBlur stdDeviation="3" result="blur"/>
      <feFlood flood-opacity="0.161"/>
      <feComposite operator="in" in2="blur"/>
      <feComposite in="SourceGraphic"/>
    </filter>
    <clipPath id="clip-path-2">
      <rect id="Rectángulo_405649" data-name="Rectángulo 405649" width="31.553" height="115.593" fill="none"/>
    </clipPath>
    <clipPath id="clip-path-3">
      <rect id="Rectángulo_405650" data-name="Rectángulo 405650" width="31.552" height="115.593" fill="none"/>
    </clipPath>
    <clipPath id="clip-path-7">
      <rect id="Rectángulo_405652" data-name="Rectángulo 405652" width="420.147" height="420.147" fill="none"/>
    </clipPath>
    <filter id="Trazado_980793-2" x="150.853" y="189.397" width="118.733" height="118.733" filterUnits="userSpaceOnUse">
      <feOffset dy="3" input="SourceAlpha"/>
      <feGaussianBlur stdDeviation="3" result="blur-2"/>
      <feFlood flood-opacity="0.161"/>
      <feComposite operator="in" in2="blur-2"/>
      <feComposite in="SourceGraphic"/>
    </filter>
  </defs>
  <g id="Grupo_1144466" data-name="Grupo 1144466" transform="translate(-268 -2541.5)">
    <g id="Grupo_1144297" data-name="Grupo 1144297" transform="translate(-4 3.878)">
      <g id="Grupo_1144272" data-name="Grupo 1144272" transform="translate(1079.277 2572.92)" opacity="0.7">
        <g id="Grupo_1144271" data-name="Grupo 1144271">
          <g id="Grupo_1144270" data-name="Grupo 1144270" clip-path="url(#clip-path)">
            <path id="Trazado_980706" data-name="Trazado 980706" d="M375.514,2.025A2.024,2.024,0,1,1,373.489,0a2.024,2.024,0,0,1,2.025,2.025" transform="translate(-315.693)" fill="#0a62a5"/>
            <path id="Trazado_980707" data-name="Trazado 980707" d="M359.112,2.835a2.024,2.024,0,1,1-2.271-1.742,2.023,2.023,0,0,1,2.271,1.742" transform="translate(-308.485 -0.473)" fill="#0a62a5"/>
            <path id="Trazado_980708" data-name="Trazado 980708" d="M342.958,5.777a2.024,2.024,0,1,1-2.479-1.431,2.024,2.024,0,0,1,2.479,1.431" transform="translate(-301.401 -1.881)" fill="#0a62a5"/>
            <path id="Trazado_980709" data-name="Trazado 980709" d="M327.326,10.8a2.024,2.024,0,1,1-2.645-1.1,2.025,2.025,0,0,1,2.645,1.1" transform="translate(-294.562 -4.203)" fill="#0a62a5"/>
            <path id="Trazado_980710" data-name="Trazado 980710" d="M312.484,17.829a2.024,2.024,0,1,1-2.765-.741,2.024,2.024,0,0,1,2.765.741" transform="translate(-288.084 -7.398)" fill="#0a62a5"/>
            <path id="Trazado_980711" data-name="Trazado 980711" d="M298.685,26.73a2.024,2.024,0,1,1-2.839-.374,2.023,2.023,0,0,1,2.839.374" transform="translate(-282.078 -11.41)" fill="#0a62a5"/>
            <path id="Trazado_980712" data-name="Trazado 980712" d="M286.167,37.356a2.024,2.024,0,1,1-2.863,0,2.023,2.023,0,0,1,2.863,0" transform="translate(-276.648 -16.173)" fill="#0a62a5"/>
            <path id="Trazado_980713" data-name="Trazado 980713" d="M275.143,49.525a2.024,2.024,0,1,1-2.838.374,2.024,2.024,0,0,1,2.838-.374" transform="translate(-271.886 -21.603)" fill="#0a62a5"/>
            <path id="Trazado_980714" data-name="Trazado 980714" d="M286.167,37.356a2.024,2.024,0,1,1-2.863,0,2.023,2.023,0,0,1,2.863,0" transform="translate(-276.648 -16.173)" fill="#0a62a5"/>
            <path id="Trazado_980715" data-name="Trazado 980715" d="M275.143,49.525a2.024,2.024,0,1,1-2.838.374,2.024,2.024,0,0,1,2.838-.374" transform="translate(-271.886 -21.603)" fill="#0a62a5"/>
            <path id="Trazado_980716" data-name="Trazado 980716" d="M387.865,2.835a2.024,2.024,0,1,0,2.272-1.742,2.024,2.024,0,0,0-2.272,1.742" transform="translate(-322.9 -0.473)" fill="#0a62a5"/>
            <path id="Trazado_980717" data-name="Trazado 980717" d="M404.02,5.777A2.024,2.024,0,1,0,406.5,4.346a2.024,2.024,0,0,0-2.479,1.431" transform="translate(-329.984 -1.881)" fill="#0a62a5"/>
            <path id="Trazado_980718" data-name="Trazado 980718" d="M419.652,10.8a2.024,2.024,0,1,0,2.645-1.1,2.025,2.025,0,0,0-2.645,1.1" transform="translate(-336.824 -4.203)" fill="#0a62a5"/>
            <path id="Trazado_980719" data-name="Trazado 980719" d="M434.494,17.829a2.024,2.024,0,1,0,2.765-.741,2.023,2.023,0,0,0-2.765.741" transform="translate(-343.302 -7.398)" fill="#0a62a5"/>
            <path id="Trazado_980720" data-name="Trazado 980720" d="M448.293,26.73a2.024,2.024,0,1,0,2.838-.374,2.024,2.024,0,0,0-2.838.374" transform="translate(-349.308 -11.41)" fill="#0a62a5"/>
            <path id="Trazado_980721" data-name="Trazado 980721" d="M460.811,37.356a2.024,2.024,0,1,0,2.863,0,2.025,2.025,0,0,0-2.863,0" transform="translate(-354.738 -16.173)" fill="#0a62a5"/>
            <path id="Trazado_980722" data-name="Trazado 980722" d="M471.835,49.525a2.025,2.025,0,1,0,2.838.374,2.024,2.024,0,0,0-2.838-.374" transform="translate(-359.5 -21.603)" fill="#0a62a5"/>
          </g>
        </g>
      </g>
      <path id="Trazado_980704" data-name="Trazado 980704" d="M326.707,18.583A61.916,61.916,0,1,0,388.623,80.5a61.916,61.916,0,0,0-61.917-61.916m0,112.283A50.367,50.367,0,1,1,377.074,80.5a50.367,50.367,0,0,1-50.367,50.367" transform="translate(810.512 2564.745)" fill="#0a62a5"/>
      <path id="Trazado_980705" data-name="Trazado 980705" d="M285.412,89.571a50.367,50.367,0,1,1,50.367,50.367,50.367,50.367,0,0,1-50.367-50.367" transform="translate(801.441 2555.673)" fill="#0082d2"/>
      <g transform="matrix(1, 0, 0, 1, 272, 2537.62)" filter="url(#Trazado_980793)">
        <path id="Trazado_980793-3" data-name="Trazado 980793" d="M285.412,89.571a50.367,50.367,0,1,1,50.367,50.367,50.367,50.367,0,0,1-50.367-50.367" transform="translate(529.44 156.19)" fill="#0082d2"/>
      </g>
      <path id="Trazado_980742" data-name="Trazado 980742" d="M634.311,326.443a61.916,61.916,0,1,0-61.916,61.916,61.917,61.917,0,0,0,61.916-61.916m-112.283,0a50.367,50.367,0,1,1,50.367,50.367,50.367,50.367,0,0,1-50.367-50.367" transform="translate(702.429 2456.549)" fill="#008cb4"/>
      <path id="Trazado_980743" data-name="Trazado 980743" d="M581.467,285.147A50.367,50.367,0,1,1,531.1,335.514a50.367,50.367,0,0,1,50.367-50.367" transform="translate(693.357 2447.478)" fill="#00aae1"/>
      <g id="Grupo_1144278" data-name="Grupo 1144278" transform="translate(1315.594 2725.195)" opacity="0.7">
        <g id="Grupo_1144277" data-name="Grupo 1144277">
          <g id="Grupo_1144276" data-name="Grupo 1144276" clip-path="url(#clip-path-2)">
            <path id="Trazado_980744" data-name="Trazado 980744" d="M744.954,375.51a2.024,2.024,0,1,1,2.025-2.024,2.024,2.024,0,0,1-2.025,2.024" transform="translate(-715.426 -315.689)" fill="#008cb4"/>
            <path id="Trazado_980745" data-name="Trazado 980745" d="M744.145,359.109a2.024,2.024,0,1,1,1.742-2.272,2.025,2.025,0,0,1-1.742,2.272" transform="translate(-714.954 -308.482)" fill="#008cb4"/>
            <path id="Trazado_980746" data-name="Trazado 980746" d="M741.2,342.955a2.025,2.025,0,1,1,1.432-2.479,2.024,2.024,0,0,1-1.432,2.479" transform="translate(-713.545 -301.397)" fill="#008cb4"/>
            <path id="Trazado_980747" data-name="Trazado 980747" d="M736.174,327.323a2.025,2.025,0,1,1,1.1-2.645,2.025,2.025,0,0,1-1.1,2.645" transform="translate(-711.223 -294.558)" fill="#008cb4"/>
            <path id="Trazado_980748" data-name="Trazado 980748" d="M729.151,312.48a2.024,2.024,0,1,1,.741-2.765,2.023,2.023,0,0,1-.741,2.765" transform="translate(-708.029 -288.08)" fill="#008cb4"/>
            <path id="Trazado_980749" data-name="Trazado 980749" d="M720.249,298.682a2.024,2.024,0,1,1,.374-2.838,2.022,2.022,0,0,1-.374,2.838" transform="translate(-704.016 -282.075)" fill="#008cb4"/>
            <path id="Trazado_980750" data-name="Trazado 980750" d="M709.623,286.164a2.024,2.024,0,1,1,0-2.863,2.025,2.025,0,0,1,0,2.863" transform="translate(-699.253 -276.645)" fill="#008cb4"/>
            <path id="Trazado_980751" data-name="Trazado 980751" d="M697.454,275.139a2.024,2.024,0,1,1-.374-2.838,2.025,2.025,0,0,1,.374,2.838" transform="translate(-693.823 -271.882)" fill="#008cb4"/>
            <path id="Trazado_980752" data-name="Trazado 980752" d="M709.623,286.164a2.024,2.024,0,1,1,0-2.863,2.025,2.025,0,0,1,0,2.863" transform="translate(-699.253 -276.645)" fill="#008cb4"/>
            <path id="Trazado_980753" data-name="Trazado 980753" d="M697.454,275.139a2.024,2.024,0,1,1-.374-2.838,2.025,2.025,0,0,1,.374,2.838" transform="translate(-693.823 -271.882)" fill="#008cb4"/>
            <path id="Trazado_980754" data-name="Trazado 980754" d="M744.145,387.862a2.024,2.024,0,1,0,1.742,2.271,2.025,2.025,0,0,0-1.742-2.271" transform="translate(-714.954 -322.897)" fill="#008cb4"/>
            <path id="Trazado_980755" data-name="Trazado 980755" d="M741.2,404.016a2.024,2.024,0,1,0,1.432,2.479,2.024,2.024,0,0,0-1.432-2.479" transform="translate(-713.545 -329.98)" fill="#008cb4"/>
            <path id="Trazado_980756" data-name="Trazado 980756" d="M736.174,419.648a2.025,2.025,0,1,0,1.1,2.645,2.025,2.025,0,0,0-1.1-2.645" transform="translate(-711.223 -336.819)" fill="#008cb4"/>
            <path id="Trazado_980757" data-name="Trazado 980757" d="M729.151,434.491a2.024,2.024,0,1,0,.741,2.765,2.024,2.024,0,0,0-.741-2.765" transform="translate(-708.029 -343.298)" fill="#008cb4"/>
            <path id="Trazado_980758" data-name="Trazado 980758" d="M720.249,448.29a2.024,2.024,0,1,0,.374,2.837,2.024,2.024,0,0,0-.374-2.837" transform="translate(-704.016 -349.304)" fill="#008cb4"/>
            <path id="Trazado_980759" data-name="Trazado 980759" d="M709.623,460.808a2.025,2.025,0,1,0,0,2.863,2.026,2.026,0,0,0,0-2.863" transform="translate(-699.253 -354.734)" fill="#008cb4"/>
            <path id="Trazado_980760" data-name="Trazado 980760" d="M697.454,471.833a2.024,2.024,0,1,0-.374,2.838,2.024,2.024,0,0,0,.374-2.838" transform="translate(-693.823 -359.496)" fill="#008cb4"/>
          </g>
        </g>
      </g>
      <path id="Trazado_980780" data-name="Trazado 980780" d="M378.443,264.526h-3.1c1.041,0,2.075.028,3.1.078Z" transform="translate(761.879 2456.549)" fill="#1e415a"/>
      <path id="Trazado_980781" data-name="Trazado 980781" d="M375.34,485.563h3.1v-.079q-1.542.076-3.1.079" transform="translate(761.879 2359.345)" fill="#1e415a"/>
      <path id="Trazado_980782" data-name="Trazado 980782" d="M375.083,485.622h.144c-.048,0-.1,0-.144,0Z" transform="translate(761.992 2359.285)" fill="#1e415a"/>
      <path id="Trazado_980783" data-name="Trazado 980783" d="M375.083,264.53c.048,0,.1,0,.144,0h-.144Z" transform="translate(761.992 2456.549)" fill="#1e415a"/>
      <path id="Trazado_980784" data-name="Trazado 980784" d="M451.028,326.443a61.916,61.916,0,0,1,61.916-61.917H375.34a61.917,61.917,0,0,1,61.917,61.917v61.916h75.687a61.916,61.916,0,0,1-61.916-61.916" transform="translate(761.879 2456.549)" fill="#00aae1"/>
      <path id="Trazado_980787" data-name="Trazado 980787" d="M388.477,204.963V133.18a61.909,61.909,0,0,1-123.686-4.049V266.879a61.916,61.916,0,0,1,61.916-61.917Z" transform="translate(810.512 2516.112)" fill="#0082d2"/>
      <path id="Trazado_980788" data-name="Trazado 980788" d="M380.918,264.668c.35.017.7.053,1.045.076-.348-.023-.694-.059-1.045-.076" transform="translate(759.425 2456.486)" fill="#d5da23"/>
      <text id="Ventas" transform="translate(1111.889 2770.822)" fill="#fff" font-size="16" font-family="SegoeUI, Segoe UI" letter-spacing="0em"><tspan x="0" y="0">Ventas</tspan></text>
      <text id="Tiempo" transform="translate(1109.574 2634.82)" fill="#fff" font-size="16" font-family="SegoeUI, Segoe UI" letter-spacing="0em"><tspan x="0" y="0">Tiempo</tspan></text>
      <text id="Cliente" transform="translate(1244.664 2772)" fill="#fff" font-size="16" font-family="SegoeUI, Segoe UI" letter-spacing="0em"><tspan x="0" y="0">Cliente</tspan></text>
      <g id="Layer_2_16_" transform="translate(1124.078 2647.438)">
        <g id="Grupo_1144286" data-name="Grupo 1144286" transform="translate(0 0)">
          <path id="Trazado_980794" data-name="Trazado 980794" d="M254.167,423.186c-.214.053-.432.1-.648.14a1.042,1.042,0,0,0,.38,2.049c.258-.048.517-.1.772-.168a1.042,1.042,0,0,0-.5-2.022Z" transform="translate(-238.588 -399.67)" fill="#fff"/>
          <path id="Trazado_980795" data-name="Trazado 980795" d="M412.762,138.263a1.042,1.042,0,0,0,1.979-.655c-.082-.249-.174-.5-.271-.742a1.042,1.042,0,1,0-1.935.774C412.616,137.844,412.693,138.054,412.762,138.263Z" transform="translate(-389.476 -128.714)" fill="#fff"/>
          <path id="Trazado_980796" data-name="Trazado 980796" d="M321.953,394.084c-.184.121-.374.239-.565.349a1.042,1.042,0,1,0,1.041,1.805c.227-.131.453-.27.672-.415a1.042,1.042,0,0,0-1.149-1.739Z" transform="translate(-302.987 -372.055)" fill="#fff"/>
          <path id="Trazado_980797" data-name="Trazado 980797" d="M429.718,208.313a1.042,1.042,0,1,0-2.083.082c.009.22.011.443.006.663a1.042,1.042,0,1,0,2.084.046C429.73,208.841,429.728,208.575,429.718,208.313Z" transform="translate(-403.805 -195.854)" fill="#fff"/>
          <path id="Trazado_980798" data-name="Trazado 980798" d="M378.878,344.277a1.042,1.042,0,0,0-1.459.208c-.132.176-.272.35-.414.518a1.042,1.042,0,0,0,.118,1.469c.025.021.05.041.076.059a1.042,1.042,0,0,0,1.393-.177c.17-.2.336-.408.495-.619A1.042,1.042,0,0,0,378.878,344.277Z" transform="translate(-355.762 -324.99)" fill="#fff"/>
          <path id="Trazado_980799" data-name="Trazado 980799" d="M415.344,279.4a1.042,1.042,0,0,0-1.306.683c-.066.21-.139.421-.218.627a1.042,1.042,0,0,0,1.947.742c.094-.245.18-.5.259-.746A1.042,1.042,0,0,0,415.344,279.4Z" transform="translate(-390.696 -263.879)" fill="#fff"/>
          <path id="Trazado_980800" data-name="Trazado 980800" d="M11.033,25.354A10.76,10.76,0,0,1,8.361,24.5l-.03-.016c-.2-.094-.4-.195-.592-.3l0,0A11.117,11.117,0,0,1,6.7,23.539,10.874,10.874,0,0,1,6.744,5.727L6.782,5.7A10.893,10.893,0,0,1,18.99,5.6L18.176,6.78c-.226.327-.087.566.309.53l3.537-.317a.583.583,0,0,0,.527-.762L21.6,2.81c-.106-.384-.379-.43-.605-.1l-.816,1.179a12.869,12.869,0,0,0-9.43-2.005q-.5.087-.987.211H9.754L9.717,2.1A12.85,12.85,0,0,0,2.591,6.879c-.015.018-.03.035-.045.054-.059.08-.118.161-.175.243-.094.134-.187.27-.275.407-.011.016-.02.033-.029.05A12.847,12.847,0,0,0,.014,15.211c0,.009,0,.018,0,.027.012.261.032.526.061.787,0,.017.005.033.008.05.029.262.066.525.111.788A12.861,12.861,0,0,0,3.82,23.837l.013.014,0,0A13.131,13.131,0,0,0,5.5,25.243a12.849,12.849,0,0,0,5.167,2.162,1.042,1.042,0,0,0,.368-2.051Z" transform="translate(0 -1.688)" fill="#fff"/>
          <path id="Trazado_980801" data-name="Trazado 980801" d="M206.83,83.2a.843.843,0,0,0-.843.843v8.4l7.682,3.971a.843.843,0,0,0,.774-1.5l-6.771-3.5V84.041A.843.843,0,0,0,206.83,83.2Z" transform="translate(-194.509 -78.656)" fill="#fff"/>
        </g>
      </g>
      <path id="mujer" d="M92.374,25.028v2.785a.471.471,0,0,1-.943,0V25.028a3.92,3.92,0,0,0-3.923-3.923,2.894,2.894,0,0,1-2.49-1.4.471.471,0,0,1,.805-.49,1.958,1.958,0,0,0,1.685.946A4.863,4.863,0,0,1,92.374,25.028Zm-7.865-3.65-1.681,1.3L79.97,20.466a2.888,2.888,0,0,0,1.081-2.035,6.306,6.306,0,0,0,8.083-6.049c0-.037,0-3.3,0-3.337a.471.471,0,0,0-.47-.442,1.94,1.94,0,0,1-1.23-.227,2.145,2.145,0,0,1-.891-1.714.472.472,0,0,0-.744-.388,15.192,15.192,0,0,1-6.684,2.652.471.471,0,0,0,.065.938,15.51,15.51,0,0,0,3.34-.818,16.163,16.163,0,0,0,3.2-1.581,2.662,2.662,0,0,0,2.475,2.095v2.822a5.362,5.362,0,1,1-10.724,0V9.074a.471.471,0,0,0-.943,0v3.307a6.313,6.313,0,0,0,3.594,5.692V18.2a1.965,1.965,0,0,1-1.97,1.965,4.863,4.863,0,0,0-1.74.32l-.3-.242a5.758,5.758,0,0,1-1.207-7.7,6.512,6.512,0,0,0,1.1-3.622V6.364A5.427,5.427,0,0,1,81.414.943h2.828a5.427,5.427,0,0,1,5.421,5.421V8.917a6.479,6.479,0,0,0,1.091,3.614A5.758,5.758,0,0,1,90.709,19a.471.471,0,1,0,.776.535,6.7,6.7,0,0,0,.054-7.53,5.539,5.539,0,0,1-.932-3.09V6.364A6.371,6.371,0,0,0,84.243,0H81.414A6.371,6.371,0,0,0,75.05,6.364V8.917a5.572,5.572,0,0,1-.938,3.1,6.7,6.7,0,0,0,1.375,8.937,4.852,4.852,0,0,0-2.2,4.074v2.785a.471.471,0,0,0,.943,0V25.028a3.92,3.92,0,0,1,3.923-3.923,2.923,2.923,0,0,0,.917-.147l3.475,2.69a.471.471,0,0,0,.577,0l1.97-1.525a.471.471,0,0,0-.577-.745Z" transform="translate(1192.065 2784.255)" fill="#fff"/>
      <path id="Trazado_980805" data-name="Trazado 980805" d="M219.866,331.335a.669.669,0,1,0-.946,0A.67.67,0,0,0,219.866,331.335Zm0,0" transform="translate(914.57 2472.512)" fill="#fff"/>
      <path id="Trazado_980806" data-name="Trazado 980806" d="M188.449,7.354A7.354,7.354,0,1,0,195.8,0,7.363,7.363,0,0,0,188.449,7.354Zm13.371,0A6.017,6.017,0,1,1,195.8,1.337,6.024,6.024,0,0,1,201.82,7.354Zm0,0" transform="translate(942.821 2780.624)" fill="#fff"/>
      <path id="Trazado_980807" data-name="Trazado 980807" d="M8.2,232.162a.668.668,0,0,0,.944.006l3.241-3.193a2.02,2.02,0,0,0,.476-2.075l.7-.672a1.994,1.994,0,0,1,1.392-.562h8.888a5.986,5.986,0,0,0,4.2-1.705c.046-.045-.353.425,6.063-7.243a2.674,2.674,0,0,0-4.069-3.471L26.085,217.3a2.687,2.687,0,0,0-2.079-1H16.552a8.625,8.625,0,0,0-3.348-.669,8.271,8.271,0,0,0-7.539,4.275,2,2,0,0,0-1.788.554L.7,223.655a.669.669,0,0,0,0,.943Zm5-15.188a7.3,7.3,0,0,1,2.943.613.667.667,0,0,0,.268.056h7.592a1.337,1.337,0,1,1,0,2.674H18.552a.668.668,0,0,0,0,1.337h5.455a2.67,2.67,0,0,0,2.651-3.024c3.816-3.923,4.354-4.474,4.377-4.5a1.337,1.337,0,1,1,2.042,1.728l-6,7.169a4.655,4.655,0,0,1-3.24,1.3H14.952a3.324,3.324,0,0,0-2.321.937l-.568.548-5.238-5.237a6.9,6.9,0,0,1,6.378-3.6ZM4.823,221.41a.667.667,0,0,1,.828-.094c.116.071-.217-.232,5.791,5.767a.67.67,0,0,1,0,.942l-2.763,2.722-6.569-6.619Zm0,0" transform="translate(1118.2 2582.504)" fill="#fff"/>
      <path id="Trazado_980808" data-name="Trazado 980808" d="M267.167,40.657v.783a2.006,2.006,0,0,0,.669,3.9.668.668,0,0,1,0,1.337,1.209,1.209,0,0,1-.868-.506.669.669,0,0,0-1.023.86,2.773,2.773,0,0,0,1.223.871v.78a.668.668,0,0,0,1.337,0V47.9a2.006,2.006,0,0,0-.668-3.9.669.669,0,0,1,0-1.337,1.073,1.073,0,0,1,.723.35.669.669,0,1,0,.93-.961,2.583,2.583,0,0,0-.985-.615v-.779a.668.668,0,1,0-1.337,0Zm0,0" transform="translate(870.655 2743.31)" fill="#fff"/>
      <rect id="Rectángulo_405653" data-name="Rectángulo 405653" width="215" height="124" transform="translate(860 2721)" fill="#00d7e1"/>
      <rect id="Rectángulo_405654" data-name="Rectángulo 405654" width="173.21" height="124" transform="translate(1075.157 3068.501) rotate(-90)" fill="#00d2aa"/>
      <g id="Grupo_1144293" data-name="Grupo 1144293" transform="translate(70.325)">
        <path id="Trazado_980761" data-name="Trazado 980761" d="M18.582,326.443A61.916,61.916,0,1,0,80.5,264.526a61.916,61.916,0,0,0-61.916,61.917m112.283,0A50.367,50.367,0,1,1,80.5,276.075a50.367,50.367,0,0,1,50.367,50.367" transform="translate(705.825 2456.549)" fill="#00aab4"/>
        <path id="Trazado_980762" data-name="Trazado 980762" d="M89.57,385.881a50.367,50.367,0,1,1,50.367-50.367A50.367,50.367,0,0,1,89.57,385.881" transform="translate(696.754 2447.477)" fill="#00d7e1"/>
        <g id="Grupo_1144281" data-name="Grupo 1144281" transform="translate(714 2725.195)" opacity="0.7">
          <g id="Grupo_1144280" data-name="Grupo 1144280">
            <g id="Grupo_1144279" data-name="Grupo 1144279" clip-path="url(#clip-path-3)">
              <path id="Trazado_980763" data-name="Trazado 980763" d="M2.024,371.461A2.024,2.024,0,1,1,0,373.486a2.024,2.024,0,0,1,2.024-2.025" transform="translate(0 -315.689)" fill="#00aab4"/>
              <path id="Trazado_980764" data-name="Trazado 980764" d="M2.834,387.862a2.024,2.024,0,1,1-1.742,2.271,2.024,2.024,0,0,1,1.742-2.271" transform="translate(-0.472 -322.897)" fill="#00aab4"/>
              <path id="Trazado_980765" data-name="Trazado 980765" d="M5.777,404.016A2.024,2.024,0,1,1,4.345,406.5a2.024,2.024,0,0,1,1.432-2.479" transform="translate(-1.881 -329.98)" fill="#00aab4"/>
              <path id="Trazado_980766" data-name="Trazado 980766" d="M10.8,419.648a2.025,2.025,0,1,1-1.1,2.645,2.025,2.025,0,0,1,1.1-2.645" transform="translate(-4.203 -336.819)" fill="#00aab4"/>
              <path id="Trazado_980767" data-name="Trazado 980767" d="M17.828,434.491a2.024,2.024,0,1,1-.741,2.765,2.025,2.025,0,0,1,.741-2.765" transform="translate(-7.397 -343.298)" fill="#00aab4"/>
              <path id="Trazado_980768" data-name="Trazado 980768" d="M26.729,448.29a2.024,2.024,0,1,1-.374,2.837,2.024,2.024,0,0,1,.374-2.837" transform="translate(-11.41 -349.304)" fill="#00aab4"/>
              <path id="Trazado_980769" data-name="Trazado 980769" d="M37.356,460.808a2.024,2.024,0,1,1,0,2.863,2.026,2.026,0,0,1,0-2.863" transform="translate(-16.173 -354.734)" fill="#00aab4"/>
              <path id="Trazado_980770" data-name="Trazado 980770" d="M49.525,471.833a2.024,2.024,0,1,1,.374,2.838,2.024,2.024,0,0,1-.374-2.838" transform="translate(-21.603 -359.496)" fill="#00aab4"/>
              <path id="Trazado_980771" data-name="Trazado 980771" d="M37.356,460.808a2.024,2.024,0,1,1,0,2.863,2.026,2.026,0,0,1,0-2.863" transform="translate(-16.173 -354.734)" fill="#00aab4"/>
              <path id="Trazado_980772" data-name="Trazado 980772" d="M49.525,471.833a2.024,2.024,0,1,1,.374,2.838,2.024,2.024,0,0,1-.374-2.838" transform="translate(-21.603 -359.496)" fill="#00aab4"/>
              <path id="Trazado_980773" data-name="Trazado 980773" d="M2.834,359.109a2.024,2.024,0,1,0-1.742-2.272,2.024,2.024,0,0,0,1.742,2.272" transform="translate(-0.472 -308.482)" fill="#00aab4"/>
              <path id="Trazado_980774" data-name="Trazado 980774" d="M5.777,342.955a2.024,2.024,0,1,0-1.432-2.479,2.024,2.024,0,0,0,1.432,2.479" transform="translate(-1.881 -301.397)" fill="#00aab4"/>
              <path id="Trazado_980775" data-name="Trazado 980775" d="M10.8,327.323a2.025,2.025,0,1,0-1.1-2.645,2.025,2.025,0,0,0,1.1,2.645" transform="translate(-4.203 -294.558)" fill="#00aab4"/>
              <path id="Trazado_980776" data-name="Trazado 980776" d="M17.828,312.48a2.024,2.024,0,1,0-.741-2.765,2.023,2.023,0,0,0,.741,2.765" transform="translate(-7.397 -288.08)" fill="#00aab4"/>
              <path id="Trazado_980777" data-name="Trazado 980777" d="M26.729,298.682a2.024,2.024,0,1,0-.374-2.838,2.023,2.023,0,0,0,.374,2.838" transform="translate(-11.41 -282.075)" fill="#00aab4"/>
              <path id="Trazado_980778" data-name="Trazado 980778" d="M37.356,286.164a2.024,2.024,0,1,0,0-2.863,2.024,2.024,0,0,0,0,2.863" transform="translate(-16.173 -276.645)" fill="#00aab4"/>
              <path id="Trazado_980779" data-name="Trazado 980779" d="M49.525,275.139A2.024,2.024,0,1,0,49.9,272.3a2.025,2.025,0,0,0-.374,2.838" transform="translate(-21.603 -271.882)" fill="#00aab4"/>
            </g>
          </g>
        </g>
        <text id="País" transform="translate(769.12 2772)" fill="#fff" font-size="16" font-family="SegoeUI, Segoe UI" letter-spacing="0em"><tspan x="0" y="0">País</tspan></text>
        <g id="Grupo_1144289" data-name="Grupo 1144289" transform="translate(769.12 2781.867)">
          <g id="Grupo_1144288" data-name="Grupo 1144288" transform="translate(0 0)">
            <path id="Trazado_980809" data-name="Trazado 980809" d="M29.342,72.172h-.513V58.806a4.182,4.182,0,0,0,1.926-3.519.451.451,0,0,0-.059-.224l-3.575-6.256a1.417,1.417,0,0,0-1.227-.712H4.862a1.417,1.417,0,0,0-1.227.712L.059,55.064A.451.451,0,0,0,0,55.288a4.182,4.182,0,0,0,1.926,3.519V72.172H1.414a.451.451,0,0,0,0,.9H29.342a.451.451,0,0,0,0-.9ZM.932,55.738H2.376a.451.451,0,1,0,0-.9H1.227l3.19-5.582A.514.514,0,0,1,4.862,49H25.894a.514.514,0,0,1,.445.258l3.19,5.582h-1.15a.451.451,0,1,0,0,.9h1.445a3.281,3.281,0,0,1-6.5,0h3.129a.451.451,0,1,0,0-.9H4.3a.451.451,0,1,0,0,.9H7.432a3.281,3.281,0,0,1-6.5,0Zm21.427,0a3.281,3.281,0,0,1-6.5,0Zm-7.464,0a3.281,3.281,0,0,1-6.5,0ZM25.52,72.172H20.643V70.665H25.52Zm0-2.408H20.643V61.516H25.52Zm2.408,2.408H26.421V61.066a.45.45,0,0,0-.451-.451H20.193a.45.45,0,0,0-.451.451V72.172H2.827V59.243a4.178,4.178,0,0,0,5.087-2.068,4.181,4.181,0,0,0,7.464,0,4.181,4.181,0,0,0,7.464,0,4.178,4.178,0,0,0,5.087,2.068Z" transform="translate(0 -48.096)" fill="#fff"/>
          </g>
        </g>
        <g id="Grupo_1144291" data-name="Grupo 1144291" transform="translate(775.841 2794.387)">
          <g id="Grupo_1144290" data-name="Grupo 1144290">
            <path id="Trazado_980810" data-name="Trazado 980810" d="M85.6,256.516h-13a.451.451,0,0,0-.451.451v9.149a.451.451,0,0,0,.451.451h13a.45.45,0,0,0,.451-.451v-9.149A.45.45,0,0,0,85.6,256.516Zm-.451,9.149h-12.1v-8.248h12.1Z" transform="translate(-72.145 -256.516)" fill="#fff"/>
          </g>
        </g>
      </g>
      <g id="Grupo_1144294" data-name="Grupo 1144294" transform="translate(213.374)">
        <path id="Trazado_980761-2" data-name="Trazado 980761" d="M18.582,326.443A61.916,61.916,0,1,0,80.5,264.526a61.916,61.916,0,0,0-61.916,61.917m112.283,0A50.367,50.367,0,1,1,80.5,276.075a50.367,50.367,0,0,1,50.367,50.367" transform="translate(705.825 2456.549)" fill="#00aab4"/>
        <path id="Trazado_980762-2" data-name="Trazado 980762" d="M89.57,385.881a50.367,50.367,0,1,1,50.367-50.367A50.367,50.367,0,0,1,89.57,385.881" transform="translate(696.754 2447.477)" fill="#00d7e1"/>
        <g id="Grupo_1144281-2" data-name="Grupo 1144281" transform="translate(714 2725.195)" opacity="0.7">
          <g id="Grupo_1144280-2" data-name="Grupo 1144280">
            <g id="Grupo_1144279-2" data-name="Grupo 1144279" clip-path="url(#clip-path-3)">
              <path id="Trazado_980763-2" data-name="Trazado 980763" d="M2.024,371.461A2.024,2.024,0,1,1,0,373.486a2.024,2.024,0,0,1,2.024-2.025" transform="translate(0 -315.689)" fill="#00aab4"/>
              <path id="Trazado_980764-2" data-name="Trazado 980764" d="M2.834,387.862a2.024,2.024,0,1,1-1.742,2.271,2.024,2.024,0,0,1,1.742-2.271" transform="translate(-0.472 -322.897)" fill="#00aab4"/>
              <path id="Trazado_980765-2" data-name="Trazado 980765" d="M5.777,404.016A2.024,2.024,0,1,1,4.345,406.5a2.024,2.024,0,0,1,1.432-2.479" transform="translate(-1.881 -329.98)" fill="#00aab4"/>
              <path id="Trazado_980766-2" data-name="Trazado 980766" d="M10.8,419.648a2.025,2.025,0,1,1-1.1,2.645,2.025,2.025,0,0,1,1.1-2.645" transform="translate(-4.203 -336.819)" fill="#00aab4"/>
              <path id="Trazado_980767-2" data-name="Trazado 980767" d="M17.828,434.491a2.024,2.024,0,1,1-.741,2.765,2.025,2.025,0,0,1,.741-2.765" transform="translate(-7.397 -343.298)" fill="#00aab4"/>
              <path id="Trazado_980768-2" data-name="Trazado 980768" d="M26.729,448.29a2.024,2.024,0,1,1-.374,2.837,2.024,2.024,0,0,1,.374-2.837" transform="translate(-11.41 -349.304)" fill="#00aab4"/>
              <path id="Trazado_980769-2" data-name="Trazado 980769" d="M37.356,460.808a2.024,2.024,0,1,1,0,2.863,2.026,2.026,0,0,1,0-2.863" transform="translate(-16.173 -354.734)" fill="#00aab4"/>
              <path id="Trazado_980770-2" data-name="Trazado 980770" d="M49.525,471.833a2.024,2.024,0,1,1,.374,2.838,2.024,2.024,0,0,1-.374-2.838" transform="translate(-21.603 -359.496)" fill="#00aab4"/>
              <path id="Trazado_980771-2" data-name="Trazado 980771" d="M37.356,460.808a2.024,2.024,0,1,1,0,2.863,2.026,2.026,0,0,1,0-2.863" transform="translate(-16.173 -354.734)" fill="#00aab4"/>
              <path id="Trazado_980772-2" data-name="Trazado 980772" d="M49.525,471.833a2.024,2.024,0,1,1,.374,2.838,2.024,2.024,0,0,1-.374-2.838" transform="translate(-21.603 -359.496)" fill="#00aab4"/>
              <path id="Trazado_980773-2" data-name="Trazado 980773" d="M2.834,359.109a2.024,2.024,0,1,0-1.742-2.272,2.024,2.024,0,0,0,1.742,2.272" transform="translate(-0.472 -308.482)" fill="#00aab4"/>
              <path id="Trazado_980774-2" data-name="Trazado 980774" d="M5.777,342.955a2.024,2.024,0,1,0-1.432-2.479,2.024,2.024,0,0,0,1.432,2.479" transform="translate(-1.881 -301.397)" fill="#00aab4"/>
              <path id="Trazado_980775-2" data-name="Trazado 980775" d="M10.8,327.323a2.025,2.025,0,1,0-1.1-2.645,2.025,2.025,0,0,0,1.1,2.645" transform="translate(-4.203 -294.558)" fill="#00aab4"/>
              <path id="Trazado_980776-2" data-name="Trazado 980776" d="M17.828,312.48a2.024,2.024,0,1,0-.741-2.765,2.023,2.023,0,0,0,.741,2.765" transform="translate(-7.397 -288.08)" fill="#00aab4"/>
              <path id="Trazado_980777-2" data-name="Trazado 980777" d="M26.729,298.682a2.024,2.024,0,1,0-.374-2.838,2.023,2.023,0,0,0,.374,2.838" transform="translate(-11.41 -282.075)" fill="#00aab4"/>
              <path id="Trazado_980778-2" data-name="Trazado 980778" d="M37.356,286.164a2.024,2.024,0,1,0,0-2.863,2.024,2.024,0,0,0,0,2.863" transform="translate(-16.173 -276.645)" fill="#00aab4"/>
              <path id="Trazado_980779-2" data-name="Trazado 980779" d="M49.525,275.139A2.024,2.024,0,1,0,49.9,272.3a2.025,2.025,0,0,0-.374,2.838" transform="translate(-21.603 -271.882)" fill="#00aab4"/>
            </g>
          </g>
        </g>
        <text id="Ciudad" transform="translate(761.12 2772)" fill="#fff" font-size="16" font-family="SegoeUI, Segoe UI" letter-spacing="0em"><tspan x="0" y="0">Ciudad</tspan></text>
        <g id="Grupo_1144289-2" data-name="Grupo 1144289" transform="translate(772.12 2781.867)">
          <g id="Grupo_1144288-2" data-name="Grupo 1144288" transform="translate(0 0)">
            <path id="Trazado_980809-2" data-name="Trazado 980809" d="M29.342,72.172h-.513V58.806a4.182,4.182,0,0,0,1.926-3.519.451.451,0,0,0-.059-.224l-3.575-6.256a1.417,1.417,0,0,0-1.227-.712H4.862a1.417,1.417,0,0,0-1.227.712L.059,55.064A.451.451,0,0,0,0,55.288a4.182,4.182,0,0,0,1.926,3.519V72.172H1.414a.451.451,0,0,0,0,.9H29.342a.451.451,0,0,0,0-.9ZM.932,55.738H2.376a.451.451,0,1,0,0-.9H1.227l3.19-5.582A.514.514,0,0,1,4.862,49H25.894a.514.514,0,0,1,.445.258l3.19,5.582h-1.15a.451.451,0,1,0,0,.9h1.445a3.281,3.281,0,0,1-6.5,0h3.129a.451.451,0,1,0,0-.9H4.3a.451.451,0,1,0,0,.9H7.432a3.281,3.281,0,0,1-6.5,0Zm21.427,0a3.281,3.281,0,0,1-6.5,0Zm-7.464,0a3.281,3.281,0,0,1-6.5,0ZM25.52,72.172H20.643V70.665H25.52Zm0-2.408H20.643V61.516H25.52Zm2.408,2.408H26.421V61.066a.45.45,0,0,0-.451-.451H20.193a.45.45,0,0,0-.451.451V72.172H2.827V59.243a4.178,4.178,0,0,0,5.087-2.068,4.181,4.181,0,0,0,7.464,0,4.181,4.181,0,0,0,7.464,0,4.178,4.178,0,0,0,5.087,2.068Z" transform="translate(0 -48.096)" fill="#fff"/>
          </g>
        </g>
        <g id="Grupo_1144291-2" data-name="Grupo 1144291" transform="translate(775.841 2794.387)">
          <g id="Grupo_1144290-2" data-name="Grupo 1144290">
            <path id="Trazado_980810-2" data-name="Trazado 980810" d="M85.6,256.516h-13a.451.451,0,0,0-.451.451v9.149a.451.451,0,0,0,.451.451h13a.45.45,0,0,0,.451-.451v-9.149A.45.45,0,0,0,85.6,256.516Zm-.451,9.149h-12.1v-8.248h12.1Z" transform="translate(-72.145 -256.516)" fill="#fff"/>
          </g>
        </g>
      </g>
      <path id="Trazado_980724" data-name="Trazado 980724" d="M386.145,581.466A50.367,50.367,0,1,1,335.779,531.1a50.367,50.367,0,0,1,50.367,50.367" transform="translate(801.441 2339.277)" fill="#00d2aa"/>
      <text id="Producto" transform="translate(1103.889 2909.078)" fill="#fff" font-size="16" font-family="SegoeUI, Segoe UI" letter-spacing="0em"><tspan x="0" y="0">Producto</tspan></text>
      <path id="Trazado_980723" data-name="Trazado 980723" d="M326.707,634.311a61.916,61.916,0,1,0-61.916-61.916,61.916,61.916,0,0,0,61.916,61.916m0-112.283a50.367,50.367,0,1,1-50.367,50.367,50.367,50.367,0,0,1,50.367-50.367" transform="translate(810.512 2348.349)" fill="#00aa87"/>
      <path id="Trazado_980811" data-name="Trazado 980811" d="M326.707,634.311a61.916,61.916,0,1,0-61.916-61.916,61.916,61.916,0,0,0,61.916,61.916m0-112.283a50.367,50.367,0,1,1-50.367,50.367,50.367,50.367,0,0,1,50.367-50.367" transform="translate(810.512 2496.107)" fill="#00aa87"/>
      <path id="Trazado_980812" data-name="Trazado 980812" d="M386.145,581.466A50.367,50.367,0,1,1,335.779,531.1a50.367,50.367,0,0,1,50.367,50.367" transform="translate(801.441 2487.035)" fill="#00d2aa"/>
      <g id="Grupo_1144275" data-name="Grupo 1144275" transform="translate(1079.277 2961.515)" opacity="0.7">
        <g id="Grupo_1144274" data-name="Grupo 1144274">
          <g id="Grupo_1144273" data-name="Grupo 1144273" clip-path="url(#clip-path)">
            <path id="Trazado_980725" data-name="Trazado 980725" d="M371.465,744.956a2.024,2.024,0,1,1,2.024,2.024,2.024,2.024,0,0,1-2.024-2.024" transform="translate(-315.693 -715.427)" fill="#00aa87"/>
            <path id="Trazado_980726" data-name="Trazado 980726" d="M387.865,744.145a2.024,2.024,0,1,1,2.272,1.742,2.024,2.024,0,0,1-2.272-1.742" transform="translate(-322.9 -714.954)" fill="#00aa87"/>
            <path id="Trazado_980727" data-name="Trazado 980727" d="M404.02,741.2a2.024,2.024,0,1,1,2.479,1.432,2.024,2.024,0,0,1-2.479-1.432" transform="translate(-329.984 -713.545)" fill="#00aa87"/>
            <path id="Trazado_980728" data-name="Trazado 980728" d="M419.652,736.175a2.024,2.024,0,1,1,2.645,1.1,2.024,2.024,0,0,1-2.645-1.1" transform="translate(-336.824 -711.223)" fill="#00aa87"/>
            <path id="Trazado_980729" data-name="Trazado 980729" d="M434.494,729.151a2.024,2.024,0,1,1,2.765.741,2.023,2.023,0,0,1-2.765-.741" transform="translate(-343.302 -708.029)" fill="#00aa87"/>
            <path id="Trazado_980730" data-name="Trazado 980730" d="M448.293,720.25a2.024,2.024,0,1,1,2.838.373,2.025,2.025,0,0,1-2.838-.373" transform="translate(-349.308 -704.016)" fill="#00aa87"/>
            <path id="Trazado_980731" data-name="Trazado 980731" d="M460.811,709.624a2.024,2.024,0,1,1,2.863,0,2.025,2.025,0,0,1-2.863,0" transform="translate(-354.738 -699.254)" fill="#00aa87"/>
            <path id="Trazado_980732" data-name="Trazado 980732" d="M471.835,697.453a2.025,2.025,0,1,1,2.838-.374,2.024,2.024,0,0,1-2.838.374" transform="translate(-359.5 -693.823)" fill="#00aa87"/>
            <path id="Trazado_980733" data-name="Trazado 980733" d="M460.811,709.624a2.024,2.024,0,1,1,2.863,0,2.025,2.025,0,0,1-2.863,0" transform="translate(-354.738 -699.254)" fill="#00aa87"/>
            <path id="Trazado_980734" data-name="Trazado 980734" d="M471.835,697.453a2.025,2.025,0,1,1,2.838-.374,2.024,2.024,0,0,1-2.838.374" transform="translate(-359.5 -693.823)" fill="#00aa87"/>
            <path id="Trazado_980735" data-name="Trazado 980735" d="M359.112,744.145a2.024,2.024,0,1,0-2.271,1.742,2.023,2.023,0,0,0,2.271-1.742" transform="translate(-308.485 -714.954)" fill="#00aa87"/>
            <path id="Trazado_980736" data-name="Trazado 980736" d="M342.958,741.2a2.024,2.024,0,1,0-2.479,1.432,2.024,2.024,0,0,0,2.479-1.432" transform="translate(-301.401 -713.545)" fill="#00aa87"/>
            <path id="Trazado_980737" data-name="Trazado 980737" d="M327.326,736.175a2.024,2.024,0,1,0-2.645,1.1,2.024,2.024,0,0,0,2.645-1.1" transform="translate(-294.562 -711.223)" fill="#00aa87"/>
            <path id="Trazado_980738" data-name="Trazado 980738" d="M312.484,729.151a2.024,2.024,0,1,0-2.765.741,2.024,2.024,0,0,0,2.765-.741" transform="translate(-288.084 -708.029)" fill="#00aa87"/>
            <path id="Trazado_980739" data-name="Trazado 980739" d="M298.685,720.25a2.024,2.024,0,1,0-2.839.373,2.024,2.024,0,0,0,2.839-.373" transform="translate(-282.078 -704.016)" fill="#00aa87"/>
            <path id="Trazado_980740" data-name="Trazado 980740" d="M286.167,709.624a2.024,2.024,0,1,0-2.863,0,2.023,2.023,0,0,0,2.863,0" transform="translate(-276.648 -699.254)" fill="#00aa87"/>
            <path id="Trazado_980741" data-name="Trazado 980741" d="M275.143,697.453a2.024,2.024,0,1,0-2.838-.374,2.025,2.025,0,0,0,2.838.374" transform="translate(-271.886 -693.823)" fill="#00aa87"/>
          </g>
        </g>
      </g>
      <g id="Grupo_1144295" data-name="Grupo 1144295" transform="translate(1079.277 3109.273)" opacity="0.7">
        <g id="Grupo_1144274-2" data-name="Grupo 1144274">
          <g id="Grupo_1144273-2" data-name="Grupo 1144273" clip-path="url(#clip-path)">
            <path id="Trazado_980725-2" data-name="Trazado 980725" d="M371.465,744.956a2.024,2.024,0,1,1,2.024,2.024,2.024,2.024,0,0,1-2.024-2.024" transform="translate(-315.693 -715.427)" fill="#00aa87"/>
            <path id="Trazado_980726-2" data-name="Trazado 980726" d="M387.865,744.145a2.024,2.024,0,1,1,2.272,1.742,2.024,2.024,0,0,1-2.272-1.742" transform="translate(-322.9 -714.954)" fill="#00aa87"/>
            <path id="Trazado_980727-2" data-name="Trazado 980727" d="M404.02,741.2a2.024,2.024,0,1,1,2.479,1.432,2.024,2.024,0,0,1-2.479-1.432" transform="translate(-329.984 -713.545)" fill="#00aa87"/>
            <path id="Trazado_980728-2" data-name="Trazado 980728" d="M419.652,736.175a2.024,2.024,0,1,1,2.645,1.1,2.024,2.024,0,0,1-2.645-1.1" transform="translate(-336.824 -711.223)" fill="#00aa87"/>
            <path id="Trazado_980729-2" data-name="Trazado 980729" d="M434.494,729.151a2.024,2.024,0,1,1,2.765.741,2.023,2.023,0,0,1-2.765-.741" transform="translate(-343.302 -708.029)" fill="#00aa87"/>
            <path id="Trazado_980730-2" data-name="Trazado 980730" d="M448.293,720.25a2.024,2.024,0,1,1,2.838.373,2.025,2.025,0,0,1-2.838-.373" transform="translate(-349.308 -704.016)" fill="#00aa87"/>
            <path id="Trazado_980731-2" data-name="Trazado 980731" d="M460.811,709.624a2.024,2.024,0,1,1,2.863,0,2.025,2.025,0,0,1-2.863,0" transform="translate(-354.738 -699.254)" fill="#00aa87"/>
            <path id="Trazado_980732-2" data-name="Trazado 980732" d="M471.835,697.453a2.025,2.025,0,1,1,2.838-.374,2.024,2.024,0,0,1-2.838.374" transform="translate(-359.5 -693.823)" fill="#00aa87"/>
            <path id="Trazado_980733-2" data-name="Trazado 980733" d="M460.811,709.624a2.024,2.024,0,1,1,2.863,0,2.025,2.025,0,0,1-2.863,0" transform="translate(-354.738 -699.254)" fill="#00aa87"/>
            <path id="Trazado_980734-2" data-name="Trazado 980734" d="M471.835,697.453a2.025,2.025,0,1,1,2.838-.374,2.024,2.024,0,0,1-2.838.374" transform="translate(-359.5 -693.823)" fill="#00aa87"/>
            <path id="Trazado_980735-2" data-name="Trazado 980735" d="M359.112,744.145a2.024,2.024,0,1,0-2.271,1.742,2.023,2.023,0,0,0,2.271-1.742" transform="translate(-308.485 -714.954)" fill="#00aa87"/>
            <path id="Trazado_980736-2" data-name="Trazado 980736" d="M342.958,741.2a2.024,2.024,0,1,0-2.479,1.432,2.024,2.024,0,0,0,2.479-1.432" transform="translate(-301.401 -713.545)" fill="#00aa87"/>
            <path id="Trazado_980737-2" data-name="Trazado 980737" d="M327.326,736.175a2.024,2.024,0,1,0-2.645,1.1,2.024,2.024,0,0,0,2.645-1.1" transform="translate(-294.562 -711.223)" fill="#00aa87"/>
            <path id="Trazado_980738-2" data-name="Trazado 980738" d="M312.484,729.151a2.024,2.024,0,1,0-2.765.741,2.024,2.024,0,0,0,2.765-.741" transform="translate(-288.084 -708.029)" fill="#00aa87"/>
            <path id="Trazado_980739-2" data-name="Trazado 980739" d="M298.685,720.25a2.024,2.024,0,1,0-2.839.373,2.024,2.024,0,0,0,2.839-.373" transform="translate(-282.078 -704.016)" fill="#00aa87"/>
            <path id="Trazado_980740-2" data-name="Trazado 980740" d="M286.167,709.624a2.024,2.024,0,1,0-2.863,0,2.023,2.023,0,0,0,2.863,0" transform="translate(-276.648 -699.254)" fill="#00aa87"/>
            <path id="Trazado_980741-2" data-name="Trazado 980741" d="M275.143,697.453a2.024,2.024,0,1,0-2.838-.374,2.025,2.025,0,0,0,2.838.374" transform="translate(-271.886 -693.823)" fill="#00aa87"/>
          </g>
        </g>
      </g>
      <path id="Trazado_980786" data-name="Trazado 980786" d="M326.592,436.992H264.53v75.836h.146a61.916,61.916,0,0,1,123.832,0V375.076a61.916,61.916,0,0,1-61.917,61.916" transform="translate(810.627 2407.916)" fill="#00d2aa"/>
      <text id="Categoría" transform="translate(1101.889 3056.836)" fill="#fff" font-size="16" font-family="SegoeUI, Segoe UI" letter-spacing="0em"><tspan x="0" y="0">Categoría</tspan></text>
      <g id="Grupo_1144287" data-name="Grupo 1144287" transform="translate(1118.701 2927.692)">
        <path id="Trazado_980802" data-name="Trazado 980802" d="M82.925,276.688l-2.616-3.349A3.489,3.489,0,0,0,77.834,272H60.448a.89.89,0,1,0,0,1.78h2.419l-2.27,2.906a1.876,1.876,0,0,1-1.072.653H48.206l2.27-2.906a1.877,1.877,0,0,1,1.072-.653h.89a.89.89,0,0,0,0-1.78h-.89a3.489,3.489,0,0,0-2.474,1.338l-2.616,3.349a1.625,1.625,0,0,0-.328,1.72,1.334,1.334,0,0,0,1.247.713h3.076V290.69a2.673,2.673,0,0,0,2.67,2.67H76.26a2.673,2.673,0,0,0,2.67-2.67V279.121h3.076a1.334,1.334,0,0,0,1.247-.713A1.625,1.625,0,0,0,82.925,276.688Zm-30.692,14V279.121h7.292A3.488,3.488,0,0,0,62,277.784l1.8-2.307v16.1H53.122A.891.891,0,0,1,52.233,290.69ZM77.15,279.121V290.69a.891.891,0,0,1-.89.89H65.581v-16.1l1.8,2.307a3.489,3.489,0,0,0,2.474,1.338Zm-7.292-1.78a1.877,1.877,0,0,1-1.072-.653l-2.27-2.906H77.834a1.877,1.877,0,0,1,1.072.654l2.27,2.906Z" transform="translate(-46.003 -272.002)" fill="#fff"/>
        <path id="Trazado_980804" data-name="Trazado 980804" d="M154.2,272a.89.89,0,1,0,.891.89.89.89,0,0,0-.891-.89Z" transform="translate(-143.763 -272.001)" fill="#fff"/>
      </g>
      <g id="Grupo_1144296" data-name="Grupo 1144296" transform="translate(1118.701 3075.451)">
        <path id="Trazado_980802-2" data-name="Trazado 980802" d="M82.925,276.688l-2.616-3.349A3.489,3.489,0,0,0,77.834,272H60.448a.89.89,0,1,0,0,1.78h2.419l-2.27,2.906a1.876,1.876,0,0,1-1.072.653H48.206l2.27-2.906a1.877,1.877,0,0,1,1.072-.653h.89a.89.89,0,0,0,0-1.78h-.89a3.489,3.489,0,0,0-2.474,1.338l-2.616,3.349a1.625,1.625,0,0,0-.328,1.72,1.334,1.334,0,0,0,1.247.713h3.076V290.69a2.673,2.673,0,0,0,2.67,2.67H76.26a2.673,2.673,0,0,0,2.67-2.67V279.121h3.076a1.334,1.334,0,0,0,1.247-.713A1.625,1.625,0,0,0,82.925,276.688Zm-30.692,14V279.121h7.292A3.488,3.488,0,0,0,62,277.784l1.8-2.307v16.1H53.122A.891.891,0,0,1,52.233,290.69ZM77.15,279.121V290.69a.891.891,0,0,1-.89.89H65.581v-16.1l1.8,2.307a3.489,3.489,0,0,0,2.474,1.338Zm-7.292-1.78a1.877,1.877,0,0,1-1.072-.653l-2.27-2.906H77.834a1.877,1.877,0,0,1,1.072.654l2.27,2.906Z" transform="translate(-46.003 -272.002)" fill="#fff"/>
        <path id="Trazado_980804-2" data-name="Trazado 980804" d="M154.2,272a.89.89,0,1,0,.891.89.89.89,0,0,0-.891-.89Z" transform="translate(-143.763 -272.001)" fill="#fff"/>
      </g>
      <path id="Trazado_980813" data-name="Trazado 980813" d="M205.111,326.443a61.916,61.916,0,0,1,61.916-61.917h-137.9a61.916,61.916,0,0,1,0,123.833h137.9a61.916,61.916,0,0,1-61.916-61.916" transform="translate(870.362 2457.006)" fill="#00d7e1"/>
    </g>
    <path id="Trazado_981274" data-name="Trazado 981274" d="M8.9-5.432H4.052v3.059h5.73V0H.967V-12.8H9.8v2.382H4.052v2.7H8.9Zm6.979,2.76a.684.684,0,0,0-.4-.606,6.016,6.016,0,0,0-1.5-.475A6.853,6.853,0,0,1,12.155-4.4a3.062,3.062,0,0,1-1.1-.971,2.319,2.319,0,0,1-.378-1.31A2.628,2.628,0,0,1,11.76-8.837a4.453,4.453,0,0,1,2.83-.848,4.934,4.934,0,0,1,3.023.853,2.666,2.666,0,0,1,1.143,2.241H15.785q0-1.143-1.2-1.143a1.194,1.194,0,0,0-.782.259.8.8,0,0,0-.316.646.737.737,0,0,0,.387.642,3.654,3.654,0,0,0,1.235.4,10.671,10.671,0,0,1,1.49.378A2.706,2.706,0,0,1,18.738-2.76,2.491,2.491,0,0,1,17.583-.642,5.068,5.068,0,0,1,14.59.176a5.172,5.172,0,0,1-2.18-.439,3.645,3.645,0,0,1-1.494-1.2A2.707,2.707,0,0,1,10.38-3.05h2.769a1.145,1.145,0,0,0,.439.962,1.808,1.808,0,0,0,1.081.3,1.422,1.422,0,0,0,.91-.246A.787.787,0,0,0,15.882-2.672Zm3.867-2.18A5.709,5.709,0,0,1,20.733-8.4a3.233,3.233,0,0,1,2.716-1.283,2.761,2.761,0,0,1,2.338,1.2L26-9.51h2.566V3.656H25.594V-.791a2.757,2.757,0,0,1-2.162.967,3.2,3.2,0,0,1-2.685-1.305A6.027,6.027,0,0,1,19.749-4.852Zm2.962.185q0,2.558,1.477,2.558a1.43,1.43,0,0,0,1.406-.773V-6.645A1.4,1.4,0,0,0,24.205-7.4q-1.38,0-1.485,2.206ZM35.9-1.028a3.054,3.054,0,0,1-2.54,1.2,3,3,0,0,1-2.369-.91,3.826,3.826,0,0,1-.8-2.615V-9.51h2.962v6.179a1.065,1.065,0,0,0,1.187,1.222,1.548,1.548,0,0,0,1.45-.729V-9.51h2.979V0H35.991Zm9.088,1.2a4.889,4.889,0,0,1-3.542-1.305,4.507,4.507,0,0,1-1.354-3.4v-.246a5.84,5.84,0,0,1,.541-2.575,3.955,3.955,0,0,1,1.578-1.727,4.763,4.763,0,0,1,2.461-.611,4.117,4.117,0,0,1,3.164,1.244A4.887,4.887,0,0,1,49-4.975v1.151H43.11A2.135,2.135,0,0,0,43.8-2.566a2.066,2.066,0,0,0,1.389.457,2.662,2.662,0,0,0,2.2-.984l1.354,1.6A3.784,3.784,0,0,1,47.175-.277,5.3,5.3,0,0,1,44.991.176ZM44.657-7.4q-1.3,0-1.547,1.723H46.1v-.229a1.467,1.467,0,0,0-.36-1.1A1.434,1.434,0,0,0,44.657-7.4ZM52.989-9.51l.1,1.116A3.27,3.27,0,0,1,55.8-9.686a2.407,2.407,0,0,1,2.435,1.433,3.165,3.165,0,0,1,2.795-1.433q2.892,0,2.971,3.5V0H61.031V-6a1.813,1.813,0,0,0-.246-1.063,1.048,1.048,0,0,0-.9-.334,1.4,1.4,0,0,0-1.31.782l.009.123V0H55.617V-5.985a1.906,1.906,0,0,0-.237-1.081,1.045,1.045,0,0,0-.905-.334,1.42,1.42,0,0,0-1.3.782V0H50.212V-9.51ZM71.051,0a3.344,3.344,0,0,1-.281-.853A2.754,2.754,0,0,1,68.484.176,3.374,3.374,0,0,1,66.2-.637a2.588,2.588,0,0,1-.94-2.043A2.66,2.66,0,0,1,66.4-5.019a5.821,5.821,0,0,1,3.322-.791h.914v-.5q0-1.316-1.134-1.316a.927.927,0,0,0-1.055,1.042H65.487a2.655,2.655,0,0,1,1.173-2.239,4.931,4.931,0,0,1,2.993-.86,4.323,4.323,0,0,1,2.874.888,3.086,3.086,0,0,1,1.081,2.435v4.21a4.311,4.311,0,0,0,.4,2V0ZM69.2-1.934a1.652,1.652,0,0,0,.918-.237,1.487,1.487,0,0,0,.523-.536V-4.228h-.861q-1.547,0-1.547,1.389a.848.848,0,0,0,.272.655A.986.986,0,0,0,69.2-1.934Zm10.16-2.892a5.809,5.809,0,0,1,.976-3.56,3.211,3.211,0,0,1,2.725-1.3,2.731,2.731,0,0,1,2.145,1V-13.5h2.971V0H85.509l-.149-1.02a2.8,2.8,0,0,1-2.32,1.2,3.205,3.205,0,0,1-2.689-1.3A5.993,5.993,0,0,1,79.356-4.825Zm2.962.185q0,2.531,1.477,2.531A1.458,1.458,0,0,0,85.2-2.936V-6.557A1.419,1.419,0,0,0,83.813-7.4q-1.371,0-1.485,2.215ZM94.456.176a4.889,4.889,0,0,1-3.542-1.305,4.507,4.507,0,0,1-1.354-3.4v-.246A5.84,5.84,0,0,1,90.1-7.348a3.955,3.955,0,0,1,1.578-1.727,4.763,4.763,0,0,1,2.461-.611A4.117,4.117,0,0,1,97.3-8.442a4.887,4.887,0,0,1,1.16,3.467v1.151H92.575a2.135,2.135,0,0,0,.694,1.257,2.066,2.066,0,0,0,1.389.457,2.662,2.662,0,0,0,2.2-.984l1.354,1.6A3.784,3.784,0,0,1,96.64-.277,5.3,5.3,0,0,1,94.456.176ZM94.122-7.4q-1.3,0-1.547,1.723h2.988v-.229a1.467,1.467,0,0,0-.36-1.1A1.434,1.434,0,0,0,94.122-7.4Zm14.036,5.291a1.317,1.317,0,0,0,.967-.338,1.241,1.241,0,0,0,.334-.945h2.777a3.288,3.288,0,0,1-1.121,2.566,4.168,4.168,0,0,1-2.887,1,4.22,4.22,0,0,1-3.27-1.3,5.125,5.125,0,0,1-1.2-3.6v-.123A5.792,5.792,0,0,1,104.3-7.4a3.872,3.872,0,0,1,1.534-1.7,4.573,4.573,0,0,1,2.373-.593,4.116,4.116,0,0,1,2.944,1.028,3.647,3.647,0,0,1,1.09,2.786h-2.777A1.626,1.626,0,0,0,109.1-7a1.244,1.244,0,0,0-.967-.4q-1.151,0-1.345,1.468a10.357,10.357,0,0,0-.062,1.283,4.068,4.068,0,0,0,.343,1.986A1.187,1.187,0,0,0,108.158-2.109Zm4.957-2.733a5.613,5.613,0,0,1,.554-2.536,3.96,3.96,0,0,1,1.591-1.709,4.791,4.791,0,0,1,2.435-.6,4.373,4.373,0,0,1,3.366,1.323,5.076,5.076,0,0,1,1.23,3.6v.105a4.925,4.925,0,0,1-1.235,3.529A4.384,4.384,0,0,1,117.712.176a4.434,4.434,0,0,1-3.261-1.217,4.761,4.761,0,0,1-1.327-3.3Zm2.962.185a3.538,3.538,0,0,0,.413,1.934,1.376,1.376,0,0,0,1.222.615q1.582,0,1.617-2.435v-.3q0-2.558-1.635-2.558-1.485,0-1.608,2.206Zm16.348-.026a5.735,5.735,0,0,1-1,3.538A3.2,3.2,0,0,1,128.733.176a2.742,2.742,0,0,1-2.153-.958V3.656h-2.962V-9.51h2.769l.088.879a2.742,2.742,0,0,1,2.241-1.055,3.224,3.224,0,0,1,2.733,1.3,5.805,5.805,0,0,1,.976,3.564Zm-2.962-.185q0-2.531-1.477-2.531a1.394,1.394,0,0,0-1.406.756V-2.9A1.439,1.439,0,0,0,128-2.109q1.415,0,1.459-2.443Zm3.894.026a5.613,5.613,0,0,1,.554-2.536A3.96,3.96,0,0,1,135.5-9.088a4.791,4.791,0,0,1,2.435-.6A4.373,4.373,0,0,1,141.3-8.363a5.076,5.076,0,0,1,1.23,3.6v.105A4.925,4.925,0,0,1,141.3-1.129,4.384,4.384,0,0,1,137.953.176a4.434,4.434,0,0,1-3.261-1.217,4.761,4.761,0,0,1-1.327-3.3Zm2.962.185a3.538,3.538,0,0,0,.413,1.934,1.376,1.376,0,0,0,1.222.615q1.582,0,1.617-2.435v-.3q0-2.558-1.635-2.558-1.485,0-1.608,2.206Zm11.628-.167a5.809,5.809,0,0,1,.976-3.56,3.211,3.211,0,0,1,2.725-1.3,2.731,2.731,0,0,1,2.145,1V-13.5h2.971V0H154.1l-.149-1.02a2.8,2.8,0,0,1-2.32,1.2,3.205,3.205,0,0,1-2.689-1.3A5.993,5.993,0,0,1,147.946-4.825Zm2.962.185q0,2.531,1.477,2.531a1.458,1.458,0,0,0,1.406-.826V-6.557A1.419,1.419,0,0,0,152.4-7.4q-1.371,0-1.485,2.215ZM163.046.176A4.889,4.889,0,0,1,159.5-1.129a4.507,4.507,0,0,1-1.354-3.4v-.246a5.84,5.84,0,0,1,.541-2.575,3.955,3.955,0,0,1,1.578-1.727,4.763,4.763,0,0,1,2.461-.611,4.117,4.117,0,0,1,3.164,1.244,4.887,4.887,0,0,1,1.16,3.467v1.151h-5.889a2.135,2.135,0,0,0,.694,1.257,2.066,2.066,0,0,0,1.389.457,2.662,2.662,0,0,0,2.2-.984l1.354,1.6A3.784,3.784,0,0,1,165.23-.277,5.3,5.3,0,0,1,163.046.176ZM162.712-7.4q-1.3,0-1.547,1.723h2.988v-.229a1.467,1.467,0,0,0-.36-1.1A1.434,1.434,0,0,0,162.712-7.4ZM175.447-9.51l.1,1.116a3.225,3.225,0,0,1,2.716-1.292,2.713,2.713,0,0,1,2.219.888,4.226,4.226,0,0,1,.76,2.672V0h-2.971V-6a1.6,1.6,0,0,0-.29-1.059,1.342,1.342,0,0,0-1.055-.338,1.413,1.413,0,0,0-1.292.686V0H172.67V-9.51ZM186,0h-2.971V-9.51H186Zm-3.146-11.971a1.334,1.334,0,0,1,.457-1.043,1.718,1.718,0,0,1,1.187-.407,1.718,1.718,0,0,1,1.187.407,1.334,1.334,0,0,1,.457,1.043,1.334,1.334,0,0,1-.457,1.043,1.718,1.718,0,0,1-1.187.407,1.718,1.718,0,0,1-1.187-.407A1.334,1.334,0,0,1,182.856-11.971ZM192.428.176a4.889,4.889,0,0,1-3.542-1.305,4.507,4.507,0,0,1-1.354-3.4v-.246a5.84,5.84,0,0,1,.541-2.575,3.955,3.955,0,0,1,1.578-1.727,4.763,4.763,0,0,1,2.461-.611,4.117,4.117,0,0,1,3.164,1.244,4.887,4.887,0,0,1,1.16,3.467v1.151h-5.889a2.135,2.135,0,0,0,.694,1.257,2.066,2.066,0,0,0,1.389.457,2.662,2.662,0,0,0,2.2-.984l1.354,1.6a3.784,3.784,0,0,1-1.569,1.217A5.3,5.3,0,0,1,192.428.176ZM192.094-7.4q-1.3,0-1.547,1.723h2.988v-.229a1.467,1.467,0,0,0-.36-1.1A1.434,1.434,0,0,0,192.094-7.4ZM201.3-3.524l1.5-5.985h3.12L202.825,0H199.8l-3.1-9.51h3.129ZM211.3.176a4.889,4.889,0,0,1-3.542-1.305,4.507,4.507,0,0,1-1.354-3.4v-.246a5.84,5.84,0,0,1,.541-2.575,3.955,3.955,0,0,1,1.578-1.727,4.763,4.763,0,0,1,2.461-.611,4.117,4.117,0,0,1,3.164,1.244,4.887,4.887,0,0,1,1.16,3.467v1.151h-5.889a2.135,2.135,0,0,0,.694,1.257,2.066,2.066,0,0,0,1.389.457,2.662,2.662,0,0,0,2.2-.984l1.354,1.6a3.784,3.784,0,0,1-1.569,1.217A5.3,5.3,0,0,1,211.3.176ZM210.964-7.4q-1.3,0-1.547,1.723h2.988v-.229a1.467,1.467,0,0,0-.36-1.1A1.434,1.434,0,0,0,210.964-7.4Z" transform="translate(1025 2555)" fill="#12263f"/>
    <g id="Grupo_1144285" data-name="Grupo 1144285" transform="translate(268 2576.799)">
      <g id="Grupo_1144284" data-name="Grupo 1144284" clip-path="url(#clip-path-7)">
        <g id="Grupo_1144283" data-name="Grupo 1144283">
          <g id="Grupo_1144282" data-name="Grupo 1144282" clip-path="url(#clip-path-7)">
            <path id="Trazado_980704-2" data-name="Trazado 980704" d="M326.707,18.583A61.916,61.916,0,1,0,388.623,80.5a61.916,61.916,0,0,0-61.917-61.916m0,112.283A50.367,50.367,0,1,1,377.074,80.5a50.367,50.367,0,0,1-50.367,50.367" transform="translate(-116.488 -8.175)" fill="#0a62a5"/>
            <path id="Trazado_980705-2" data-name="Trazado 980705" d="M285.412,89.571a50.367,50.367,0,1,1,50.367,50.367,50.367,50.367,0,0,1-50.367-50.367" transform="translate(-125.559 -17.247)" fill="#0082d2"/>
            <g transform="matrix(1, 0, 0, 1, 0, -35.3)" filter="url(#Trazado_980793-2)">
              <path id="Trazado_980793-4" data-name="Trazado 980793" d="M285.412,89.571a50.367,50.367,0,1,1,50.367,50.367,50.367,50.367,0,0,1-50.367-50.367" transform="translate(-125.56 156.19)" fill="#0082d2"/>
            </g>
            <g id="Grupo_1144272-2" data-name="Grupo 1144272" transform="translate(152.277)" opacity="0.7">
              <g id="Grupo_1144271-2" data-name="Grupo 1144271">
                <g id="Grupo_1144270-2" data-name="Grupo 1144270" clip-path="url(#clip-path)">
                  <path id="Trazado_980706-2" data-name="Trazado 980706" d="M375.514,2.025A2.024,2.024,0,1,1,373.489,0a2.024,2.024,0,0,1,2.025,2.025" transform="translate(-315.693)" fill="#0a62a5"/>
                  <path id="Trazado_980707-2" data-name="Trazado 980707" d="M359.112,2.835a2.024,2.024,0,1,1-2.271-1.742,2.023,2.023,0,0,1,2.271,1.742" transform="translate(-308.485 -0.473)" fill="#0a62a5"/>
                  <path id="Trazado_980708-2" data-name="Trazado 980708" d="M342.958,5.777a2.024,2.024,0,1,1-2.479-1.431,2.024,2.024,0,0,1,2.479,1.431" transform="translate(-301.401 -1.881)" fill="#0a62a5"/>
                  <path id="Trazado_980709-2" data-name="Trazado 980709" d="M327.326,10.8a2.024,2.024,0,1,1-2.645-1.1,2.025,2.025,0,0,1,2.645,1.1" transform="translate(-294.562 -4.203)" fill="#0a62a5"/>
                  <path id="Trazado_980710-2" data-name="Trazado 980710" d="M312.484,17.829a2.024,2.024,0,1,1-2.765-.741,2.024,2.024,0,0,1,2.765.741" transform="translate(-288.084 -7.398)" fill="#0a62a5"/>
                  <path id="Trazado_980711-2" data-name="Trazado 980711" d="M298.685,26.73a2.024,2.024,0,1,1-2.839-.374,2.023,2.023,0,0,1,2.839.374" transform="translate(-282.078 -11.41)" fill="#0a62a5"/>
                  <path id="Trazado_980712-2" data-name="Trazado 980712" d="M286.167,37.356a2.024,2.024,0,1,1-2.863,0,2.023,2.023,0,0,1,2.863,0" transform="translate(-276.648 -16.173)" fill="#0a62a5"/>
                  <path id="Trazado_980713-2" data-name="Trazado 980713" d="M275.143,49.525a2.024,2.024,0,1,1-2.838.374,2.024,2.024,0,0,1,2.838-.374" transform="translate(-271.886 -21.603)" fill="#0a62a5"/>
                  <path id="Trazado_980714-2" data-name="Trazado 980714" d="M286.167,37.356a2.024,2.024,0,1,1-2.863,0,2.023,2.023,0,0,1,2.863,0" transform="translate(-276.648 -16.173)" fill="#0a62a5"/>
                  <path id="Trazado_980715-2" data-name="Trazado 980715" d="M275.143,49.525a2.024,2.024,0,1,1-2.838.374,2.024,2.024,0,0,1,2.838-.374" transform="translate(-271.886 -21.603)" fill="#0a62a5"/>
                  <path id="Trazado_980716-2" data-name="Trazado 980716" d="M387.865,2.835a2.024,2.024,0,1,0,2.272-1.742,2.024,2.024,0,0,0-2.272,1.742" transform="translate(-322.9 -0.473)" fill="#0a62a5"/>
                  <path id="Trazado_980717-2" data-name="Trazado 980717" d="M404.02,5.777A2.024,2.024,0,1,0,406.5,4.346a2.024,2.024,0,0,0-2.479,1.431" transform="translate(-329.984 -1.881)" fill="#0a62a5"/>
                  <path id="Trazado_980718-2" data-name="Trazado 980718" d="M419.652,10.8a2.024,2.024,0,1,0,2.645-1.1,2.025,2.025,0,0,0-2.645,1.1" transform="translate(-336.824 -4.203)" fill="#0a62a5"/>
                  <path id="Trazado_980719-2" data-name="Trazado 980719" d="M434.494,17.829a2.024,2.024,0,1,0,2.765-.741,2.023,2.023,0,0,0-2.765.741" transform="translate(-343.302 -7.398)" fill="#0a62a5"/>
                  <path id="Trazado_980720-2" data-name="Trazado 980720" d="M448.293,26.73a2.024,2.024,0,1,0,2.838-.374,2.024,2.024,0,0,0-2.838.374" transform="translate(-349.308 -11.41)" fill="#0a62a5"/>
                  <path id="Trazado_980721-2" data-name="Trazado 980721" d="M460.811,37.356a2.024,2.024,0,1,0,2.863,0,2.025,2.025,0,0,0-2.863,0" transform="translate(-354.738 -16.173)" fill="#0a62a5"/>
                  <path id="Trazado_980722-2" data-name="Trazado 980722" d="M471.835,49.525a2.025,2.025,0,1,0,2.838.374,2.024,2.024,0,0,0-2.838-.374" transform="translate(-359.5 -21.603)" fill="#0a62a5"/>
                </g>
              </g>
            </g>
            <path id="Trazado_980723-2" data-name="Trazado 980723" d="M326.707,634.311a61.916,61.916,0,1,0-61.916-61.916,61.916,61.916,0,0,0,61.916,61.916m0-112.283a50.367,50.367,0,1,1-50.367,50.367,50.367,50.367,0,0,1,50.367-50.367" transform="translate(-116.488 -224.571)" fill="#00aa87"/>
            <path id="Trazado_980724-2" data-name="Trazado 980724" d="M386.145,581.466A50.367,50.367,0,1,1,335.779,531.1a50.367,50.367,0,0,1,50.367,50.367" transform="translate(-125.559 -233.643)" fill="#00d2aa"/>
            <g id="Grupo_1144275-2" data-name="Grupo 1144275" transform="translate(152.277 388.595)" opacity="0.7">
              <g id="Grupo_1144274-3" data-name="Grupo 1144274">
                <g id="Grupo_1144273-3" data-name="Grupo 1144273" clip-path="url(#clip-path)">
                  <path id="Trazado_980725-3" data-name="Trazado 980725" d="M371.465,744.956a2.024,2.024,0,1,1,2.024,2.024,2.024,2.024,0,0,1-2.024-2.024" transform="translate(-315.693 -715.427)" fill="#00aa87"/>
                  <path id="Trazado_980726-3" data-name="Trazado 980726" d="M387.865,744.145a2.024,2.024,0,1,1,2.272,1.742,2.024,2.024,0,0,1-2.272-1.742" transform="translate(-322.9 -714.954)" fill="#00aa87"/>
                  <path id="Trazado_980727-3" data-name="Trazado 980727" d="M404.02,741.2a2.024,2.024,0,1,1,2.479,1.432,2.024,2.024,0,0,1-2.479-1.432" transform="translate(-329.984 -713.545)" fill="#00aa87"/>
                  <path id="Trazado_980728-3" data-name="Trazado 980728" d="M419.652,736.175a2.024,2.024,0,1,1,2.645,1.1,2.024,2.024,0,0,1-2.645-1.1" transform="translate(-336.824 -711.223)" fill="#00aa87"/>
                  <path id="Trazado_980729-3" data-name="Trazado 980729" d="M434.494,729.151a2.024,2.024,0,1,1,2.765.741,2.023,2.023,0,0,1-2.765-.741" transform="translate(-343.302 -708.029)" fill="#00aa87"/>
                  <path id="Trazado_980730-3" data-name="Trazado 980730" d="M448.293,720.25a2.024,2.024,0,1,1,2.838.373,2.025,2.025,0,0,1-2.838-.373" transform="translate(-349.308 -704.016)" fill="#00aa87"/>
                  <path id="Trazado_980731-3" data-name="Trazado 980731" d="M460.811,709.624a2.024,2.024,0,1,1,2.863,0,2.025,2.025,0,0,1-2.863,0" transform="translate(-354.738 -699.254)" fill="#00aa87"/>
                  <path id="Trazado_980732-3" data-name="Trazado 980732" d="M471.835,697.453a2.025,2.025,0,1,1,2.838-.374,2.024,2.024,0,0,1-2.838.374" transform="translate(-359.5 -693.823)" fill="#00aa87"/>
                  <path id="Trazado_980733-3" data-name="Trazado 980733" d="M460.811,709.624a2.024,2.024,0,1,1,2.863,0,2.025,2.025,0,0,1-2.863,0" transform="translate(-354.738 -699.254)" fill="#00aa87"/>
                  <path id="Trazado_980734-3" data-name="Trazado 980734" d="M471.835,697.453a2.025,2.025,0,1,1,2.838-.374,2.024,2.024,0,0,1-2.838.374" transform="translate(-359.5 -693.823)" fill="#00aa87"/>
                  <path id="Trazado_980735-3" data-name="Trazado 980735" d="M359.112,744.145a2.024,2.024,0,1,0-2.271,1.742,2.023,2.023,0,0,0,2.271-1.742" transform="translate(-308.485 -714.954)" fill="#00aa87"/>
                  <path id="Trazado_980736-3" data-name="Trazado 980736" d="M342.958,741.2a2.024,2.024,0,1,0-2.479,1.432,2.024,2.024,0,0,0,2.479-1.432" transform="translate(-301.401 -713.545)" fill="#00aa87"/>
                  <path id="Trazado_980737-3" data-name="Trazado 980737" d="M327.326,736.175a2.024,2.024,0,1,0-2.645,1.1,2.024,2.024,0,0,0,2.645-1.1" transform="translate(-294.562 -711.223)" fill="#00aa87"/>
                  <path id="Trazado_980738-3" data-name="Trazado 980738" d="M312.484,729.151a2.024,2.024,0,1,0-2.765.741,2.024,2.024,0,0,0,2.765-.741" transform="translate(-288.084 -708.029)" fill="#00aa87"/>
                  <path id="Trazado_980739-3" data-name="Trazado 980739" d="M298.685,720.25a2.024,2.024,0,1,0-2.839.373,2.024,2.024,0,0,0,2.839-.373" transform="translate(-282.078 -704.016)" fill="#00aa87"/>
                  <path id="Trazado_980740-3" data-name="Trazado 980740" d="M286.167,709.624a2.024,2.024,0,1,0-2.863,0,2.023,2.023,0,0,0,2.863,0" transform="translate(-276.648 -699.254)" fill="#00aa87"/>
                  <path id="Trazado_980741-3" data-name="Trazado 980741" d="M275.143,697.453a2.024,2.024,0,1,0-2.838-.374,2.025,2.025,0,0,0,2.838.374" transform="translate(-271.886 -693.823)" fill="#00aa87"/>
                </g>
              </g>
            </g>
            <path id="Trazado_980742-2" data-name="Trazado 980742" d="M634.311,326.443a61.916,61.916,0,1,0-61.916,61.916,61.917,61.917,0,0,0,61.916-61.916m-112.283,0a50.367,50.367,0,1,1,50.367,50.367,50.367,50.367,0,0,1-50.367-50.367" transform="translate(-224.571 -116.371)" fill="#008cb4"/>
            <path id="Trazado_980743-2" data-name="Trazado 980743" d="M581.467,285.147A50.367,50.367,0,1,1,531.1,335.514a50.367,50.367,0,0,1,50.367-50.367" transform="translate(-233.643 -125.443)" fill="#00aae1"/>
            <g id="Grupo_1144278-2" data-name="Grupo 1144278" transform="translate(388.594 152.275)" opacity="0.7">
              <g id="Grupo_1144277-2" data-name="Grupo 1144277">
                <g id="Grupo_1144276-2" data-name="Grupo 1144276" clip-path="url(#clip-path-2)">
                  <path id="Trazado_980744-2" data-name="Trazado 980744" d="M744.954,375.51a2.024,2.024,0,1,1,2.025-2.024,2.024,2.024,0,0,1-2.025,2.024" transform="translate(-715.426 -315.689)" fill="#008cb4"/>
                  <path id="Trazado_980745-2" data-name="Trazado 980745" d="M744.145,359.109a2.024,2.024,0,1,1,1.742-2.272,2.025,2.025,0,0,1-1.742,2.272" transform="translate(-714.954 -308.482)" fill="#008cb4"/>
                  <path id="Trazado_980746-2" data-name="Trazado 980746" d="M741.2,342.955a2.025,2.025,0,1,1,1.432-2.479,2.024,2.024,0,0,1-1.432,2.479" transform="translate(-713.545 -301.397)" fill="#008cb4"/>
                  <path id="Trazado_980747-2" data-name="Trazado 980747" d="M736.174,327.323a2.025,2.025,0,1,1,1.1-2.645,2.025,2.025,0,0,1-1.1,2.645" transform="translate(-711.223 -294.558)" fill="#008cb4"/>
                  <path id="Trazado_980748-2" data-name="Trazado 980748" d="M729.151,312.48a2.024,2.024,0,1,1,.741-2.765,2.023,2.023,0,0,1-.741,2.765" transform="translate(-708.029 -288.08)" fill="#008cb4"/>
                  <path id="Trazado_980749-2" data-name="Trazado 980749" d="M720.249,298.682a2.024,2.024,0,1,1,.374-2.838,2.022,2.022,0,0,1-.374,2.838" transform="translate(-704.016 -282.075)" fill="#008cb4"/>
                  <path id="Trazado_980750-2" data-name="Trazado 980750" d="M709.623,286.164a2.024,2.024,0,1,1,0-2.863,2.025,2.025,0,0,1,0,2.863" transform="translate(-699.253 -276.645)" fill="#008cb4"/>
                  <path id="Trazado_980751-2" data-name="Trazado 980751" d="M697.454,275.139a2.024,2.024,0,1,1-.374-2.838,2.025,2.025,0,0,1,.374,2.838" transform="translate(-693.823 -271.882)" fill="#008cb4"/>
                  <path id="Trazado_980752-2" data-name="Trazado 980752" d="M709.623,286.164a2.024,2.024,0,1,1,0-2.863,2.025,2.025,0,0,1,0,2.863" transform="translate(-699.253 -276.645)" fill="#008cb4"/>
                  <path id="Trazado_980753-2" data-name="Trazado 980753" d="M697.454,275.139a2.024,2.024,0,1,1-.374-2.838,2.025,2.025,0,0,1,.374,2.838" transform="translate(-693.823 -271.882)" fill="#008cb4"/>
                  <path id="Trazado_980754-2" data-name="Trazado 980754" d="M744.145,387.862a2.024,2.024,0,1,0,1.742,2.271,2.025,2.025,0,0,0-1.742-2.271" transform="translate(-714.954 -322.897)" fill="#008cb4"/>
                  <path id="Trazado_980755-2" data-name="Trazado 980755" d="M741.2,404.016a2.024,2.024,0,1,0,1.432,2.479,2.024,2.024,0,0,0-1.432-2.479" transform="translate(-713.545 -329.98)" fill="#008cb4"/>
                  <path id="Trazado_980756-2" data-name="Trazado 980756" d="M736.174,419.648a2.025,2.025,0,1,0,1.1,2.645,2.025,2.025,0,0,0-1.1-2.645" transform="translate(-711.223 -336.819)" fill="#008cb4"/>
                  <path id="Trazado_980757-2" data-name="Trazado 980757" d="M729.151,434.491a2.024,2.024,0,1,0,.741,2.765,2.024,2.024,0,0,0-.741-2.765" transform="translate(-708.029 -343.298)" fill="#008cb4"/>
                  <path id="Trazado_980758-2" data-name="Trazado 980758" d="M720.249,448.29a2.024,2.024,0,1,0,.374,2.837,2.024,2.024,0,0,0-.374-2.837" transform="translate(-704.016 -349.304)" fill="#008cb4"/>
                  <path id="Trazado_980759-2" data-name="Trazado 980759" d="M709.623,460.808a2.025,2.025,0,1,0,0,2.863,2.026,2.026,0,0,0,0-2.863" transform="translate(-699.253 -354.734)" fill="#008cb4"/>
                  <path id="Trazado_980760-2" data-name="Trazado 980760" d="M697.454,471.833a2.024,2.024,0,1,0-.374,2.838,2.024,2.024,0,0,0,.374-2.838" transform="translate(-693.823 -359.496)" fill="#008cb4"/>
                </g>
              </g>
            </g>
            <path id="Trazado_980761-3" data-name="Trazado 980761" d="M18.582,326.443A61.916,61.916,0,1,0,80.5,264.526a61.916,61.916,0,0,0-61.916,61.917m112.283,0A50.367,50.367,0,1,1,80.5,276.075a50.367,50.367,0,0,1,50.367,50.367" transform="translate(-8.175 -116.371)" fill="#00aab4"/>
            <path id="Trazado_980762-3" data-name="Trazado 980762" d="M89.57,385.881a50.367,50.367,0,1,1,50.367-50.367A50.367,50.367,0,0,1,89.57,385.881" transform="translate(-17.246 -125.443)" fill="#00d7e1"/>
            <g id="Grupo_1144281-3" data-name="Grupo 1144281" transform="translate(0 152.275)" opacity="0.7">
              <g id="Grupo_1144280-3" data-name="Grupo 1144280">
                <g id="Grupo_1144279-3" data-name="Grupo 1144279" clip-path="url(#clip-path-3)">
                  <path id="Trazado_980763-3" data-name="Trazado 980763" d="M2.024,371.461A2.024,2.024,0,1,1,0,373.486a2.024,2.024,0,0,1,2.024-2.025" transform="translate(0 -315.689)" fill="#00aab4"/>
                  <path id="Trazado_980764-3" data-name="Trazado 980764" d="M2.834,387.862a2.024,2.024,0,1,1-1.742,2.271,2.024,2.024,0,0,1,1.742-2.271" transform="translate(-0.472 -322.897)" fill="#00aab4"/>
                  <path id="Trazado_980765-3" data-name="Trazado 980765" d="M5.777,404.016A2.024,2.024,0,1,1,4.345,406.5a2.024,2.024,0,0,1,1.432-2.479" transform="translate(-1.881 -329.98)" fill="#00aab4"/>
                  <path id="Trazado_980766-3" data-name="Trazado 980766" d="M10.8,419.648a2.025,2.025,0,1,1-1.1,2.645,2.025,2.025,0,0,1,1.1-2.645" transform="translate(-4.203 -336.819)" fill="#00aab4"/>
                  <path id="Trazado_980767-3" data-name="Trazado 980767" d="M17.828,434.491a2.024,2.024,0,1,1-.741,2.765,2.025,2.025,0,0,1,.741-2.765" transform="translate(-7.397 -343.298)" fill="#00aab4"/>
                  <path id="Trazado_980768-3" data-name="Trazado 980768" d="M26.729,448.29a2.024,2.024,0,1,1-.374,2.837,2.024,2.024,0,0,1,.374-2.837" transform="translate(-11.41 -349.304)" fill="#00aab4"/>
                  <path id="Trazado_980769-3" data-name="Trazado 980769" d="M37.356,460.808a2.024,2.024,0,1,1,0,2.863,2.026,2.026,0,0,1,0-2.863" transform="translate(-16.173 -354.734)" fill="#00aab4"/>
                  <path id="Trazado_980770-3" data-name="Trazado 980770" d="M49.525,471.833a2.024,2.024,0,1,1,.374,2.838,2.024,2.024,0,0,1-.374-2.838" transform="translate(-21.603 -359.496)" fill="#00aab4"/>
                  <path id="Trazado_980771-3" data-name="Trazado 980771" d="M37.356,460.808a2.024,2.024,0,1,1,0,2.863,2.026,2.026,0,0,1,0-2.863" transform="translate(-16.173 -354.734)" fill="#00aab4"/>
                  <path id="Trazado_980772-3" data-name="Trazado 980772" d="M49.525,471.833a2.024,2.024,0,1,1,.374,2.838,2.024,2.024,0,0,1-.374-2.838" transform="translate(-21.603 -359.496)" fill="#00aab4"/>
                  <path id="Trazado_980773-3" data-name="Trazado 980773" d="M2.834,359.109a2.024,2.024,0,1,0-1.742-2.272,2.024,2.024,0,0,0,1.742,2.272" transform="translate(-0.472 -308.482)" fill="#00aab4"/>
                  <path id="Trazado_980774-3" data-name="Trazado 980774" d="M5.777,342.955a2.024,2.024,0,1,0-1.432-2.479,2.024,2.024,0,0,0,1.432,2.479" transform="translate(-1.881 -301.397)" fill="#00aab4"/>
                  <path id="Trazado_980775-3" data-name="Trazado 980775" d="M10.8,327.323a2.025,2.025,0,1,0-1.1-2.645,2.025,2.025,0,0,0,1.1,2.645" transform="translate(-4.203 -294.558)" fill="#00aab4"/>
                  <path id="Trazado_980776-3" data-name="Trazado 980776" d="M17.828,312.48a2.024,2.024,0,1,0-.741-2.765,2.023,2.023,0,0,0,.741,2.765" transform="translate(-7.397 -288.08)" fill="#00aab4"/>
                  <path id="Trazado_980777-3" data-name="Trazado 980777" d="M26.729,298.682a2.024,2.024,0,1,0-.374-2.838,2.023,2.023,0,0,0,.374,2.838" transform="translate(-11.41 -282.075)" fill="#00aab4"/>
                  <path id="Trazado_980778-3" data-name="Trazado 980778" d="M37.356,286.164a2.024,2.024,0,1,0,0-2.863,2.024,2.024,0,0,0,0,2.863" transform="translate(-16.173 -276.645)" fill="#00aab4"/>
                  <path id="Trazado_980779-3" data-name="Trazado 980779" d="M49.525,275.139A2.024,2.024,0,1,0,49.9,272.3a2.025,2.025,0,0,0-.374,2.838" transform="translate(-21.603 -271.882)" fill="#00aab4"/>
                </g>
              </g>
            </g>
            <path id="Trazado_980780-2" data-name="Trazado 980780" d="M378.443,264.526h-3.1c1.041,0,2.075.028,3.1.078Z" transform="translate(-165.121 -116.371)" fill="#1e415a"/>
            <path id="Trazado_980781-2" data-name="Trazado 980781" d="M375.34,485.563h3.1v-.079q-1.542.076-3.1.079" transform="translate(-165.121 -213.576)" fill="#1e415a"/>
            <path id="Trazado_980782-2" data-name="Trazado 980782" d="M375.083,485.622h.144c-.048,0-.1,0-.144,0Z" transform="translate(-165.008 -213.634)" fill="#1e415a"/>
            <path id="Trazado_980783-2" data-name="Trazado 980783" d="M375.083,264.53c.048,0,.1,0,.144,0h-.144Z" transform="translate(-165.008 -116.371)" fill="#1e415a"/>
            <path id="Trazado_980784-2" data-name="Trazado 980784" d="M451.028,326.443a61.916,61.916,0,0,1,61.916-61.917H375.34a61.917,61.917,0,0,1,61.917,61.917v61.916h75.687a61.916,61.916,0,0,1-61.916-61.916" transform="translate(-165.121 -116.371)" fill="#00aae1"/>
            <path id="Trazado_980785" data-name="Trazado 980785" d="M205.111,326.443a61.916,61.916,0,0,1,61.916-61.917h-137.9a61.916,61.916,0,0,1,0,123.833h137.9a61.916,61.916,0,0,1-61.916-61.916" transform="translate(-56.808 -116.371)" fill="#00d7e1"/>
            <path id="Trazado_980786-2" data-name="Trazado 980786" d="M326.592,436.992H264.53v75.836h.146a61.916,61.916,0,0,1,123.832,0V375.076a61.916,61.916,0,0,1-61.917,61.916" transform="translate(-116.373 -165.005)" fill="#00d2aa"/>
            <path id="Trazado_980787-2" data-name="Trazado 980787" d="M388.477,204.963V133.18a61.909,61.909,0,0,1-123.686-4.049V266.879a61.916,61.916,0,0,1,61.916-61.917Z" transform="translate(-116.488 -56.808)" fill="#0082d2"/>
            <path id="Trazado_980788-2" data-name="Trazado 980788" d="M380.918,264.668c.35.017.7.053,1.045.076-.348-.023-.694-.059-1.045-.076" transform="translate(-167.575 -116.434)" fill="#d5da23"/>
          </g>
        </g>
      </g>
    </g>
    <path id="Trazado_981269" data-name="Trazado 981269" d="M9.8-11.2,5.648,0H4.2L.141-11.2H1.6L4.7-2.32a5.274,5.274,0,0,1,.227.992h.031a4.866,4.866,0,0,1,.258-1.008L8.383-11.2ZM16.65-3.68H11a2.992,2.992,0,0,0,.719,2.063,2.478,2.478,0,0,0,1.891.727A3.931,3.931,0,0,0,16.1-1.781v1.2a4.643,4.643,0,0,1-2.789.766A3.381,3.381,0,0,1,10.642-.9a4.461,4.461,0,0,1-.969-3.066,4.375,4.375,0,0,1,1.059-3.043,3.394,3.394,0,0,1,2.629-1.176,3.008,3.008,0,0,1,2.43,1.016,4.234,4.234,0,0,1,.859,2.82ZM15.338-4.766A2.607,2.607,0,0,0,14.8-6.492a1.823,1.823,0,0,0-1.465-.617,2.07,2.07,0,0,0-1.539.648,2.943,2.943,0,0,0-.781,1.7ZM25.23,0H23.949V-4.562q0-2.547-1.859-2.547a2.017,2.017,0,0,0-1.59.723,2.679,2.679,0,0,0-.629,1.824V0H18.589V-8H19.87v1.328H19.9a2.887,2.887,0,0,1,2.625-1.516,2.448,2.448,0,0,1,2.008.848,3.776,3.776,0,0,1,.7,2.449Zm6.127-.078a2.47,2.47,0,0,1-1.2.25q-2.1,0-2.1-2.344V-6.906H26.684V-8h1.375V-9.953l1.281-.414V-8h2.016v1.094H29.341V-2.4a1.869,1.869,0,0,0,.273,1.148,1.091,1.091,0,0,0,.906.344,1.347,1.347,0,0,0,.836-.266ZM38.8,0H37.514V-1.25h-.031A2.682,2.682,0,0,1,35.022.188a2.63,2.63,0,0,1-1.871-.633,2.192,2.192,0,0,1-.676-1.68q0-2.242,2.641-2.609l2.4-.336q0-2.039-1.648-2.039a3.938,3.938,0,0,0-2.609.984V-7.437a4.958,4.958,0,0,1,2.719-.75q2.82,0,2.82,2.984ZM37.514-4.047l-1.93.266a3.133,3.133,0,0,0-1.344.441,1.273,1.273,0,0,0-.453,1.121,1.221,1.221,0,0,0,.418.957,1.615,1.615,0,0,0,1.113.371,2.056,2.056,0,0,0,1.574-.668,2.387,2.387,0,0,0,.621-1.691ZM40.727-.289V-1.664a3.792,3.792,0,0,0,2.3.773q1.688,0,1.688-1.125a.976.976,0,0,0-.145-.543,1.44,1.44,0,0,0-.391-.395,3.007,3.007,0,0,0-.578-.309q-.332-.137-.715-.285a9.207,9.207,0,0,1-.934-.426,2.82,2.82,0,0,1-.672-.484,1.8,1.8,0,0,1-.406-.613,2.17,2.17,0,0,1-.137-.8,1.912,1.912,0,0,1,.258-1,2.286,2.286,0,0,1,.688-.727,3.206,3.206,0,0,1,.98-.441A4.349,4.349,0,0,1,43.8-8.187a4.59,4.59,0,0,1,1.859.359v1.3a3.624,3.624,0,0,0-2.031-.578,2.374,2.374,0,0,0-.648.082,1.587,1.587,0,0,0-.5.23,1.065,1.065,0,0,0-.32.355.936.936,0,0,0-.113.457,1.1,1.1,0,0,0,.113.523,1.152,1.152,0,0,0,.332.375,2.538,2.538,0,0,0,.531.3q.312.133.711.289a9.894,9.894,0,0,1,.953.418,3.269,3.269,0,0,1,.719.484,1.893,1.893,0,0,1,.457.621,2,2,0,0,1,.16.836,1.971,1.971,0,0,1-.262,1.031,2.243,2.243,0,0,1-.7.727,3.2,3.2,0,0,1-1.008.43,4.976,4.976,0,0,1-1.2.141A4.539,4.539,0,0,1,40.727-.289Z" transform="translate(452.889 2774.701)" fill="#fff"/>
    <path id="Trazado_981270" data-name="Trazado 981270" d="M8.094-10.016H4.859V0H3.547V-10.016H.32V-11.2H8.094Zm2.244-.016a.812.812,0,0,1-.586-.234.791.791,0,0,1-.242-.594.8.8,0,0,1,.242-.6.8.8,0,0,1,.586-.238.827.827,0,0,1,.6.238.8.8,0,0,1,.246.6.792.792,0,0,1-.246.586A.82.82,0,0,1,10.338-10.031ZM10.963,0H9.681V-8h1.281Zm9.025-3.68H14.339a2.992,2.992,0,0,0,.719,2.063,2.478,2.478,0,0,0,1.891.727,3.931,3.931,0,0,0,2.484-.891v1.2a4.643,4.643,0,0,1-2.789.766A3.381,3.381,0,0,1,13.98-.9a4.461,4.461,0,0,1-.969-3.066A4.375,4.375,0,0,1,14.07-7.012,3.394,3.394,0,0,1,16.7-8.187a3.008,3.008,0,0,1,2.43,1.016,4.234,4.234,0,0,1,.859,2.82ZM18.675-4.766a2.607,2.607,0,0,0-.535-1.727,1.823,1.823,0,0,0-1.465-.617,2.07,2.07,0,0,0-1.539.648,2.943,2.943,0,0,0-.781,1.7ZM33.286,0H32V-4.594a3.466,3.466,0,0,0-.41-1.922,1.555,1.555,0,0,0-1.379-.594,1.708,1.708,0,0,0-1.395.75,2.869,2.869,0,0,0-.574,1.8V0H26.966V-4.75q0-2.359-1.82-2.359a1.686,1.686,0,0,0-1.391.707,2.923,2.923,0,0,0-.547,1.84V0H21.927V-8h1.281v1.266h.031a2.718,2.718,0,0,1,2.484-1.453,2.316,2.316,0,0,1,1.43.457,2.3,2.3,0,0,1,.836,1.2,2.855,2.855,0,0,1,2.656-1.656q2.641,0,2.641,3.258Zm3.736-1.156h-.031V3.68H35.71V-8h1.281v1.406h.031a3.03,3.03,0,0,1,2.766-1.594A2.93,2.93,0,0,1,42.2-7.113a4.449,4.449,0,0,1,.867,2.879,4.959,4.959,0,0,1-.977,3.215A3.251,3.251,0,0,1,39.42.188,2.676,2.676,0,0,1,37.022-1.156Zm-.031-3.227v1.117a2.379,2.379,0,0,0,.645,1.684,2.14,2.14,0,0,0,1.637.691A2.145,2.145,0,0,0,41.1-1.781a4.086,4.086,0,0,0,.66-2.477,3.225,3.225,0,0,0-.617-2.094,2.043,2.043,0,0,0-1.672-.758,2.27,2.27,0,0,0-1.8.777A2.854,2.854,0,0,0,36.991-4.383ZM48.461.188A3.711,3.711,0,0,1,45.629-.934a4.153,4.153,0,0,1-1.059-2.973,4.326,4.326,0,0,1,1.1-3.148,3.96,3.96,0,0,1,2.977-1.133,3.588,3.588,0,0,1,2.793,1.1,4.368,4.368,0,0,1,1,3.055A4.3,4.3,0,0,1,51.363-.965,3.791,3.791,0,0,1,48.461.188Zm.094-7.3a2.437,2.437,0,0,0-1.953.84,3.449,3.449,0,0,0-.719,2.316,3.262,3.262,0,0,0,.727,2.242,2.469,2.469,0,0,0,1.945.82,2.342,2.342,0,0,0,1.91-.8,3.492,3.492,0,0,0,.668-2.289A3.552,3.552,0,0,0,50.465-6.3,2.332,2.332,0,0,0,48.555-7.109Z" transform="translate(450.573 2638.699)" fill="#fff"/>
    <path id="Trazado_981271" data-name="Trazado 981271" d="M2.781-4.234V0H1.469V-11.2H4.547a4.063,4.063,0,0,1,2.785.875A3.124,3.124,0,0,1,8.32-7.859a3.4,3.4,0,0,1-1.1,2.609A4.194,4.194,0,0,1,4.258-4.234Zm0-5.781v4.594H4.156A3.074,3.074,0,0,0,6.23-6.043,2.2,2.2,0,0,0,6.945-7.8q0-2.219-2.625-2.219ZM14.431-6.7a1.567,1.567,0,0,0-.969-.258,1.635,1.635,0,0,0-1.371.773,3.576,3.576,0,0,0-.551,2.109V0H10.259V-8h1.281v1.648h.031a2.793,2.793,0,0,1,.836-1.316,1.906,1.906,0,0,1,1.258-.473,2.092,2.092,0,0,1,.766.109ZM19.167.188A3.711,3.711,0,0,1,16.335-.934a4.153,4.153,0,0,1-1.059-2.973,4.326,4.326,0,0,1,1.1-3.148,3.96,3.96,0,0,1,2.977-1.133,3.588,3.588,0,0,1,2.793,1.1,4.368,4.368,0,0,1,1,3.055A4.3,4.3,0,0,1,22.07-.965,3.791,3.791,0,0,1,19.167.188Zm.094-7.3a2.437,2.437,0,0,0-1.953.84,3.449,3.449,0,0,0-.719,2.316,3.262,3.262,0,0,0,.727,2.242,2.469,2.469,0,0,0,1.945.82,2.342,2.342,0,0,0,1.91-.8,3.492,3.492,0,0,0,.668-2.289A3.552,3.552,0,0,0,21.171-6.3,2.332,2.332,0,0,0,19.261-7.109ZM32.028,0H30.747V-1.359h-.031A2.958,2.958,0,0,1,27.966.188a2.988,2.988,0,0,1-2.41-1.074,4.407,4.407,0,0,1-.9-2.926,4.794,4.794,0,0,1,1-3.18,3.3,3.3,0,0,1,2.664-1.2,2.564,2.564,0,0,1,2.4,1.3h.031v-4.953h1.281ZM30.747-3.617V-4.8a2.289,2.289,0,0,0-.641-1.641,2.149,2.149,0,0,0-1.625-.672,2.212,2.212,0,0,0-1.844.859,3.766,3.766,0,0,0-.672,2.375,3.387,3.387,0,0,0,.645,2.184,2.107,2.107,0,0,0,1.73.8,2.188,2.188,0,0,0,1.738-.773A2.882,2.882,0,0,0,30.747-3.617ZM41.092,0H39.811V-1.266H39.78A2.631,2.631,0,0,1,37.311.188q-2.859,0-2.859-3.406V-8h1.273v4.578q0,2.531,1.938,2.531a1.96,1.96,0,0,0,1.543-.691,2.645,2.645,0,0,0,.605-1.809V-8h1.281Zm8.041-.367a4.163,4.163,0,0,1-2.187.555A3.622,3.622,0,0,1,44.184-.926a4.035,4.035,0,0,1-1.051-2.887,4.435,4.435,0,0,1,1.133-3.176,3.963,3.963,0,0,1,3.023-1.2,4.209,4.209,0,0,1,1.859.391v1.313a3.258,3.258,0,0,0-1.906-.625,2.576,2.576,0,0,0-2.012.879,3.335,3.335,0,0,0-.785,2.309A3.176,3.176,0,0,0,45.184-1.7a2.545,2.545,0,0,0,1.98.813,3.211,3.211,0,0,0,1.969-.7Zm5.65.289a2.47,2.47,0,0,1-1.2.25q-2.1,0-2.1-2.344V-6.906H50.111V-8h1.375V-9.953l1.281-.414V-8h2.016v1.094H52.767V-2.4a1.869,1.869,0,0,0,.273,1.148,1.091,1.091,0,0,0,.906.344,1.347,1.347,0,0,0,.836-.266Zm5.056.266A3.711,3.711,0,0,1,57.007-.934a4.153,4.153,0,0,1-1.059-2.973,4.326,4.326,0,0,1,1.1-3.148,3.96,3.96,0,0,1,2.977-1.133,3.588,3.588,0,0,1,2.793,1.1,4.368,4.368,0,0,1,1,3.055A4.3,4.3,0,0,1,62.742-.965,3.791,3.791,0,0,1,59.839.188Zm.094-7.3a2.437,2.437,0,0,0-1.953.84,3.449,3.449,0,0,0-.719,2.316,3.262,3.262,0,0,0,.727,2.242,2.469,2.469,0,0,0,1.945.82,2.342,2.342,0,0,0,1.91-.8,3.492,3.492,0,0,0,.668-2.289A3.552,3.552,0,0,0,61.843-6.3,2.332,2.332,0,0,0,59.933-7.109Z" transform="translate(444.889 2912.957)" fill="#fff"/>
    <path id="Trazado_981272" data-name="Trazado 981272" d="M9.094-.469A6.571,6.571,0,0,1,6,.188,4.989,4.989,0,0,1,2.172-1.352,5.679,5.679,0,0,1,.734-5.391,5.952,5.952,0,0,1,2.352-9.734a5.489,5.489,0,0,1,4.1-1.656,6.576,6.576,0,0,1,2.641.461v1.4A5.355,5.355,0,0,0,6.438-10.2,4.076,4.076,0,0,0,3.309-8.914a4.856,4.856,0,0,0-1.2,3.445A4.621,4.621,0,0,0,3.23-2.207,3.815,3.815,0,0,0,6.172-.992a5.518,5.518,0,0,0,2.922-.75ZM12.486,0H11.2V-11.844h1.281Zm3.252-10.031a.812.812,0,0,1-.586-.234.791.791,0,0,1-.242-.594.8.8,0,0,1,.242-.6.8.8,0,0,1,.586-.238.827.827,0,0,1,.6.238.8.8,0,0,1,.246.6.792.792,0,0,1-.246.586A.82.82,0,0,1,15.738-10.031ZM16.363,0H15.081V-8h1.281Zm9.025-3.68H19.739a2.992,2.992,0,0,0,.719,2.063,2.478,2.478,0,0,0,1.891.727,3.931,3.931,0,0,0,2.484-.891v1.2a4.643,4.643,0,0,1-2.789.766A3.381,3.381,0,0,1,19.38-.9a4.461,4.461,0,0,1-.969-3.066A4.375,4.375,0,0,1,19.47-7.012,3.394,3.394,0,0,1,22.1-8.187a3.008,3.008,0,0,1,2.43,1.016,4.234,4.234,0,0,1,.859,2.82ZM24.075-4.766a2.607,2.607,0,0,0-.535-1.727,1.823,1.823,0,0,0-1.465-.617,2.07,2.07,0,0,0-1.539.648,2.943,2.943,0,0,0-.781,1.7ZM33.967,0H32.686V-4.562q0-2.547-1.859-2.547a2.017,2.017,0,0,0-1.59.723,2.679,2.679,0,0,0-.629,1.824V0H27.327V-8h1.281v1.328h.031a2.887,2.887,0,0,1,2.625-1.516,2.448,2.448,0,0,1,2.008.848,3.776,3.776,0,0,1,.7,2.449Zm6.127-.078a2.47,2.47,0,0,1-1.2.25q-2.1,0-2.1-2.344V-6.906H35.422V-8H36.8V-9.953l1.281-.414V-8h2.016v1.094H38.078V-2.4a1.869,1.869,0,0,0,.273,1.148,1.091,1.091,0,0,0,.906.344,1.347,1.347,0,0,0,.836-.266Zm8.142-3.6H42.588a2.992,2.992,0,0,0,.719,2.063A2.478,2.478,0,0,0,45.2-.891a3.931,3.931,0,0,0,2.484-.891v1.2a4.643,4.643,0,0,1-2.789.766A3.381,3.381,0,0,1,42.228-.9a4.461,4.461,0,0,1-.969-3.066,4.375,4.375,0,0,1,1.059-3.043,3.394,3.394,0,0,1,2.629-1.176,3.008,3.008,0,0,1,2.43,1.016,4.234,4.234,0,0,1,.859,2.82ZM46.924-4.766a2.607,2.607,0,0,0-.535-1.727,1.823,1.823,0,0,0-1.465-.617,2.07,2.07,0,0,0-1.539.648,2.943,2.943,0,0,0-.781,1.7Z" transform="translate(585.663 2775.879)" fill="#fff"/>
    <path id="Trazado_981273" data-name="Trazado 981273" d="M8.094-10.016H4.859V0H3.547V-10.016H.32V-11.2H8.094Zm2.244-.016a.812.812,0,0,1-.586-.234.791.791,0,0,1-.242-.594.8.8,0,0,1,.242-.6.8.8,0,0,1,.586-.238.827.827,0,0,1,.6.238.8.8,0,0,1,.246.6.792.792,0,0,1-.246.586A.82.82,0,0,1,10.338-10.031ZM10.963,0H9.681V-8h1.281Zm9.025-3.68H14.339a2.992,2.992,0,0,0,.719,2.063,2.478,2.478,0,0,0,1.891.727,3.931,3.931,0,0,0,2.484-.891v1.2a4.643,4.643,0,0,1-2.789.766A3.381,3.381,0,0,1,13.98-.9a4.461,4.461,0,0,1-.969-3.066A4.375,4.375,0,0,1,14.07-7.012,3.394,3.394,0,0,1,16.7-8.187a3.008,3.008,0,0,1,2.43,1.016,4.234,4.234,0,0,1,.859,2.82ZM18.675-4.766a2.607,2.607,0,0,0-.535-1.727,1.823,1.823,0,0,0-1.465-.617,2.07,2.07,0,0,0-1.539.648,2.943,2.943,0,0,0-.781,1.7ZM28.567,0H27.286V-4.562q0-2.547-1.859-2.547a2.017,2.017,0,0,0-1.59.723,2.679,2.679,0,0,0-.629,1.824V0H21.927V-8h1.281v1.328h.031a2.887,2.887,0,0,1,2.625-1.516,2.448,2.448,0,0,1,2.008.848,3.776,3.776,0,0,1,.7,2.449Zm9.244,0H36.53V-1.359H36.5A2.958,2.958,0,0,1,33.749.188a2.988,2.988,0,0,1-2.41-1.074,4.407,4.407,0,0,1-.9-2.926,4.794,4.794,0,0,1,1-3.18,3.3,3.3,0,0,1,2.664-1.2,2.564,2.564,0,0,1,2.4,1.3h.031v-4.953h1.281ZM36.53-3.617V-4.8a2.289,2.289,0,0,0-.641-1.641,2.149,2.149,0,0,0-1.625-.672,2.212,2.212,0,0,0-1.844.859,3.766,3.766,0,0,0-.672,2.375,3.387,3.387,0,0,0,.645,2.184,2.107,2.107,0,0,0,1.73.8,2.188,2.188,0,0,0,1.738-.773A2.882,2.882,0,0,0,36.53-3.617ZM46.133,0H44.852V-1.25h-.031A2.682,2.682,0,0,1,42.36.188a2.63,2.63,0,0,1-1.871-.633,2.192,2.192,0,0,1-.676-1.68q0-2.242,2.641-2.609l2.4-.336q0-2.039-1.648-2.039a3.938,3.938,0,0,0-2.609.984V-7.437a4.958,4.958,0,0,1,2.719-.75q2.82,0,2.82,2.984ZM44.852-4.047l-1.93.266a3.133,3.133,0,0,0-1.344.441,1.273,1.273,0,0,0-.453,1.121,1.221,1.221,0,0,0,.418.957,1.615,1.615,0,0,0,1.113.371,2.056,2.056,0,0,0,1.574-.668,2.387,2.387,0,0,0,.621-1.691Z" transform="translate(314.739 2775.879)" fill="#fff"/>
    <g id="tiempo-restante" transform="translate(465.078 2651.316)">
      <g id="Layer_2_16_2" data-name="Layer_2_16_" transform="translate(0 0)">
        <g id="Grupo_1144286-2" data-name="Grupo 1144286" transform="translate(0 0)">
          <path id="Trazado_980794-2" data-name="Trazado 980794" d="M254.167,423.186c-.214.053-.432.1-.648.14a1.042,1.042,0,0,0,.38,2.049c.258-.048.517-.1.772-.168a1.042,1.042,0,0,0-.5-2.022Z" transform="translate(-238.588 -399.67)" fill="#fff"/>
          <path id="Trazado_980795-2" data-name="Trazado 980795" d="M412.762,138.263a1.042,1.042,0,0,0,1.979-.655c-.082-.249-.174-.5-.271-.742a1.042,1.042,0,1,0-1.935.774C412.616,137.844,412.693,138.054,412.762,138.263Z" transform="translate(-389.476 -128.714)" fill="#fff"/>
          <path id="Trazado_980796-2" data-name="Trazado 980796" d="M321.953,394.084c-.184.121-.374.239-.565.349a1.042,1.042,0,1,0,1.041,1.805c.227-.131.453-.27.672-.415a1.042,1.042,0,0,0-1.149-1.739Z" transform="translate(-302.987 -372.055)" fill="#fff"/>
          <path id="Trazado_980797-2" data-name="Trazado 980797" d="M429.718,208.313a1.042,1.042,0,1,0-2.083.082c.009.22.011.443.006.663a1.042,1.042,0,1,0,2.084.046C429.73,208.841,429.728,208.575,429.718,208.313Z" transform="translate(-403.805 -195.854)" fill="#fff"/>
          <path id="Trazado_980798-2" data-name="Trazado 980798" d="M378.878,344.277a1.042,1.042,0,0,0-1.459.208c-.132.176-.272.35-.414.518a1.042,1.042,0,0,0,.118,1.469c.025.021.05.041.076.059a1.042,1.042,0,0,0,1.393-.177c.17-.2.336-.408.495-.619A1.042,1.042,0,0,0,378.878,344.277Z" transform="translate(-355.762 -324.99)" fill="#fff"/>
          <path id="Trazado_980799-2" data-name="Trazado 980799" d="M415.344,279.4a1.042,1.042,0,0,0-1.306.683c-.066.21-.139.421-.218.627a1.042,1.042,0,0,0,1.947.742c.094-.245.18-.5.259-.746A1.042,1.042,0,0,0,415.344,279.4Z" transform="translate(-390.696 -263.879)" fill="#fff"/>
          <path id="Trazado_980800-2" data-name="Trazado 980800" d="M11.033,25.354A10.76,10.76,0,0,1,8.361,24.5l-.03-.016c-.2-.094-.4-.195-.592-.3l0,0A11.117,11.117,0,0,1,6.7,23.539,10.874,10.874,0,0,1,6.744,5.727L6.782,5.7A10.893,10.893,0,0,1,18.99,5.6L18.176,6.78c-.226.327-.087.566.309.53l3.537-.317a.583.583,0,0,0,.527-.762L21.6,2.81c-.106-.384-.379-.43-.605-.1l-.816,1.179a12.869,12.869,0,0,0-9.43-2.005q-.5.087-.987.211H9.754L9.717,2.1A12.85,12.85,0,0,0,2.591,6.879c-.015.018-.03.035-.045.054-.059.08-.118.161-.175.243-.094.134-.187.27-.275.407-.011.016-.02.033-.029.05A12.847,12.847,0,0,0,.014,15.211c0,.009,0,.018,0,.027.012.261.032.526.061.787,0,.017.005.033.008.05.029.262.066.525.111.788A12.861,12.861,0,0,0,3.82,23.837l.013.014,0,0A13.131,13.131,0,0,0,5.5,25.243a12.849,12.849,0,0,0,5.167,2.162,1.042,1.042,0,0,0,.368-2.051Z" transform="translate(0 -1.688)" fill="#fff"/>
          <path id="Trazado_980801-2" data-name="Trazado 980801" d="M206.83,83.2a.843.843,0,0,0-.843.843v8.4l7.682,3.971a.843.843,0,0,0,.774-1.5l-6.771-3.5V84.041A.843.843,0,0,0,206.83,83.2Z" transform="translate(-194.509 -78.656)" fill="#fff"/>
        </g>
      </g>
    </g>
    <path id="mujer-2" data-name="mujer" d="M92.374,25.028v2.785a.471.471,0,0,1-.943,0V25.028a3.92,3.92,0,0,0-3.923-3.923,2.894,2.894,0,0,1-2.49-1.4.471.471,0,0,1,.805-.49,1.958,1.958,0,0,0,1.685.946A4.863,4.863,0,0,1,92.374,25.028Zm-7.865-3.65-1.681,1.3L79.97,20.466a2.888,2.888,0,0,0,1.081-2.035,6.306,6.306,0,0,0,8.083-6.049c0-.037,0-3.3,0-3.337a.471.471,0,0,0-.47-.442,1.94,1.94,0,0,1-1.23-.227,2.145,2.145,0,0,1-.891-1.714.472.472,0,0,0-.744-.388,15.192,15.192,0,0,1-6.684,2.652.471.471,0,0,0,.065.938,15.51,15.51,0,0,0,3.34-.818,16.163,16.163,0,0,0,3.2-1.581,2.662,2.662,0,0,0,2.475,2.095v2.822a5.362,5.362,0,1,1-10.724,0V9.074a.471.471,0,0,0-.943,0v3.307a6.313,6.313,0,0,0,3.594,5.692V18.2a1.965,1.965,0,0,1-1.97,1.965,4.863,4.863,0,0,0-1.74.32l-.3-.242a5.758,5.758,0,0,1-1.207-7.7,6.512,6.512,0,0,0,1.1-3.622V6.364A5.427,5.427,0,0,1,81.414.943h2.828a5.427,5.427,0,0,1,5.421,5.421V8.917a6.479,6.479,0,0,0,1.091,3.614A5.758,5.758,0,0,1,90.709,19a.471.471,0,1,0,.776.535,6.7,6.7,0,0,0,.054-7.53,5.539,5.539,0,0,1-.932-3.09V6.364A6.371,6.371,0,0,0,84.243,0H81.414A6.371,6.371,0,0,0,75.05,6.364V8.917a5.572,5.572,0,0,1-.938,3.1,6.7,6.7,0,0,0,1.375,8.937,4.852,4.852,0,0,0-2.2,4.074v2.785a.471.471,0,0,0,.943,0V25.028a3.92,3.92,0,0,1,3.923-3.923,2.923,2.923,0,0,0,.917-.147l3.475,2.69a.471.471,0,0,0,.577,0l1.97-1.525a.471.471,0,0,0-.577-.745Z" transform="translate(533.064 2788.134)" fill="#fff"/>
    <g id="estrella" transform="translate(459.7 2931.571)">
      <g id="Grupo_1144287-2" data-name="Grupo 1144287" transform="translate(0 0)">
        <path id="Trazado_980802-3" data-name="Trazado 980802" d="M82.925,276.688l-2.616-3.349A3.489,3.489,0,0,0,77.834,272H60.448a.89.89,0,1,0,0,1.78h2.419l-2.27,2.906a1.876,1.876,0,0,1-1.072.653H48.206l2.27-2.906a1.877,1.877,0,0,1,1.072-.653h.89a.89.89,0,0,0,0-1.78h-.89a3.489,3.489,0,0,0-2.474,1.338l-2.616,3.349a1.625,1.625,0,0,0-.328,1.72,1.334,1.334,0,0,0,1.247.713h3.076V290.69a2.673,2.673,0,0,0,2.67,2.67H76.26a2.673,2.673,0,0,0,2.67-2.67V279.121h3.076a1.334,1.334,0,0,0,1.247-.713A1.625,1.625,0,0,0,82.925,276.688Zm-30.692,14V279.121h7.292A3.488,3.488,0,0,0,62,277.784l1.8-2.307v16.1H53.122A.891.891,0,0,1,52.233,290.69ZM77.15,279.121V290.69a.891.891,0,0,1-.89.89H65.581v-16.1l1.8,2.307a3.489,3.489,0,0,0,2.474,1.338Zm-7.292-1.78a1.877,1.877,0,0,1-1.072-.653l-2.27-2.906H77.834a1.877,1.877,0,0,1,1.072.654l2.27,2.906Z" transform="translate(-46.003 -272.002)" fill="#fff"/>
        <path id="Trazado_980804-3" data-name="Trazado 980804" d="M154.2,272a.89.89,0,1,0,.891.89.89.89,0,0,0-.891-.89Z" transform="translate(-143.763 -272.001)" fill="#fff"/>
      </g>
    </g>
    <g id="mano_6_" data-name="mano (6)" transform="translate(459.701 2784.503)">
      <path id="Trazado_980805-2" data-name="Trazado 980805" d="M219.866,331.335a.669.669,0,1,0-.946,0A.67.67,0,0,0,219.866,331.335Zm0,0" transform="translate(-204.131 -308.112)" fill="#fff"/>
      <path id="Trazado_980806-2" data-name="Trazado 980806" d="M188.449,7.354A7.354,7.354,0,1,0,195.8,0,7.363,7.363,0,0,0,188.449,7.354Zm13.371,0A6.017,6.017,0,1,1,195.8,1.337,6.024,6.024,0,0,1,201.82,7.354Zm0,0" transform="translate(-175.88 0)" fill="#fff"/>
      <path id="Trazado_980807-2" data-name="Trazado 980807" d="M8.2,232.162a.668.668,0,0,0,.944.006l3.241-3.193a2.02,2.02,0,0,0,.476-2.075l.7-.672a1.994,1.994,0,0,1,1.392-.562h8.888a5.986,5.986,0,0,0,4.2-1.705c.046-.045-.353.425,6.063-7.243a2.674,2.674,0,0,0-4.069-3.471L26.085,217.3a2.687,2.687,0,0,0-2.079-1H16.552a8.625,8.625,0,0,0-3.348-.669,8.271,8.271,0,0,0-7.539,4.275,2,2,0,0,0-1.788.554L.7,223.655a.669.669,0,0,0,0,.943Zm5-15.188a7.3,7.3,0,0,1,2.943.613.667.667,0,0,0,.268.056h7.592a1.337,1.337,0,1,1,0,2.674H18.552a.668.668,0,0,0,0,1.337h5.455a2.67,2.67,0,0,0,2.651-3.024c3.816-3.923,4.354-4.474,4.377-4.5a1.337,1.337,0,1,1,2.042,1.728l-6,7.169a4.655,4.655,0,0,1-3.24,1.3H14.952a3.324,3.324,0,0,0-2.321.937l-.568.548-5.238-5.237a6.9,6.9,0,0,1,6.378-3.6ZM4.823,221.41a.667.667,0,0,1,.828-.094c.116.071-.217-.232,5.791,5.767a.67.67,0,0,1,0,.942l-2.763,2.722-6.569-6.619Zm0,0" transform="translate(-0.501 -198.12)" fill="#fff"/>
      <path id="Trazado_980808-2" data-name="Trazado 980808" d="M267.167,40.657v.783a2.006,2.006,0,0,0,.669,3.9.668.668,0,0,1,0,1.337,1.209,1.209,0,0,1-.868-.506.669.669,0,0,0-1.023.86,2.773,2.773,0,0,0,1.223.871v.78a.668.668,0,0,0,1.337,0V47.9a2.006,2.006,0,0,0-.668-3.9.669.669,0,0,1,0-1.337,1.073,1.073,0,0,1,.723.35.669.669,0,1,0,.93-.961,2.583,2.583,0,0,0-.985-.615v-.779a.668.668,0,1,0-1.337,0Zm0,0" transform="translate(-248.046 -37.314)" fill="#fff"/>
    </g>
    <g id="tienda_1_" data-name="tienda (1)" transform="translate(325.507 2785.746)">
      <g id="Grupo_1144289-3" data-name="Grupo 1144289" transform="translate(0 0)">
        <g id="Grupo_1144288-3" data-name="Grupo 1144288" transform="translate(0 0)">
          <path id="Trazado_980809-3" data-name="Trazado 980809" d="M29.342,72.172h-.513V58.806a4.182,4.182,0,0,0,1.926-3.519.451.451,0,0,0-.059-.224l-3.575-6.256a1.417,1.417,0,0,0-1.227-.712H4.862a1.417,1.417,0,0,0-1.227.712L.059,55.064A.451.451,0,0,0,0,55.288a4.182,4.182,0,0,0,1.926,3.519V72.172H1.414a.451.451,0,0,0,0,.9H29.342a.451.451,0,0,0,0-.9ZM.932,55.738H2.376a.451.451,0,1,0,0-.9H1.227l3.19-5.582A.514.514,0,0,1,4.862,49H25.894a.514.514,0,0,1,.445.258l3.19,5.582h-1.15a.451.451,0,1,0,0,.9h1.445a3.281,3.281,0,0,1-6.5,0h3.129a.451.451,0,1,0,0-.9H4.3a.451.451,0,1,0,0,.9H7.432a3.281,3.281,0,0,1-6.5,0Zm21.427,0a3.281,3.281,0,0,1-6.5,0Zm-7.464,0a3.281,3.281,0,0,1-6.5,0ZM25.52,72.172H20.643V70.665H25.52Zm0-2.408H20.643V61.516H25.52Zm2.408,2.408H26.421V61.066a.45.45,0,0,0-.451-.451H20.193a.45.45,0,0,0-.451.451V72.172H2.827V59.243a4.178,4.178,0,0,0,5.087-2.068,4.181,4.181,0,0,0,7.464,0,4.181,4.181,0,0,0,7.464,0,4.178,4.178,0,0,0,5.087,2.068Z" transform="translate(0 -48.096)" fill="#fff"/>
        </g>
      </g>
      <g id="Grupo_1144291-3" data-name="Grupo 1144291" transform="translate(4.334 12.519)">
        <g id="Grupo_1144290-3" data-name="Grupo 1144290">
          <path id="Trazado_980810-3" data-name="Trazado 980810" d="M85.6,256.516h-13a.451.451,0,0,0-.451.451v9.149a.451.451,0,0,0,.451.451h13a.45.45,0,0,0,.451-.451v-9.149A.45.45,0,0,0,85.6,256.516Zm-.451,9.149h-12.1v-8.248h12.1Z" transform="translate(-72.145 -256.516)" fill="#fff"/>
        </g>
      </g>
    </g>
    <path id="Trazado_981268" data-name="Trazado 981268" d="M8.9-5.432H4.052v3.059h5.73V0H.967V-12.8H9.8v2.382H4.052v2.7H8.9Zm6.979,2.76a.684.684,0,0,0-.4-.606,6.016,6.016,0,0,0-1.5-.475A6.853,6.853,0,0,1,12.155-4.4a3.062,3.062,0,0,1-1.1-.971,2.319,2.319,0,0,1-.378-1.31A2.628,2.628,0,0,1,11.76-8.837a4.453,4.453,0,0,1,2.83-.848,4.934,4.934,0,0,1,3.023.853,2.666,2.666,0,0,1,1.143,2.241H15.785q0-1.143-1.2-1.143a1.194,1.194,0,0,0-.782.259.8.8,0,0,0-.316.646.737.737,0,0,0,.387.642,3.654,3.654,0,0,0,1.235.4,10.671,10.671,0,0,1,1.49.378A2.706,2.706,0,0,1,18.738-2.76,2.491,2.491,0,0,1,17.583-.642,5.068,5.068,0,0,1,14.59.176a5.172,5.172,0,0,1-2.18-.439,3.645,3.645,0,0,1-1.494-1.2A2.707,2.707,0,0,1,10.38-3.05h2.769a1.145,1.145,0,0,0,.439.962,1.808,1.808,0,0,0,1.081.3,1.422,1.422,0,0,0,.91-.246A.787.787,0,0,0,15.882-2.672Zm3.867-2.18A5.709,5.709,0,0,1,20.733-8.4a3.233,3.233,0,0,1,2.716-1.283,2.761,2.761,0,0,1,2.338,1.2L26-9.51h2.566V3.656H25.594V-.791a2.757,2.757,0,0,1-2.162.967,3.2,3.2,0,0,1-2.685-1.305A6.027,6.027,0,0,1,19.749-4.852Zm2.962.185q0,2.558,1.477,2.558a1.43,1.43,0,0,0,1.406-.773V-6.645A1.4,1.4,0,0,0,24.205-7.4q-1.38,0-1.485,2.206ZM35.9-1.028a3.054,3.054,0,0,1-2.54,1.2,3,3,0,0,1-2.369-.91,3.826,3.826,0,0,1-.8-2.615V-9.51h2.962v6.179a1.065,1.065,0,0,0,1.187,1.222,1.548,1.548,0,0,0,1.45-.729V-9.51h2.979V0H35.991Zm9.088,1.2a4.889,4.889,0,0,1-3.542-1.305,4.507,4.507,0,0,1-1.354-3.4v-.246a5.84,5.84,0,0,1,.541-2.575,3.955,3.955,0,0,1,1.578-1.727,4.763,4.763,0,0,1,2.461-.611,4.117,4.117,0,0,1,3.164,1.244A4.887,4.887,0,0,1,49-4.975v1.151H43.11A2.135,2.135,0,0,0,43.8-2.566a2.066,2.066,0,0,0,1.389.457,2.662,2.662,0,0,0,2.2-.984l1.354,1.6A3.784,3.784,0,0,1,47.175-.277,5.3,5.3,0,0,1,44.991.176ZM44.657-7.4q-1.3,0-1.547,1.723H46.1v-.229a1.467,1.467,0,0,0-.36-1.1A1.434,1.434,0,0,0,44.657-7.4ZM52.989-9.51l.1,1.116A3.27,3.27,0,0,1,55.8-9.686a2.407,2.407,0,0,1,2.435,1.433,3.165,3.165,0,0,1,2.795-1.433q2.892,0,2.971,3.5V0H61.031V-6a1.813,1.813,0,0,0-.246-1.063,1.048,1.048,0,0,0-.9-.334,1.4,1.4,0,0,0-1.31.782l.009.123V0H55.617V-5.985a1.906,1.906,0,0,0-.237-1.081,1.045,1.045,0,0,0-.905-.334,1.42,1.42,0,0,0-1.3.782V0H50.212V-9.51ZM71.051,0a3.344,3.344,0,0,1-.281-.853A2.754,2.754,0,0,1,68.484.176,3.374,3.374,0,0,1,66.2-.637a2.588,2.588,0,0,1-.94-2.043A2.66,2.66,0,0,1,66.4-5.019a5.821,5.821,0,0,1,3.322-.791h.914v-.5q0-1.316-1.134-1.316a.927.927,0,0,0-1.055,1.042H65.487a2.655,2.655,0,0,1,1.173-2.239,4.931,4.931,0,0,1,2.993-.86,4.323,4.323,0,0,1,2.874.888,3.086,3.086,0,0,1,1.081,2.435v4.21a4.311,4.311,0,0,0,.4,2V0ZM69.2-1.934a1.652,1.652,0,0,0,.918-.237,1.487,1.487,0,0,0,.523-.536V-4.228h-.861q-1.547,0-1.547,1.389a.848.848,0,0,0,.272.655A.986.986,0,0,0,69.2-1.934ZM87.8-5.432H82.951v3.059h5.73V0H79.866V-12.8H88.7v2.382H82.951v2.7H87.8Zm6.979,2.76a.684.684,0,0,0-.4-.606,6.016,6.016,0,0,0-1.5-.475A6.853,6.853,0,0,1,91.055-4.4a3.062,3.062,0,0,1-1.1-.971,2.319,2.319,0,0,1-.378-1.31,2.628,2.628,0,0,1,1.081-2.158,4.453,4.453,0,0,1,2.83-.848,4.934,4.934,0,0,1,3.023.853,2.666,2.666,0,0,1,1.143,2.241H94.685q0-1.143-1.2-1.143a1.194,1.194,0,0,0-.782.259.8.8,0,0,0-.316.646.737.737,0,0,0,.387.642,3.654,3.654,0,0,0,1.235.4,10.671,10.671,0,0,1,1.49.378A2.706,2.706,0,0,1,97.638-2.76,2.491,2.491,0,0,1,96.482-.642a5.068,5.068,0,0,1-2.993.817,5.172,5.172,0,0,1-2.18-.439,3.645,3.645,0,0,1-1.494-1.2,2.707,2.707,0,0,1-.536-1.591h2.769a1.145,1.145,0,0,0,.439.962,1.808,1.808,0,0,0,1.081.3,1.422,1.422,0,0,0,.91-.246A.787.787,0,0,0,94.781-2.672Zm7.69-9.2V-9.51h1.564v2.057h-1.564V-3.1a1.111,1.111,0,0,0,.193.747,1.037,1.037,0,0,0,.765.211,4.345,4.345,0,0,0,.738-.053V-.079a5.466,5.466,0,0,1-1.67.255,3.1,3.1,0,0,1-2.259-.721,2.954,2.954,0,0,1-.729-2.188v-4.72H98.3V-9.51H99.51v-2.364Zm8.481,5.045-.976-.07a1.752,1.752,0,0,0-1.793.879V0h-2.962V-9.51H108l.1,1.222a2.294,2.294,0,0,1,2.083-1.4,2.888,2.888,0,0,1,.826.105Zm5.5,7a4.889,4.889,0,0,1-3.542-1.305,4.507,4.507,0,0,1-1.354-3.4v-.246a5.84,5.84,0,0,1,.541-2.575,3.955,3.955,0,0,1,1.578-1.727,4.763,4.763,0,0,1,2.461-.611A4.117,4.117,0,0,1,119.3-8.442a4.887,4.887,0,0,1,1.16,3.467v1.151h-5.889a2.135,2.135,0,0,0,.694,1.257,2.066,2.066,0,0,0,1.389.457,2.662,2.662,0,0,0,2.2-.984l1.354,1.6a3.784,3.784,0,0,1-1.569,1.217A5.3,5.3,0,0,1,116.455.176ZM116.121-7.4q-1.3,0-1.547,1.723h2.988v-.229a1.467,1.467,0,0,0-.36-1.1A1.434,1.434,0,0,0,116.121-7.4ZM124.778,0h-2.971V-13.5h2.971Zm4.948,0h-2.971V-13.5h2.971Zm7.181,0a3.344,3.344,0,0,1-.281-.853A2.754,2.754,0,0,1,134.341.176a3.374,3.374,0,0,1-2.285-.813,2.588,2.588,0,0,1-.94-2.043,2.66,2.66,0,0,1,1.143-2.338,5.821,5.821,0,0,1,3.322-.791h.914v-.5q0-1.316-1.134-1.316a.927.927,0,0,0-1.055,1.042h-2.962a2.655,2.655,0,0,1,1.173-2.239,4.931,4.931,0,0,1,2.993-.86,4.323,4.323,0,0,1,2.874.888,3.086,3.086,0,0,1,1.081,2.435v4.21a4.311,4.311,0,0,0,.4,2V0Zm-1.854-1.934a1.652,1.652,0,0,0,.918-.237,1.487,1.487,0,0,0,.523-.536V-4.228h-.861q-1.547,0-1.547,1.389a.848.848,0,0,0,.272.655A.986.986,0,0,0,135.053-1.934Z" transform="translate(408 2555)" fill="#12263f"/>
  </g>
</svg>
