<?xml version="1.0" encoding="utf-8"?>
<!-- Generator: Adobe Illustrator 27.4.1, SVG Export Plug-In . SVG Version: 6.00 Build 0)  -->
<svg version="1.1" id="Layer_1" xmlns="http://www.w3.org/2000/svg" xmlns:xlink="http://www.w3.org/1999/xlink" x="0px" y="0px"
	 viewBox="0 0 144 132" style="enable-background:new 0 0 144 132;" xml:space="preserve">
<style type="text/css">
	.st0{fill:#BBEDF7;}
	.st1{enable-background:new    ;}
	.st2{fill:#39A900;}
	.st3{fill:#99D9E3;enable-background:new    ;}
	.st4{fill:#FFFFFF;}
	.st5{fill:#00314D;}
</style>
<g>
	<path id="blob_2_" class="st0" d="M140.3,47c9.7,26.2-0.1,62.4-21.2,76c-21.1,13.7-53.4,4.8-79.2-13.8s-45-46.8-38.6-68.5
		C7.7,18.8,39.8,3.5,70.6,4C101.3,4.5,130.6,20.8,140.3,47z"/>
	<g class="st1">
		<path class="st2" d="M77.5,84.8v-3.6H74v-2.5h3.5v-3.6h2.8v3.6h3.5v2.5h-3.5v3.6H77.5z"/>
	</g>
	<g class="st1">
		<path class="st2" d="M17.5,100.8v-3.6H14v-2.5h3.5v-3.6h2.8v3.6h3.5v2.5h-3.5v3.6H17.5z"/>
	</g>
	<g class="st1">
		<path class="st2" d="M97.5,16.8v-3.6H94v-2.5h3.5V7.2h2.8v3.6h3.5v2.5h-3.5v3.6H97.5z"/>
	</g>
	<circle id="Elipse_1" class="st2" cx="13" cy="26" r="4"/>
	<circle id="Elipse_2" class="st2" cx="40" cy="119" r="4"/>
	<circle id="Elipse_5" class="st2" cx="116" cy="115" r="4"/>
	<g>
		<g>
			<circle id="Elipse_6_00000023979627426814290630000010516790296006702262_" class="st3" cx="59" cy="20" r="10"/>
			<circle id="Elipse_7_00000020385437926372712300000006581666641395394947_" class="st3" cx="122" cy="86" r="10"/>
			<circle id="Elipse_11_00000174574204141642074510000009175148529509374094_" class="st3" cx="135" cy="9" r="7"/>
			<circle id="Elipse_12_00000020375207123352402510000003750372522028895370_" class="st3" cx="15" cy="125" r="7"/>
			<circle id="Elipse_8_00000004510068758373729200000008744464967105871002_" class="st3" cx="56" cy="115" r="10"/>
		</g>
	</g>
	<g id="Elipse_3" transform="translate(121.665 89.676)">
		<path class="st2" d="M-9.7-9.7c-2.2,0-4-1.8-4-4s1.8-4,4-4s4,1.8,4,4S-7.5-9.7-9.7-9.7z M-9.7-15.7c-1.1,0-2,0.9-2,2s0.9,2,2,2
			s2-0.9,2-2S-8.6-15.7-9.7-15.7z"/>
	</g>
	<g id="Elipse_4" transform="translate(28.665 69.676)">
		<path class="st2" d="M-9.7-9.7c-2.2,0-4-1.8-4-4s1.8-4,4-4s4,1.8,4,4S-7.5-9.7-9.7-9.7z M-9.7-15.7c-1.1,0-2,0.9-2,2s0.9,2,2,2
			s2-0.9,2-2S-8.6-15.7-9.7-15.7z"/>
	</g>
	<g>
		<path id="Icon_awesome-hand-point-right" class="st4" d="M71.8,53.6c2.8,0.1,5.1,2.4,5.1,5.2v11.6c2.4-2.1,6-1.9,8.1,0.5
			c0.1,0.1,0.1,0.1,0.2,0.2c2.5-1.5,5.8-0.6,7.3,1.9c5.7-1,8.3,2.6,8.3,8.5c0,0.3,0,1.5,0,1.9c0,7.2-3.6,9-4.5,14.4
			c-0.2,1.4-1.4,2.4-2.8,2.4h-20l0,0c-2.2,0-4.2-1.3-5.1-3.3c-1.5-3.4-5.7-11.1-9-12.5c-2-0.7-3.4-2.5-3.4-4.7
			c0-3.1,2.5-5.6,5.6-5.6c0.8,0,1.5,0.2,2.2,0.5c1,0.4,2,1,2.9,1.7V58.8C66.8,56,69,53.7,71.8,53.6z M71.9,103.8h22.4
			c1.5,0,2.8,1.3,2.8,2.8v5.6c0,1.5-1.3,2.8-2.8,2.8H71.9c-1.5,0-2.8-1.3-2.8-2.8l0,0v-5.6C69.1,105.1,70.3,103.8,71.9,103.8
			L71.9,103.8z M91.5,107.1c-1.3,0-2.3,1-2.3,2.3c0,1.3,1,2.3,2.3,2.3s2.3-1,2.3-2.3c0,0,0,0,0,0C93.8,108.1,92.7,107.1,91.5,107.1z
			"/>
		<path class="st5" d="M94.7,116.1H72.3c-2.4,0-4.3-1.9-4.3-4.3v-5.6c0-2.4,1.9-4.3,4.3-4.3h22.4c2.4,0,4.3,1.9,4.3,4.3v5.6
			C99,114.2,97.1,116.1,94.7,116.1z M72.3,104.9c-0.7,0-1.3,0.6-1.3,1.3v5.6c0,0.7,0.6,1.3,1.3,1.3h22.4c0.7,0,1.3-0.6,1.3-1.3v-5.6
			c0-0.7-0.6-1.3-1.3-1.3H72.3z M91.9,112.8c-2.1,0-3.8-1.7-3.8-3.8s1.7-3.8,3.8-3.8c2.1,0,3.8,1.7,3.8,3.8
			C95.7,111.1,94,112.8,91.9,112.8z M91.9,108.2c-0.5,0-0.8,0.4-0.8,0.8s0.4,0.8,0.8,0.8s0.8-0.4,0.8-0.8S92.3,108.2,91.9,108.2z
			 M94,101.3H74c-2.8,0-5.3-1.7-6.5-4.2c-1.8-4.1-5.7-10.6-8.2-11.8c-2.6-0.9-4.3-3.3-4.3-6c0-3.9,3.2-7.1,7.1-7.1c0,0,0,0,0,0
			c1,0,1.9,0.2,2.8,0.6c0.3,0.1,0.6,0.2,0.8,0.4V58.4c0.1-3.6,3-6.6,6.5-6.7l0.1,0l0.1,0c3.7,0.1,6.5,3.1,6.6,6.7v9.1
			c2.4-0.8,5.2-0.3,7.1,1.5c2.7-1,5.8-0.1,7.6,2.1c2.4-0.3,4.5,0.3,6,1.6c2,1.7,3.1,4.6,3.1,8.5c0,0.2,0,0.5,0,0.9c0,0.4,0,0.8,0,1
			c0,4.6-1.4,7.2-2.6,9.5c-0.8,1.6-1.6,3.1-1.9,5.1C97.9,99.8,96.1,101.3,94,101.3z M62,75.2c-2.3,0-4.1,1.8-4.1,4.1
			c0,1.5,1,2.8,2.4,3.2l0.1,0c4.7,2,9.7,13.2,9.8,13.3c0.7,1.5,2.1,2.4,3.7,2.4h20c0.6,0,1.2-0.5,1.3-1.1c0.4-2.5,1.3-4.3,2.2-6.1
			c1.2-2.2,2.2-4.3,2.2-8.1c0-0.2,0-0.6,0-1c0-0.4,0-0.7,0-0.9c0-3-0.7-5.1-2-6.2c-1-0.9-2.6-1.1-4.5-0.8l-1,0.2l-0.5-0.9
			c-1.1-1.8-3.4-2.4-5.2-1.4l-1.1,0.6l-0.9-1.2c-0.7-0.8-1.8-1.4-2.9-1.4c-1.1-0.1-2.2,0.3-3.1,1l-2.5,2.2v-15c0-2-1.6-3.6-3.6-3.7
			c-2,0.1-3.6,1.8-3.6,3.8l0,20.3L66.3,77c-0.8-0.6-1.7-1.1-2.6-1.5C63.1,75.3,62.6,75.2,62,75.2C62,75.2,62,75.2,62,75.2z"/>
		<circle class="st4" cx="98" cy="40" r="17"/>
		<g>
			<path class="st5" d="M98,57c-9.4,0-17-7.6-17-17s7.6-17,17-17s17,7.6,17,17S107.4,57,98,57z M98,26c-7.7,0-14,6.3-14,14
				s6.3,14,14,14s14-6.3,14-14S105.7,26,98,26z"/>
			<path id="Trazado_23" class="st5" d="M105.5,33.5l-5.6,13.1h-3.6l-5.6-13.1h4l3.6,8.5l3.6-8.5H105.5z"/>
		</g>
		<circle class="st4" cx="46" cy="40" r="17"/>
		<g>
			<path class="st5" d="M46,57c-9.4,0-17-7.6-17-17s7.6-17,17-17s17,7.6,17,17S55.4,57,46,57z M46,26c-7.7,0-14,6.3-14,14
				s6.3,14,14,14s14-6.3,14-14S53.7,26,46,26z"/>
			<path id="Trazado_22" class="st5" d="M44.9,36.3v2.9h5.8v2.9h-5.8v4.5h-3.7V33.5h10.3v2.9H44.9z"/>
		</g>
	</g>
</g>
</svg>
